SeanSlab_1.ufo
<glyph name="hyphen" format="1">
  <advance width="515"/>
  <unicode hex="002D"/>
  <outline>
    <contour>
      <point x="76" y="220" type="curve"/>
      <point x="196" y="220"/>
      <point x="318" y="220"/>
      <point x="439" y="220" type="curve"/>
      <point x="439" y="349"/>
      <point x="439" y="220"/>
      <point x="439" y="349" type="curve"/>
      <point x="318" y="349"/>
      <point x="196" y="349"/>
      <point x="76" y="349" type="curve"/>
      <point x="76" y="220"/>
      <point x="76" y="349"/>
    </contour>
  </outline>
</glyph>
<glyph name="eight" format="1">
  <advance width="765"/>
  <unicode hex="0038"/>
  <outline>
    <contour>
      <point x="88" y="534" type="curve"/>
      <point x="88" y="402"/>
      <point x="205" y="383"/>
      <point x="337" y="338" type="curve"/>
      <point x="442" y="302"/>
      <point x="542" y="296"/>
      <point x="542" y="196" type="curve"/>
      <point x="542" y="128"/>
      <point x="471" y="113"/>
      <point x="383" y="113" type="curve"/>
      <point x="294" y="113"/>
      <point x="223" y="127"/>
      <point x="223" y="196" type="curve"/>
      <point x="223" y="298"/>
      <point x="327" y="302"/>
      <point x="433" y="340" type="curve"/>
      <point x="561" y="386"/>
      <point x="677" y="403"/>
      <point x="677" y="533" type="curve"/>
      <point x="677" y="684"/>
      <point x="554" y="727"/>
      <point x="383" y="727" type="curve"/>
      <point x="215" y="727"/>
      <point x="88" y="682"/>
      <point x="88" y="534" type="curve"/>
      <point x="247" y="534"/>
      <point x="88" y="534"/>
      <point x="247" y="534" type="curve"/>
      <point x="247" y="593"/>
      <point x="304" y="608"/>
      <point x="376" y="608" type="curve"/>
      <point x="456" y="608"/>
      <point x="519" y="596"/>
      <point x="519" y="533" type="curve"/>
      <point x="519" y="447"/>
      <point x="426" y="449"/>
      <point x="334" y="418" type="curve"/>
      <point x="190" y="367"/>
      <point x="64" y="341"/>
      <point x="64" y="196" type="curve"/>
      <point x="64" y="39"/>
      <point x="198" y="-5"/>
      <point x="375" y="-5" type="curve"/>
      <point x="559" y="-5"/>
      <point x="701" y="34"/>
      <point x="701" y="196" type="curve"/>
      <point x="701" y="340"/>
      <point x="575" y="367"/>
      <point x="434" y="417" type="curve"/>
      <point x="341" y="451"/>
      <point x="247" y="451"/>
      <point x="247" y="534" type="curve"/>
      <point x="88" y="534"/>
      <point x="247" y="534"/>
    </contour>
  </outline>
</glyph>
<glyph name="semicolon" format="1">
  <advance width="352"/>
  <unicode hex="003B"/>
  <outline>
    <contour>
      <point x="77" y="-176" type="line"/>
      <point x="199" y="-176"/>
      <point x="284" y="-102"/>
      <point x="284" y="8" type="curve"/>
      <point x="284" y="90"/>
      <point x="240" y="153"/>
      <point x="173" y="153" type="curve"/>
      <point x="121" y="153"/>
      <point x="82" y="127"/>
      <point x="82" y="77" type="curve"/>
      <point x="82" y="27"/>
      <point x="122" y="0"/>
      <point x="178" y="0" type="curve"/>
      <point x="176" y="-46"/>
      <point x="158" y="-86"/>
      <point x="77" y="-95" type="curve"/>
    </contour>
    <contour>
      <point x="261" y="375" type="curve"/>
      <point x="261" y="427"/>
      <point x="221" y="451"/>
      <point x="167" y="451" type="curve"/>
      <point x="113" y="451"/>
      <point x="76" y="424"/>
      <point x="76" y="375" type="curve"/>
      <point x="261" y="375"/>
      <point x="76" y="375"/>
      <point x="261" y="375" type="curve"/>
      <point x="261" y="323"/>
      <point x="221" y="301"/>
      <point x="166" y="301" type="curve"/>
      <point x="112" y="301"/>
      <point x="76" y="325"/>
      <point x="76" y="375" type="curve"/>
      <point x="261" y="375"/>
      <point x="76" y="375"/>
    </contour>
  </outline>
</glyph>
<glyph name="less" format="1">
  <advance width="884"/>
  <unicode hex="003C"/>
  <outline>
    <contour>
      <point x="801" y="634" type="curve"/>
      <point x="548" y="544"/>
      <point x="295" y="454"/>
      <point x="42" y="364" type="curve"/>
      <point x="42" y="236"/>
      <point x="42" y="364"/>
      <point x="42" y="236" type="curve"/>
      <point x="295" y="326"/>
      <point x="548" y="416"/>
      <point x="801" y="506" type="curve"/>
      <point x="801" y="634"/>
      <point x="801" y="506"/>
    </contour>
    <contour>
      <point x="813" y="100" type="curve"/>
      <point x="556" y="188"/>
      <point x="300" y="276"/>
      <point x="42" y="364" type="curve"/>
      <point x="42" y="236"/>
      <point x="42" y="364"/>
      <point x="42" y="236" type="curve"/>
      <point x="300" y="148"/>
      <point x="556" y="60"/>
      <point x="813" y="-28" type="curve"/>
      <point x="813" y="100"/>
      <point x="813" y="-28"/>
    </contour>
  </outline>
</glyph>
<glyph name="question" format="1">
  <advance width="657"/>
  <unicode hex="003F"/>
  <outline>
    <contour>
      <point x="213" y="384" type="curve"/>
      <point x="213" y="347"/>
      <point x="213" y="258"/>
      <point x="213" y="221" type="curve"/>
      <point x="370" y="221"/>
      <point x="213" y="221"/>
      <point x="370" y="221" type="curve"/>
      <point x="370" y="258"/>
      <point x="370" y="347"/>
      <point x="370" y="384" type="curve"/>
      <point x="213" y="384"/>
      <point x="370" y="384"/>
    </contour>
    <contour>
      <point x="118" y="561" type="line"/>
      <point x="158" y="601"/>
      <point x="224" y="636"/>
      <point x="297" y="636" type="curve"/>
      <point x="385" y="636"/>
      <point x="455" y="601"/>
      <point x="455" y="519" type="curve"/>
      <point x="455" y="426"/>
      <point x="356" y="384"/>
      <point x="230" y="384" type="curve"/>
      <point x="230" y="341"/>
      <point x="230" y="310"/>
      <point x="230" y="268" type="curve"/>
      <point x="442" y="268"/>
      <point x="606" y="350"/>
      <point x="606" y="519" type="curve"/>
      <point x="606" y="678"/>
      <point x="475" y="757"/>
      <point x="305" y="757" type="curve"/>
      <point x="196" y="757"/>
      <point x="113" y="723"/>
      <point x="37" y="650" type="curve"/>
    </contour>
    <contour>
      <point x="386" y="22" type="curve"/>
      <point x="386" y="74"/>
      <point x="346" y="98"/>
      <point x="292" y="98" type="curve"/>
      <point x="238" y="98"/>
      <point x="201" y="71"/>
      <point x="201" y="22" type="curve"/>
      <point x="386" y="22"/>
      <point x="201" y="22"/>
      <point x="386" y="22" type="curve"/>
      <point x="386" y="-30"/>
      <point x="346" y="-52"/>
      <point x="291" y="-52" type="curve"/>
      <point x="237" y="-52"/>
      <point x="201" y="-27"/>
      <point x="201" y="22" type="curve"/>
      <point x="386" y="22"/>
      <point x="201" y="22"/>
    </contour>
  </outline>
</glyph>
<glyph name="H" format="1">
  <advance width="1044"/>
  <unicode hex="0048"/>
  <outline>
    <contour>
      <point x="837" y="606" type="curve"/>
      <point x="1025" y="606"/>
      <point x="810" y="606"/>
      <point x="998" y="606" type="curve"/>
      <point x="998" y="722"/>
      <point x="998" y="606"/>
      <point x="998" y="722" type="curve"/>
      <point x="935" y="722"/>
      <point x="900" y="722"/>
      <point x="837" y="722" type="curve"/>
      <point x="837" y="606"/>
      <point x="837" y="722"/>
    </contour>
    <contour>
      <point x="837" y="0" type="curve"/>
      <point x="900" y="0"/>
      <point x="935" y="0"/>
      <point x="998" y="0" type="curve"/>
      <point x="998" y="116"/>
      <point x="998" y="0"/>
      <point x="998" y="116" type="curve"/>
      <point x="810" y="116"/>
      <point x="1025" y="116"/>
      <point x="837" y="116" type="curve"/>
      <point x="837" y="0"/>
      <point x="837" y="116"/>
    </contour>
    <contour>
      <point x="837" y="116" type="curve"/>
      <point x="648" y="116"/>
      <point x="864" y="116"/>
      <point x="675" y="116" type="curve"/>
      <point x="675" y="0"/>
      <point x="675" y="116"/>
      <point x="675" y="0" type="curve"/>
      <point x="738" y="0"/>
      <point x="774" y="0"/>
      <point x="837" y="0" type="curve"/>
      <point x="837" y="116"/>
      <point x="837" y="0"/>
    </contour>
    <contour>
      <point x="837" y="722" type="curve"/>
      <point x="774" y="722"/>
      <point x="738" y="722"/>
      <point x="675" y="722" type="curve"/>
      <point x="675" y="606"/>
      <point x="675" y="722"/>
      <point x="675" y="606" type="curve"/>
      <point x="864" y="606"/>
      <point x="648" y="606"/>
      <point x="837" y="606" type="curve"/>
      <point x="837" y="722"/>
      <point x="837" y="606"/>
    </contour>
    <contour>
      <point x="207" y="606" type="curve"/>
      <point x="396" y="606"/>
      <point x="180" y="606"/>
      <point x="369" y="606" type="curve"/>
      <point x="369" y="722"/>
      <point x="369" y="606"/>
      <point x="369" y="722" type="curve"/>
      <point x="307" y="722"/>
      <point x="271" y="722"/>
      <point x="207" y="722" type="curve"/>
      <point x="207" y="606"/>
      <point x="207" y="722"/>
    </contour>
    <contour>
      <point x="207" y="722" type="curve"/>
      <point x="145" y="722"/>
      <point x="109" y="722"/>
      <point x="46" y="722" type="curve"/>
      <point x="46" y="606"/>
      <point x="46" y="722"/>
      <point x="46" y="606" type="curve"/>
      <point x="234" y="606"/>
      <point x="19" y="606"/>
      <point x="207" y="606" type="curve"/>
      <point x="207" y="722"/>
      <point x="207" y="606"/>
    </contour>
    <contour>
      <point x="207" y="0" type="curve"/>
      <point x="271" y="0"/>
      <point x="180" y="0"/>
      <point x="369" y="0" type="curve"/>
      <point x="369" y="116"/>
      <point x="369" y="0"/>
      <point x="369" y="116" type="curve"/>
      <point x="180" y="116"/>
      <point x="396" y="116"/>
      <point x="207" y="116" type="curve"/>
      <point x="207" y="0"/>
      <point x="207" y="116"/>
    </contour>
    <contour>
      <point x="207" y="116" type="curve"/>
      <point x="19" y="116"/>
      <point x="234" y="116"/>
      <point x="46" y="116" type="curve"/>
      <point x="46" y="0"/>
      <point x="46" y="116"/>
      <point x="46" y="0" type="curve"/>
      <point x="109" y="0"/>
      <point x="145" y="0"/>
      <point x="207" y="0" type="curve"/>
      <point x="207" y="116"/>
      <point x="207" y="0"/>
    </contour>
    <contour>
      <point x="288" y="0" type="curve"/>
      <point x="288" y="722" type="line"/>
      <point x="128" y="722"/>
      <point x="288" y="722"/>
      <point x="128" y="722" type="curve"/>
      <point x="128" y="481"/>
      <point x="128" y="241"/>
      <point x="128" y="0" type="curve"/>
      <point x="288" y="0"/>
      <point x="128" y="0"/>
    </contour>
    <contour>
      <point x="833" y="421" type="curve"/>
      <point x="624" y="421"/>
      <point x="416" y="421"/>
      <point x="207" y="421" type="curve"/>
      <point x="207" y="304"/>
      <point x="207" y="421"/>
      <point x="207" y="304" type="curve"/>
      <point x="416" y="304"/>
      <point x="624" y="304"/>
      <point x="833" y="304" type="curve"/>
      <point x="833" y="421"/>
      <point x="833" y="304"/>
    </contour>
    <contour>
      <point x="915" y="50" type="curve"/>
      <point x="915" y="257"/>
      <point x="915" y="465"/>
      <point x="915" y="672" type="curve"/>
      <point x="757" y="672"/>
      <point x="915" y="672"/>
      <point x="757" y="672" type="curve"/>
      <point x="757" y="50" type="line"/>
      <point x="915" y="50"/>
      <point x="757" y="50"/>
    </contour>
  </outline>
</glyph>
<glyph name="I" format="1">
  <advance width="417"/>
  <unicode hex="0049"/>
  <outline>
    <contour>
      <point x="208" y="780" type="move" name="top"/>
    </contour>
    <contour>
      <point x="286" y="1" type="move" name="bottom"/>
    </contour>
    <contour>
      <point x="209" y="722" type="curve"/>
      <point x="146" y="722"/>
      <point x="110" y="722"/>
      <point x="48" y="722" type="curve"/>
      <point x="48" y="606"/>
      <point x="48" y="722"/>
      <point x="48" y="606" type="curve"/>
      <point x="236" y="606"/>
      <point x="21" y="606"/>
      <point x="209" y="606" type="curve"/>
      <point x="209" y="722"/>
      <point x="209" y="606"/>
    </contour>
    <contour>
      <point x="209" y="606" type="curve"/>
      <point x="398" y="606"/>
      <point x="182" y="606"/>
      <point x="371" y="606" type="curve"/>
      <point x="371" y="722"/>
      <point x="371" y="606"/>
      <point x="371" y="722" type="curve"/>
      <point x="308" y="722"/>
      <point x="272" y="722"/>
      <point x="209" y="722" type="curve"/>
      <point x="209" y="606"/>
      <point x="209" y="722"/>
    </contour>
    <contour>
      <point x="209" y="0" type="curve"/>
      <point x="272" y="0"/>
      <point x="308" y="0"/>
      <point x="371" y="0" type="curve"/>
      <point x="371" y="116"/>
      <point x="371" y="0"/>
      <point x="371" y="116" type="curve"/>
      <point x="182" y="116"/>
      <point x="398" y="116"/>
      <point x="209" y="116" type="curve"/>
      <point x="209" y="0"/>
      <point x="209" y="116"/>
    </contour>
    <contour>
      <point x="209" y="116" type="curve"/>
      <point x="21" y="116"/>
      <point x="236" y="116"/>
      <point x="48" y="116" type="curve"/>
      <point x="48" y="0"/>
      <point x="48" y="116"/>
      <point x="48" y="0" type="curve"/>
      <point x="110" y="0"/>
      <point x="146" y="0"/>
      <point x="209" y="0" type="curve"/>
      <point x="209" y="116"/>
      <point x="209" y="0"/>
    </contour>
    <contour>
      <point x="288" y="0" type="curve"/>
      <point x="288" y="241"/>
      <point x="288" y="481"/>
      <point x="288" y="722" type="curve"/>
      <point x="128" y="722"/>
      <point x="288" y="722"/>
      <point x="128" y="722" type="curve"/>
      <point x="128" y="481"/>
      <point x="128" y="241"/>
      <point x="128" y="0" type="curve"/>
      <point x="288" y="0"/>
      <point x="128" y="0"/>
    </contour>
  </outline>
</glyph>
<glyph name="K" format="1">
  <advance width="887"/>
  <unicode hex="004B"/>
  <outline>
    <contour>
      <point x="498" y="5" type="move" name="bottom"/>
    </contour>
    <contour>
      <point x="718" y="722" type="curve"/>
      <point x="653" y="722"/>
      <point x="497" y="722"/>
      <point x="431" y="722" type="curve"/>
      <point x="431" y="606"/>
      <point x="431" y="722"/>
      <point x="431" y="606" type="curve"/>
      <point x="626" y="606"/>
      <point x="523" y="606"/>
      <point x="718" y="606" type="curve"/>
      <point x="718" y="722"/>
      <point x="718" y="606"/>
    </contour>
    <contour>
      <point x="725" y="0" type="curve"/>
      <point x="789" y="0"/>
      <point x="795" y="0"/>
      <point x="860" y="0" type="curve"/>
      <point x="860" y="116"/>
      <point x="860" y="0"/>
      <point x="860" y="116" type="curve"/>
      <point x="666" y="116"/>
      <point x="919" y="116"/>
      <point x="725" y="116" type="curve"/>
      <point x="725" y="0"/>
      <point x="725" y="116"/>
    </contour>
    <contour>
      <point x="715" y="606" type="curve"/>
      <point x="895" y="606"/>
      <point x="634" y="606"/>
      <point x="815" y="606" type="curve"/>
      <point x="815" y="722"/>
      <point x="815" y="606"/>
      <point x="815" y="722" type="curve"/>
      <point x="754" y="722"/>
      <point x="774" y="722"/>
      <point x="715" y="722" type="curve"/>
      <point x="715" y="606"/>
      <point x="715" y="722"/>
    </contour>
    <contour>
      <point x="207" y="722" type="curve"/>
      <point x="144" y="722"/>
      <point x="109" y="722"/>
      <point x="46" y="722" type="curve"/>
      <point x="46" y="606"/>
      <point x="46" y="722"/>
      <point x="46" y="606" type="curve"/>
      <point x="234" y="606"/>
      <point x="19" y="606"/>
      <point x="207" y="606" type="curve"/>
      <point x="207" y="722"/>
      <point x="207" y="606"/>
    </contour>
    <contour>
      <point x="207" y="606" type="curve"/>
      <point x="374" y="606"/>
      <point x="188" y="606"/>
      <point x="355" y="606" type="curve"/>
      <point x="355" y="722"/>
      <point x="355" y="606"/>
      <point x="355" y="722" type="curve"/>
      <point x="299" y="722"/>
      <point x="263" y="722"/>
      <point x="207" y="722" type="curve"/>
      <point x="207" y="606"/>
      <point x="207" y="722"/>
    </contour>
    <contour>
      <point x="207" y="0" type="curve"/>
      <point x="271" y="0"/>
      <point x="176" y="0"/>
      <point x="366" y="0" type="curve"/>
      <point x="366" y="116"/>
      <point x="366" y="0"/>
      <point x="366" y="116" type="curve"/>
      <point x="176" y="116"/>
      <point x="397" y="116"/>
      <point x="207" y="116" type="curve"/>
      <point x="207" y="0"/>
      <point x="207" y="116"/>
    </contour>
    <contour>
      <point x="207" y="116" type="curve"/>
      <point x="19" y="116"/>
      <point x="234" y="116"/>
      <point x="46" y="116" type="curve"/>
      <point x="46" y="0"/>
      <point x="46" y="116"/>
      <point x="46" y="0" type="curve"/>
      <point x="109" y="0"/>
      <point x="144" y="0"/>
      <point x="207" y="0" type="curve"/>
      <point x="207" y="116"/>
      <point x="207" y="0"/>
    </contour>
    <contour>
      <point x="646" y="722" type="curve"/>
      <point x="234" y="380" type="line"/>
      <point x="434" y="380"/>
      <point x="229" y="380"/>
      <point x="430" y="380" type="curve"/>
      <point x="790" y="672" type="line"/>
      <point x="564" y="672"/>
      <point x="872" y="722"/>
    </contour>
    <contour>
      <point x="286" y="0" type="curve"/>
      <point x="286" y="722" type="line"/>
      <point x="128" y="722"/>
      <point x="286" y="722"/>
      <point x="128" y="722" type="curve"/>
      <point x="128" y="481"/>
      <point x="128" y="241"/>
      <point x="128" y="0" type="curve"/>
      <point x="286" y="0"/>
      <point x="128" y="0"/>
    </contour>
    <contour>
      <point x="827" y="53" type="curve"/>
      <point x="430" y="380" type="line"/>
      <point x="229" y="380"/>
      <point x="434" y="380"/>
      <point x="234" y="380" type="curve"/>
      <point x="672" y="0" type="line"/>
      <point x="906" y="0"/>
      <point x="593" y="53"/>
    </contour>
  </outline>
</glyph>
<glyph name="N" format="1">
  <advance width="1072"/>
  <unicode hex="004E"/>
  <outline>
    <contour>
      <point x="537" y="780" type="move" name="top"/>
    </contour>
    <contour>
      <point x="538" y="3" type="move" name="bottom"/>
    </contour>
    <contour>
      <point x="208" y="722" type="curve"/>
      <point x="146" y="722"/>
      <point x="110" y="722"/>
      <point x="47" y="722" type="curve"/>
      <point x="47" y="606"/>
      <point x="47" y="722"/>
      <point x="47" y="606" type="curve"/>
      <point x="235" y="606"/>
      <point x="20" y="606"/>
      <point x="208" y="606" type="curve"/>
      <point x="208" y="722"/>
      <point x="208" y="606"/>
    </contour>
    <contour>
      <point x="871" y="606" type="curve"/>
      <point x="1059" y="606"/>
      <point x="844" y="606"/>
      <point x="1032" y="606" type="curve"/>
      <point x="1032" y="722"/>
      <point x="1032" y="606"/>
      <point x="1032" y="722" type="curve"/>
      <point x="969" y="722"/>
      <point x="934" y="722"/>
      <point x="871" y="722" type="curve"/>
      <point x="871" y="606"/>
      <point x="871" y="722"/>
    </contour>
    <contour>
      <point x="889" y="722" type="curve"/>
      <point x="828" y="722"/>
      <point x="792" y="722"/>
      <point x="729" y="722" type="curve"/>
      <point x="729" y="606"/>
      <point x="729" y="722"/>
      <point x="729" y="606" type="curve"/>
      <point x="916" y="606"/>
      <point x="702" y="606"/>
      <point x="889" y="606" type="curve"/>
      <point x="889" y="722"/>
      <point x="889" y="606"/>
    </contour>
    <contour>
      <point x="207" y="116" type="curve"/>
      <point x="19" y="116"/>
      <point x="234" y="116"/>
      <point x="46" y="116" type="curve"/>
      <point x="46" y="0"/>
      <point x="46" y="116"/>
      <point x="46" y="0" type="curve"/>
      <point x="109" y="0"/>
      <point x="144" y="0"/>
      <point x="207" y="0" type="curve"/>
      <point x="207" y="116"/>
      <point x="207" y="0"/>
    </contour>
    <contour>
      <point x="207" y="0" type="curve"/>
      <point x="270" y="0"/>
      <point x="180" y="0"/>
      <point x="367" y="0" type="curve"/>
      <point x="367" y="116"/>
      <point x="367" y="0"/>
      <point x="367" y="116" type="curve"/>
      <point x="180" y="116"/>
      <point x="394" y="116"/>
      <point x="207" y="116" type="curve"/>
      <point x="207" y="0"/>
      <point x="207" y="116"/>
    </contour>
    <contour>
      <point x="963" y="0" type="curve"/>
      <point x="743" y="239"/>
      <point x="527" y="483"/>
      <point x="307" y="722" type="curve"/>
      <point x="114" y="722"/>
      <point x="307" y="722"/>
      <point x="114" y="722" type="curve"/>
      <point x="334" y="483"/>
      <point x="551" y="239"/>
      <point x="771" y="0" type="curve"/>
      <point x="963" y="0"/>
      <point x="771" y="0"/>
    </contour>
    <contour>
      <point x="809" y="722" type="curve"/>
      <point x="809" y="481"/>
      <point x="809" y="241"/>
      <point x="809" y="0" type="curve"/>
      <point x="968" y="0"/>
      <point x="809" y="0"/>
      <point x="968" y="0" type="curve"/>
      <point x="968" y="241"/>
      <point x="968" y="481"/>
      <point x="968" y="722" type="curve"/>
      <point x="809" y="722"/>
      <point x="968" y="722"/>
    </contour>
    <contour>
      <point x="286" y="0" type="curve"/>
      <point x="286" y="241"/>
      <point x="286" y="481"/>
      <point x="286" y="722" type="curve"/>
      <point x="128" y="722"/>
      <point x="286" y="722"/>
      <point x="128" y="722" type="curve"/>
      <point x="128" y="481"/>
      <point x="128" y="241"/>
      <point x="128" y="0" type="curve"/>
      <point x="286" y="0"/>
      <point x="128" y="0"/>
    </contour>
  </outline>
</glyph>
<glyph name="P" format="1">
  <advance width="805"/>
  <unicode hex="0050"/>
  <outline>
    <contour>
      <point x="238" y="722" type="curve"/>
      <point x="185" y="722"/>
      <point x="131" y="722"/>
      <point x="76" y="722" type="curve"/>
      <point x="76" y="606"/>
      <point x="76" y="722"/>
      <point x="76" y="606" type="curve"/>
      <point x="238" y="606"/>
      <point x="76" y="606"/>
      <point x="238" y="606" type="curve"/>
      <point x="238" y="722"/>
      <point x="238" y="606"/>
    </contour>
    <contour>
      <point x="238" y="116" type="curve"/>
      <point x="76" y="116"/>
      <point x="238" y="116"/>
      <point x="76" y="116" type="curve"/>
      <point x="76" y="0"/>
      <point x="76" y="116"/>
      <point x="76" y="0" type="curve"/>
      <point x="131" y="0"/>
      <point x="185" y="0"/>
      <point x="238" y="0" type="curve"/>
      <point x="238" y="116"/>
      <point x="238" y="0"/>
    </contour>
    <contour>
      <point x="238" y="0" type="curve"/>
      <point x="292" y="0"/>
      <point x="238" y="0"/>
      <point x="399" y="0" type="curve"/>
      <point x="399" y="116"/>
      <point x="399" y="0"/>
      <point x="399" y="116" type="curve"/>
      <point x="238" y="116"/>
      <point x="399" y="116"/>
      <point x="238" y="116" type="curve"/>
      <point x="238" y="0"/>
      <point x="238" y="116"/>
    </contour>
    <contour>
      <point x="215" y="288" type="curve"/>
      <point x="287" y="262"/>
      <point x="377" y="243"/>
      <point x="455" y="243" type="curve"/>
      <point x="641" y="246"/>
      <point x="768" y="310"/>
      <point x="768" y="481" type="curve"/>
      <point x="768" y="654"/>
      <point x="607" y="722"/>
      <point x="410" y="722" type="curve"/>
      <point x="354" y="722"/>
      <point x="298" y="722"/>
      <point x="242" y="722" type="curve"/>
      <point x="242" y="606"/>
      <point x="242" y="722"/>
      <point x="242" y="606" type="curve"/>
      <point x="290" y="606"/>
      <point x="340" y="606"/>
      <point x="389" y="606" type="curve"/>
      <point x="508" y="606"/>
      <point x="610" y="580"/>
      <point x="610" y="485" type="curve"/>
      <point x="610" y="392"/>
      <point x="532" y="359"/>
      <point x="439" y="359" type="curve"/>
      <point x="374" y="359"/>
      <point x="326" y="370"/>
      <point x="265" y="392" type="curve"/>
      <point x="215" y="288"/>
      <point x="265" y="392"/>
    </contour>
    <contour>
      <point x="316" y="0" type="curve"/>
      <point x="316" y="241"/>
      <point x="316" y="481"/>
      <point x="316" y="722" type="curve"/>
      <point x="158" y="722"/>
      <point x="316" y="722"/>
      <point x="158" y="722" type="curve"/>
      <point x="158" y="481"/>
      <point x="158" y="241"/>
      <point x="158" y="0" type="curve"/>
      <point x="316" y="0"/>
      <point x="158" y="0"/>
    </contour>
  </outline>
</glyph>
<glyph name="Q" format="1">
  <advance width="992"/>
  <unicode hex="0051"/>
  <outline>
    <contour>
      <point x="430" y="28" type="curve"/>
      <point x="586" y="-170"/>
      <point x="746" y="-209"/>
      <point x="983" y="-209" type="curve"/>
      <point x="983" y="-88"/>
      <point x="983" y="-209"/>
      <point x="983" y="-88" type="curve"/>
      <point x="806" y="-88"/>
      <point x="686" y="-63"/>
      <point x="567" y="87" type="curve"/>
      <point x="430" y="28"/>
      <point x="567" y="87"/>
    </contour>
    <contour>
      <point x="215" y="360" type="curve"/>
      <point x="215" y="516"/>
      <point x="329" y="601"/>
      <point x="487" y="601" type="curve"/>
      <point x="650" y="601"/>
      <point x="761" y="518"/>
      <point x="761" y="360" type="curve"/>
      <point x="761" y="204"/>
      <point x="651" y="116"/>
      <point x="494" y="116" type="curve"/>
      <point x="330" y="116"/>
      <point x="215" y="201"/>
      <point x="215" y="360" type="curve"/>
      <point x="57" y="360"/>
      <point x="215" y="360"/>
      <point x="57" y="360" type="curve"/>
      <point x="57" y="120"/>
      <point x="238" y="-5"/>
      <point x="486" y="-5" type="curve"/>
      <point x="738" y="-5"/>
      <point x="919" y="123"/>
      <point x="919" y="366" type="curve"/>
      <point x="919" y="606"/>
      <point x="743" y="732"/>
      <point x="495" y="732" type="curve"/>
      <point x="241" y="732"/>
      <point x="57" y="604"/>
      <point x="57" y="360" type="curve"/>
      <point x="215" y="360"/>
      <point x="57" y="360"/>
    </contour>
  </outline>
</glyph>
<glyph name="V" format="1">
  <advance width="950"/>
  <unicode hex="0056"/>
  <outline>
    <contour>
      <point x="783" y="722" type="curve"/>
      <point x="725" y="722"/>
      <point x="665" y="722"/>
      <point x="607" y="722" type="curve"/>
      <point x="607" y="606"/>
      <point x="607" y="722"/>
      <point x="607" y="606" type="curve"/>
      <point x="783" y="606"/>
      <point x="607" y="606"/>
      <point x="783" y="606" type="curve"/>
      <point x="783" y="722"/>
      <point x="783" y="606"/>
    </contour>
    <contour>
      <point x="145" y="722" type="curve"/>
      <point x="98" y="722"/>
      <point x="51" y="722"/>
      <point x="4" y="722" type="curve"/>
      <point x="4" y="606"/>
      <point x="4" y="722"/>
      <point x="4" y="606" type="curve"/>
      <point x="145" y="606"/>
      <point x="4" y="606"/>
      <point x="145" y="606" type="curve"/>
      <point x="145" y="722"/>
      <point x="145" y="606"/>
    </contour>
    <contour>
      <point x="802" y="606" type="curve"/>
      <point x="944" y="606"/>
      <point x="802" y="606"/>
      <point x="944" y="606" type="curve"/>
      <point x="944" y="722"/>
      <point x="944" y="606"/>
      <point x="944" y="722" type="curve"/>
      <point x="897" y="722"/>
      <point x="850" y="722"/>
      <point x="802" y="722" type="curve"/>
      <point x="802" y="606"/>
      <point x="802" y="722"/>
    </contour>
    <contour>
      <point x="164" y="606" type="curve"/>
      <point x="340" y="606"/>
      <point x="164" y="606"/>
      <point x="340" y="606" type="curve"/>
      <point x="340" y="722"/>
      <point x="340" y="606"/>
      <point x="340" y="722" type="curve"/>
      <point x="283" y="722"/>
      <point x="223" y="722"/>
      <point x="164" y="722" type="curve"/>
      <point x="164" y="606"/>
      <point x="164" y="722"/>
    </contour>
    <contour>
      <point x="746" y="722" type="curve"/>
      <point x="630" y="481"/>
      <point x="516" y="241"/>
      <point x="402" y="0" type="curve"/>
      <point x="563" y="0"/>
      <point x="400" y="0"/>
      <point x="561" y="0" type="curve"/>
      <point x="676" y="241"/>
      <point x="791" y="481"/>
      <point x="907" y="722" type="curve"/>
      <point x="746" y="722"/>
      <point x="907" y="722"/>
    </contour>
    <contour>
      <point x="41" y="722" type="curve"/>
      <point x="158" y="481"/>
      <point x="275" y="241"/>
      <point x="392" y="0" type="curve"/>
      <point x="554" y="0"/>
      <point x="391" y="0"/>
      <point x="552" y="0" type="curve"/>
      <point x="436" y="241"/>
      <point x="320" y="481"/>
      <point x="203" y="722" type="curve"/>
      <point x="41" y="722"/>
      <point x="203" y="722"/>
    </contour>
  </outline>
</glyph>
<glyph name="X" format="1">
  <advance width="888"/>
  <unicode hex="0058"/>
  <outline>
    <contour>
      <point x="189" y="0" type="curve"/>
      <point x="252" y="0"/>
      <point x="189" y="0"/>
      <point x="376" y="0" type="curve"/>
      <point x="376" y="116"/>
      <point x="376" y="0"/>
      <point x="376" y="116" type="curve"/>
      <point x="189" y="116"/>
      <point x="376" y="116"/>
      <point x="189" y="116" type="curve"/>
      <point x="189" y="0"/>
      <point x="189" y="116"/>
    </contour>
    <contour>
      <point x="187" y="116" type="curve"/>
      <point x="19" y="116"/>
      <point x="187" y="116"/>
      <point x="19" y="116" type="curve"/>
      <point x="19" y="0"/>
      <point x="19" y="116"/>
      <point x="19" y="0" type="curve"/>
      <point x="75" y="0"/>
      <point x="132" y="0"/>
      <point x="187" y="0" type="curve"/>
      <point x="187" y="116"/>
      <point x="187" y="0"/>
    </contour>
    <contour>
      <point x="697" y="0" type="curve"/>
      <point x="753" y="0"/>
      <point x="809" y="0"/>
      <point x="865" y="0" type="curve"/>
      <point x="865" y="116"/>
      <point x="865" y="0"/>
      <point x="865" y="116" type="curve"/>
      <point x="697" y="116"/>
      <point x="865" y="116"/>
      <point x="697" y="116" type="curve"/>
      <point x="697" y="0"/>
      <point x="697" y="116"/>
    </contour>
    <contour>
      <point x="695" y="116" type="curve"/>
      <point x="507" y="116"/>
      <point x="695" y="116"/>
      <point x="507" y="116" type="curve"/>
      <point x="507" y="0"/>
      <point x="507" y="116"/>
      <point x="507" y="0" type="curve"/>
      <point x="570" y="0"/>
      <point x="632" y="0"/>
      <point x="695" y="0" type="curve"/>
      <point x="695" y="116"/>
      <point x="695" y="0"/>
    </contour>
    <contour>
      <point x="663" y="606" type="curve"/>
      <point x="831" y="606"/>
      <point x="663" y="606"/>
      <point x="831" y="606" type="curve"/>
      <point x="831" y="722"/>
      <point x="831" y="606"/>
      <point x="831" y="722" type="curve"/>
      <point x="775" y="722"/>
      <point x="719" y="722"/>
      <point x="663" y="722" type="curve"/>
      <point x="663" y="606"/>
      <point x="663" y="722"/>
    </contour>
    <contour>
      <point x="664" y="722" type="curve"/>
      <point x="602" y="722"/>
      <point x="539" y="722"/>
      <point x="476" y="722" type="curve"/>
      <point x="476" y="606"/>
      <point x="476" y="722"/>
      <point x="476" y="606" type="curve"/>
      <point x="664" y="606"/>
      <point x="476" y="606"/>
      <point x="664" y="606" type="curve"/>
      <point x="664" y="722"/>
      <point x="664" y="606"/>
    </contour>
    <contour>
      <point x="233" y="722" type="curve"/>
      <point x="178" y="722"/>
      <point x="121" y="722"/>
      <point x="65" y="722" type="curve"/>
      <point x="65" y="606"/>
      <point x="65" y="722"/>
      <point x="65" y="606" type="curve"/>
      <point x="233" y="606"/>
      <point x="65" y="606"/>
      <point x="233" y="606" type="curve"/>
      <point x="233" y="722"/>
      <point x="233" y="606"/>
    </contour>
    <contour>
      <point x="231" y="606" type="curve"/>
      <point x="420" y="606"/>
      <point x="231" y="606"/>
      <point x="420" y="606" type="curve"/>
      <point x="420" y="722"/>
      <point x="420" y="606"/>
      <point x="420" y="722" type="curve"/>
      <point x="358" y="722"/>
      <point x="294" y="722"/>
      <point x="231" y="722" type="curve"/>
      <point x="231" y="606"/>
      <point x="231" y="722"/>
    </contour>
    <contour>
      <point x="653" y="722" type="curve"/>
      <point x="459" y="495"/>
      <point x="259" y="273"/>
      <point x="65" y="46" type="curve"/>
      <point x="220" y="46"/>
      <point x="65" y="0"/>
      <point x="220" y="0" type="curve"/>
      <point x="414" y="227"/>
      <point x="603" y="457"/>
      <point x="798" y="683" type="curve"/>
      <point x="653" y="683"/>
      <point x="798" y="722"/>
    </contour>
    <contour>
      <point x="99" y="682" type="curve"/>
      <point x="291" y="456"/>
      <point x="479" y="227"/>
      <point x="671" y="0" type="curve"/>
      <point x="828" y="0"/>
      <point x="671" y="31"/>
      <point x="828" y="31" type="curve"/>
      <point x="632" y="262"/>
      <point x="435" y="491"/>
      <point x="239" y="722" type="curve"/>
      <point x="99" y="722"/>
      <point x="239" y="682"/>
    </contour>
  </outline>
</glyph>
<glyph name="grave" format="1">
  <advance width="433"/>
  <unicode hex="0060"/>
  <outline>
    <contour>
      <point x="320" y="538" type="move" name="_top"/>
    </contour>
    <contour>
      <point x="411" y="537" type="line"/>
      <point x="269" y="703" type="line"/>
      <point x="64" y="703" type="line"/>
      <point x="251" y="537" type="line"/>
    </contour>
  </outline>
</glyph>
<glyph name="b" format="1">
  <advance width="839"/>
  <unicode hex="0062"/>
  <outline>
    <contour>
      <point x="201" y="800" type="curve"/>
      <point x="139" y="800"/>
      <point x="101" y="800"/>
      <point x="39" y="800" type="curve"/>
      <point x="39" y="749"/>
      <point x="39" y="735"/>
      <point x="39" y="684" type="curve"/>
      <point x="110" y="684"/>
      <point x="130" y="684"/>
      <point x="201" y="684" type="curve"/>
      <point x="201" y="735"/>
      <point x="201" y="748"/>
    </contour>
    <contour>
      <point x="230" y="309" type="curve"/>
      <point x="289" y="375"/>
      <point x="353" y="417"/>
      <point x="456" y="417" type="curve"/>
      <point x="561" y="417"/>
      <point x="633" y="365"/>
      <point x="633" y="263" type="curve"/>
      <point x="635" y="163"/>
      <point x="560" y="115"/>
      <point x="456" y="116" type="curve"/>
      <point x="362" y="116"/>
      <point x="290" y="156"/>
      <point x="244" y="206" type="curve"/>
      <point x="204" y="179"/>
      <point x="190" y="170"/>
      <point x="150" y="143" type="curve"/>
      <point x="243" y="55"/>
      <point x="337" y="-5"/>
      <point x="486" y="-5" type="curve"/>
      <point x="669" y="-5"/>
      <point x="794" y="83"/>
      <point x="794" y="264" type="curve"/>
      <point x="794" y="448"/>
      <point x="667" y="539"/>
      <point x="481" y="539" type="curve"/>
      <point x="340" y="539"/>
      <point x="254" y="487"/>
      <point x="161" y="392" type="curve"/>
      <point x="194" y="359"/>
      <point x="197" y="341"/>
    </contour>
    <contour>
      <point x="278" y="0" type="curve"/>
      <point x="278" y="305"/>
      <point x="278" y="495"/>
      <point x="278" y="800" type="curve"/>
      <point x="208" y="800"/>
      <point x="189" y="800"/>
      <point x="119" y="800" type="curve"/>
      <point x="119" y="495"/>
      <point x="119" y="305"/>
      <point x="119" y="0" type="curve"/>
      <point x="189" y="0"/>
      <point x="208" y="0"/>
    </contour>
    <contour>
      <point x="201" y="115" type="curve"/>
      <point x="130" y="115"/>
      <point x="110" y="116"/>
      <point x="39" y="116" type="curve"/>
      <point x="39" y="65"/>
      <point x="39" y="52"/>
      <point x="39" y="0" type="curve"/>
      <point x="101" y="0"/>
      <point x="139" y="0"/>
      <point x="201" y="0" type="curve"/>
      <point x="201" y="52"/>
      <point x="201" y="64"/>
    </contour>
  </outline>
</glyph>
<glyph name="m" format="1">
  <advance width="1228"/>
  <unicode hex="006D"/>
  <outline>
    <contour>
      <point x="634" y="0" type="curve"/>
      <point x="770" y="0"/>
      <point x="634" y="0"/>
      <point x="770" y="0" type="curve"/>
      <point x="770" y="116"/>
      <point x="770" y="0"/>
      <point x="770" y="116" type="curve"/>
      <point x="634" y="116"/>
      <point x="770" y="116"/>
      <point x="634" y="116" type="curve"/>
      <point x="634" y="0"/>
      <point x="634" y="116"/>
    </contour>
    <contour>
      <point x="1049" y="0" type="curve"/>
      <point x="1094" y="0"/>
      <point x="1138" y="0"/>
      <point x="1183" y="0" type="curve"/>
      <point x="1183" y="116"/>
      <point x="1183" y="0"/>
      <point x="1183" y="116" type="curve"/>
      <point x="1049" y="116"/>
      <point x="1183" y="116"/>
      <point x="1049" y="116" type="curve"/>
      <point x="1049" y="0"/>
      <point x="1049" y="116"/>
    </contour>
    <contour>
      <point x="221" y="116" type="curve"/>
      <point x="60" y="116"/>
      <point x="221" y="116"/>
      <point x="60" y="116" type="curve"/>
      <point x="60" y="0"/>
      <point x="60" y="116"/>
      <point x="60" y="0" type="curve"/>
      <point x="113" y="0"/>
      <point x="167" y="0"/>
      <point x="221" y="0" type="curve"/>
      <point x="221" y="116"/>
      <point x="221" y="0"/>
    </contour>
    <contour>
      <point x="221" y="0" type="curve"/>
      <point x="267" y="0"/>
      <point x="221" y="0"/>
      <point x="358" y="0" type="curve"/>
      <point x="358" y="116"/>
      <point x="358" y="0"/>
      <point x="358" y="116" type="curve"/>
      <point x="221" y="116"/>
      <point x="358" y="116"/>
      <point x="221" y="116" type="curve"/>
      <point x="221" y="0"/>
      <point x="221" y="116"/>
    </contour>
    <contour>
      <point x="221" y="533" type="curve"/>
      <point x="167" y="533"/>
      <point x="113" y="533"/>
      <point x="60" y="533" type="curve"/>
      <point x="60" y="417"/>
      <point x="60" y="533"/>
      <point x="60" y="417" type="curve"/>
      <point x="221" y="417"/>
      <point x="60" y="417"/>
      <point x="221" y="417" type="curve"/>
      <point x="221" y="533"/>
      <point x="221" y="417"/>
    </contour>
    <contour>
      <point x="678" y="258" type="curve"/>
      <point x="724" y="351"/>
      <point x="774" y="417"/>
      <point x="857" y="417" type="curve"/>
      <point x="934" y="417"/>
      <point x="969" y="382"/>
      <point x="969" y="305" type="curve"/>
      <point x="969" y="204"/>
      <point x="969" y="102"/>
      <point x="969" y="0" type="curve"/>
      <point x="1127" y="0"/>
      <point x="969" y="0"/>
      <point x="1127" y="0" type="curve"/>
      <point x="1127" y="106"/>
      <point x="1127" y="211"/>
      <point x="1127" y="317" type="curve"/>
      <point x="1127" y="473"/>
      <point x="1050" y="538"/>
      <point x="892" y="538" type="curve"/>
      <point x="759" y="538"/>
      <point x="676" y="454"/>
      <point x="599" y="317" type="curve"/>
      <point x="678" y="258"/>
      <point x="599" y="317"/>
    </contour>
    <contour>
      <point x="265" y="263" type="curve"/>
      <point x="310" y="356"/>
      <point x="361" y="417"/>
      <point x="443" y="417" type="curve"/>
      <point x="520" y="417"/>
      <point x="555" y="382"/>
      <point x="555" y="305" type="curve"/>
      <point x="555" y="204"/>
      <point x="555" y="102"/>
      <point x="555" y="0" type="curve"/>
      <point x="714" y="0"/>
      <point x="555" y="0"/>
      <point x="714" y="0" type="curve"/>
      <point x="714" y="106"/>
      <point x="714" y="211"/>
      <point x="714" y="317" type="curve"/>
      <point x="714" y="473"/>
      <point x="638" y="538"/>
      <point x="481" y="538" type="curve"/>
      <point x="345" y="538"/>
      <point x="278" y="463"/>
      <point x="186" y="323" type="curve"/>
      <point x="265" y="263"/>
      <point x="185" y="322"/>
    </contour>
    <contour>
      <point x="300" y="0" type="curve"/>
      <point x="300" y="178"/>
      <point x="300" y="355"/>
      <point x="300" y="533" type="curve"/>
      <point x="141" y="533"/>
      <point x="300" y="533"/>
      <point x="141" y="533" type="curve"/>
      <point x="141" y="355"/>
      <point x="141" y="178"/>
      <point x="141" y="0" type="curve"/>
      <point x="300" y="0"/>
      <point x="141" y="0"/>
    </contour>
  </outline>
</glyph>
<glyph name="v" format="1">
  <advance width="780"/>
  <unicode hex="0076"/>
  <outline>
    <contour>
      <point x="156" y="533" type="curve"/>
      <point x="112" y="533"/>
      <point x="68" y="533"/>
      <point x="25" y="533" type="curve"/>
      <point x="25" y="417"/>
      <point x="25" y="533"/>
      <point x="25" y="417" type="curve"/>
      <point x="156" y="417"/>
      <point x="25" y="417"/>
      <point x="156" y="417" type="curve"/>
      <point x="156" y="533"/>
      <point x="156" y="417"/>
    </contour>
    <contour>
      <point x="156" y="417" type="curve"/>
      <point x="317" y="417"/>
      <point x="156" y="417"/>
      <point x="317" y="417" type="curve"/>
      <point x="317" y="533"/>
      <point x="317" y="417"/>
      <point x="317" y="533" type="curve"/>
      <point x="263" y="533"/>
      <point x="209" y="533"/>
      <point x="156" y="533" type="curve"/>
      <point x="156" y="417"/>
      <point x="156" y="533"/>
    </contour>
    <contour>
      <point x="630" y="533" type="curve"/>
      <point x="577" y="533"/>
      <point x="523" y="533"/>
      <point x="469" y="533" type="curve"/>
      <point x="469" y="417"/>
      <point x="469" y="533"/>
      <point x="469" y="417" type="curve"/>
      <point x="630" y="417"/>
      <point x="469" y="417"/>
      <point x="630" y="417" type="curve"/>
      <point x="630" y="533"/>
      <point x="630" y="417"/>
    </contour>
    <contour>
      <point x="630" y="417" type="curve"/>
      <point x="771" y="417"/>
      <point x="630" y="417"/>
      <point x="771" y="417" type="curve"/>
      <point x="771" y="533"/>
      <point x="771" y="417"/>
      <point x="771" y="533" type="curve"/>
      <point x="724" y="533"/>
      <point x="677" y="533"/>
      <point x="630" y="533" type="curve"/>
      <point x="630" y="417"/>
      <point x="630" y="533"/>
    </contour>
    <contour>
      <point x="44" y="533" type="curve"/>
      <point x="130" y="355"/>
      <point x="217" y="178"/>
      <point x="303" y="0" type="curve"/>
      <point x="461" y="0"/>
      <point x="303" y="0"/>
      <point x="461" y="0" type="curve"/>
      <point x="376" y="178"/>
      <point x="291" y="355"/>
      <point x="205" y="533" type="curve"/>
      <point x="44" y="533"/>
      <point x="205" y="533"/>
    </contour>
    <contour>
      <point x="582" y="533" type="curve"/>
      <point x="312" y="0" type="line"/>
      <point x="470" y="0"/>
      <point x="312" y="0"/>
      <point x="470" y="0" type="curve"/>
      <point x="561" y="178"/>
      <point x="651" y="355"/>
      <point x="742" y="533" type="curve"/>
      <point x="582" y="533"/>
      <point x="742" y="533"/>
    </contour>
  </outline>
</glyph>
<glyph name="w" format="1">
  <advance width="1196"/>
  <unicode hex="0077"/>
  <outline>
    <contour>
      <point x="1030" y="417" type="curve"/>
      <point x="1180" y="417"/>
      <point x="1030" y="417"/>
      <point x="1180" y="417" type="curve"/>
      <point x="1180" y="533"/>
      <point x="1180" y="417"/>
      <point x="1180" y="533" type="curve"/>
      <point x="1129" y="533"/>
      <point x="1079" y="533"/>
      <point x="1030" y="533" type="curve"/>
      <point x="1030" y="417"/>
      <point x="1030" y="533"/>
    </contour>
    <contour>
      <point x="1030" y="533" type="curve"/>
      <point x="979" y="533"/>
      <point x="929" y="533"/>
      <point x="879" y="533" type="curve"/>
      <point x="879" y="417"/>
      <point x="879" y="533"/>
      <point x="879" y="417" type="curve"/>
      <point x="1030" y="417"/>
      <point x="879" y="417"/>
      <point x="1030" y="417" type="curve"/>
      <point x="1030" y="533"/>
      <point x="1030" y="417"/>
    </contour>
    <contour>
      <point x="170" y="533" type="curve"/>
      <point x="120" y="533"/>
      <point x="70" y="533"/>
      <point x="20" y="533" type="curve"/>
      <point x="20" y="417"/>
      <point x="20" y="533"/>
      <point x="20" y="417" type="curve"/>
      <point x="170" y="417"/>
      <point x="20" y="417"/>
      <point x="170" y="417" type="curve"/>
      <point x="170" y="533"/>
      <point x="170" y="417"/>
    </contour>
    <contour>
      <point x="170" y="417" type="curve"/>
      <point x="320" y="417"/>
      <point x="170" y="417"/>
      <point x="320" y="417" type="curve"/>
      <point x="320" y="533"/>
      <point x="320" y="417"/>
      <point x="320" y="533" type="curve"/>
      <point x="270" y="533"/>
      <point x="221" y="533"/>
      <point x="170" y="533" type="curve"/>
      <point x="170" y="417"/>
      <point x="170" y="533"/>
    </contour>
    <contour>
      <point x="431" y="0" type="curve"/>
      <point x="515" y="178"/>
      <point x="599" y="355"/>
      <point x="684" y="533" type="curve"/>
      <point x="525" y="533"/>
      <point x="684" y="533"/>
      <point x="525" y="533" type="curve"/>
      <point x="441" y="355"/>
      <point x="359" y="178"/>
      <point x="276" y="0" type="curve"/>
      <point x="431" y="0"/>
      <point x="276" y="0"/>
    </contour>
    <contour>
      <point x="994" y="533" type="curve"/>
      <point x="916" y="355"/>
      <point x="839" y="178"/>
      <point x="761" y="0" type="curve"/>
      <point x="916" y="0"/>
      <point x="761" y="0"/>
      <point x="916" y="0" type="curve"/>
      <point x="996" y="178"/>
      <point x="1074" y="355"/>
      <point x="1153" y="533" type="curve"/>
      <point x="994" y="533"/>
      <point x="1153" y="533"/>
    </contour>
    <contour>
      <point x="532" y="533" type="curve"/>
      <point x="608" y="355"/>
      <point x="684" y="178"/>
      <point x="759" y="0" type="curve"/>
      <point x="915" y="0"/>
      <point x="759" y="0"/>
      <point x="915" y="0" type="curve"/>
      <point x="841" y="178"/>
      <point x="765" y="355"/>
      <point x="689" y="533" type="curve"/>
      <point x="532" y="533"/>
      <point x="689" y="533"/>
    </contour>
    <contour>
      <point x="48" y="533" type="curve"/>
      <point x="123" y="355"/>
      <point x="199" y="178"/>
      <point x="274" y="0" type="curve"/>
      <point x="430" y="0"/>
      <point x="274" y="0"/>
      <point x="430" y="0" type="curve"/>
      <point x="355" y="178"/>
      <point x="280" y="355"/>
      <point x="206" y="533" type="curve"/>
      <point x="48" y="533"/>
      <point x="206" y="533"/>
    </contour>
  </outline>
</glyph>
<glyph name="section" format="1">
  <advance width="679"/>
  <unicode hex="00A7"/>
  <outline>
    <contour>
      <point x="550" y="703" type="curve"/>
      <point x="477" y="732"/>
      <point x="423" y="748"/>
      <point x="345" y="748" type="curve"/>
      <point x="207" y="748"/>
      <point x="100" y="707"/>
      <point x="100" y="591" type="curve"/>
      <point x="100" y="490"/>
      <point x="181" y="448"/>
      <point x="286" y="422" type="curve"/>
      <point x="365" y="403"/>
      <point x="465" y="405"/>
      <point x="465" y="353" type="curve"/>
      <point x="465" y="299"/>
      <point x="404" y="294"/>
      <point x="338" y="285" type="curve"/>
      <point x="431" y="192"/>
      <point x="338" y="285"/>
      <point x="431" y="192" type="curve"/>
      <point x="542" y="212"/>
      <point x="623" y="257"/>
      <point x="623" y="361" type="curve"/>
      <point x="622" y="487"/>
      <point x="499" y="503"/>
      <point x="365" y="532" type="curve"/>
      <point x="314" y="545"/>
      <point x="257" y="548"/>
      <point x="257" y="591" type="curve"/>
      <point x="257" y="625"/>
      <point x="291" y="632"/>
      <point x="332" y="632" type="curve"/>
      <point x="388" y="632"/>
      <point x="426" y="625"/>
      <point x="490" y="602" type="curve"/>
      <point x="550" y="703"/>
      <point x="490" y="602"/>
    </contour>
    <contour>
      <point x="246" y="529" type="curve"/>
      <point x="141" y="506"/>
      <point x="58" y="467"/>
      <point x="58" y="366" type="curve"/>
      <point x="58" y="249"/>
      <point x="164" y="220"/>
      <point x="288" y="192" type="curve"/>
      <point x="353" y="176"/>
      <point x="429" y="172"/>
      <point x="429" y="129" type="curve"/>
      <point x="429" y="94"/>
      <point x="389" y="90"/>
      <point x="344" y="90" type="curve"/>
      <point x="282" y="90"/>
      <point x="240" y="100"/>
      <point x="169" y="128" type="curve"/>
      <point x="98" y="34"/>
      <point x="169" y="128"/>
      <point x="98" y="34" type="curve"/>
      <point x="180" y="-9"/>
      <point x="245" y="-26"/>
      <point x="337" y="-26" type="curve"/>
      <point x="474" y="-26"/>
      <point x="588" y="12"/>
      <point x="588" y="135" type="curve"/>
      <point x="586" y="240"/>
      <point x="498" y="279"/>
      <point x="390" y="303" type="curve"/>
      <point x="310" y="322"/>
      <point x="216" y="318"/>
      <point x="216" y="378" type="curve"/>
      <point x="216" y="423"/>
      <point x="268" y="429"/>
      <point x="325" y="442" type="curve"/>
      <point x="246" y="529"/>
      <point x="325" y="442"/>
    </contour>
    <contour>
      <point x="219" y="34" type="curve"/>
      <point x="219" y="154"/>
      <point x="219" y="43"/>
      <point x="219" y="163" type="curve"/>
      <point x="98" y="163"/>
      <point x="219" y="163"/>
      <point x="98" y="163" type="curve"/>
      <point x="98" y="43"/>
      <point x="98" y="154"/>
      <point x="98" y="34" type="curve"/>
      <point x="219" y="34"/>
      <point x="98" y="34"/>
    </contour>
    <contour>
      <point x="550" y="574" type="curve"/>
      <point x="550" y="694"/>
      <point x="550" y="583"/>
      <point x="550" y="703" type="curve"/>
      <point x="429" y="703"/>
      <point x="550" y="703"/>
      <point x="429" y="703" type="curve"/>
      <point x="429" y="583"/>
      <point x="429" y="694"/>
      <point x="429" y="574" type="curve"/>
      <point x="550" y="574"/>
      <point x="429" y="574"/>
    </contour>
  </outline>
</glyph>
<glyph name="dieresis" format="1">
  <advance width="460"/>
  <unicode hex="00A8"/>
  <outline>
    <contour>
      <point x="238" y="507" type="move" name="_top"/>
    </contour>
    <contour>
      <point x="212" y="578" type="curve"/>
      <point x="212" y="630"/>
      <point x="172" y="654"/>
      <point x="118" y="654" type="curve"/>
      <point x="65" y="654"/>
      <point x="27" y="627"/>
      <point x="27" y="578" type="curve"/>
      <point x="212" y="578"/>
      <point x="27" y="578"/>
      <point x="212" y="578" type="curve"/>
      <point x="212" y="526"/>
      <point x="172" y="504"/>
      <point x="118" y="504" type="curve"/>
      <point x="64" y="504"/>
      <point x="27" y="529"/>
      <point x="27" y="578" type="curve"/>
      <point x="212" y="578"/>
      <point x="27" y="578"/>
    </contour>
    <contour>
      <point x="449" y="578" type="curve"/>
      <point x="449" y="630"/>
      <point x="409" y="654"/>
      <point x="355" y="654" type="curve"/>
      <point x="301" y="654"/>
      <point x="264" y="627"/>
      <point x="264" y="578" type="curve"/>
      <point x="449" y="578"/>
      <point x="264" y="578"/>
      <point x="449" y="578" type="curve"/>
      <point x="449" y="526"/>
      <point x="409" y="504"/>
      <point x="354" y="504" type="curve"/>
      <point x="301" y="504"/>
      <point x="264" y="529"/>
      <point x="264" y="578" type="curve"/>
      <point x="449" y="578"/>
      <point x="264" y="578"/>
    </contour>
  </outline>
</glyph>
<glyph name="guillemotleft" format="1">
  <advance width="686"/>
  <unicode hex="00AB"/>
  <outline>
    <contour>
      <point x="313" y="483" type="curve"/>
      <point x="242" y="449"/>
      <point x="123" y="387"/>
      <point x="52" y="353" type="curve"/>
      <point x="52" y="224"/>
      <point x="52" y="351"/>
      <point x="52" y="222" type="curve"/>
      <point x="123" y="257"/>
      <point x="242" y="319"/>
      <point x="313" y="354" type="curve"/>
      <point x="313" y="482"/>
      <point x="313" y="355"/>
    </contour>
    <contour>
      <point x="313" y="224" type="curve"/>
      <point x="242" y="258"/>
      <point x="123" y="318"/>
      <point x="52" y="353" type="curve"/>
      <point x="52" y="224"/>
      <point x="52" y="351"/>
      <point x="52" y="222" type="curve"/>
      <point x="123" y="188"/>
      <point x="242" y="129"/>
      <point x="313" y="94" type="curve"/>
      <point x="313" y="223"/>
      <point x="313" y="95"/>
    </contour>
    <contour>
      <point x="607" y="483" type="curve"/>
      <point x="536" y="449"/>
      <point x="417" y="387"/>
      <point x="346" y="353" type="curve"/>
      <point x="346" y="224"/>
      <point x="346" y="351"/>
      <point x="346" y="222" type="curve"/>
      <point x="417" y="257"/>
      <point x="536" y="319"/>
      <point x="607" y="354" type="curve"/>
      <point x="607" y="482"/>
      <point x="607" y="355"/>
    </contour>
    <contour>
      <point x="607" y="224" type="curve"/>
      <point x="536" y="258"/>
      <point x="417" y="318"/>
      <point x="346" y="353" type="curve"/>
      <point x="346" y="224"/>
      <point x="346" y="351"/>
      <point x="346" y="222" type="curve"/>
      <point x="417" y="188"/>
      <point x="536" y="129"/>
      <point x="607" y="94" type="curve"/>
      <point x="607" y="223"/>
      <point x="607" y="95"/>
    </contour>
  </outline>
</glyph>
<glyph name="paragraph" format="1">
  <advance width="1003"/>
  <unicode hex="00B6"/>
  <outline>
    <contour>
      <point x="571" y="606" type="curve"/>
      <point x="760" y="606"/>
      <point x="571" y="606"/>
      <point x="760" y="606" type="curve"/>
      <point x="760" y="722"/>
      <point x="760" y="606"/>
      <point x="760" y="722" type="curve"/>
      <point x="697" y="722"/>
      <point x="634" y="722"/>
      <point x="571" y="722" type="curve"/>
      <point x="571" y="606"/>
      <point x="571" y="722"/>
    </contour>
    <contour>
      <point x="571" y="0" type="curve"/>
      <point x="634" y="0"/>
      <point x="697" y="0"/>
      <point x="760" y="0" type="curve"/>
      <point x="760" y="116"/>
      <point x="760" y="0"/>
      <point x="760" y="116" type="curve"/>
      <point x="571" y="116"/>
      <point x="760" y="116"/>
      <point x="571" y="116" type="curve"/>
      <point x="571" y="0"/>
      <point x="571" y="116"/>
    </contour>
    <contour>
      <point x="571" y="116" type="curve"/>
      <point x="383" y="116"/>
      <point x="571" y="116"/>
      <point x="383" y="116" type="curve"/>
      <point x="383" y="0"/>
      <point x="383" y="116"/>
      <point x="383" y="0" type="curve"/>
      <point x="571" y="0"/>
      <point x="508" y="0"/>
      <point x="571" y="0" type="curve"/>
      <point x="571" y="116"/>
      <point x="571" y="0"/>
    </contour>
    <contour>
      <point x="544" y="392" type="curve"/>
      <point x="483" y="370"/>
      <point x="435" y="359"/>
      <point x="370" y="359" type="curve"/>
      <point x="277" y="359"/>
      <point x="200" y="389"/>
      <point x="200" y="472" type="curve"/>
      <point x="200" y="577"/>
      <point x="302" y="606"/>
      <point x="420" y="606" type="curve"/>
      <point x="469" y="606"/>
      <point x="519" y="606"/>
      <point x="568" y="606" type="curve"/>
      <point x="568" y="722"/>
      <point x="568" y="606"/>
      <point x="568" y="722" type="curve"/>
      <point x="511" y="722"/>
      <point x="455" y="722"/>
      <point x="399" y="722" type="curve"/>
      <point x="203" y="722"/>
      <point x="41" y="654"/>
      <point x="41" y="478" type="curve"/>
      <point x="41" y="309"/>
      <point x="195" y="246"/>
      <point x="384" y="243" type="curve"/>
      <point x="460" y="243"/>
      <point x="523" y="262"/>
      <point x="594" y="288" type="curve"/>
      <point x="544" y="392"/>
      <point x="594" y="288"/>
    </contour>
    <contour>
      <point x="652" y="0" type="curve"/>
      <point x="652" y="241"/>
      <point x="652" y="481"/>
      <point x="652" y="722" type="curve"/>
      <point x="493" y="722"/>
      <point x="652" y="722"/>
      <point x="493" y="722" type="curve"/>
      <point x="493" y="481"/>
      <point x="493" y="241"/>
      <point x="493" y="0" type="curve"/>
      <point x="652" y="0"/>
      <point x="493" y="0"/>
    </contour>
    <contour>
      <point x="910" y="0" type="curve"/>
      <point x="910" y="241"/>
      <point x="910" y="481"/>
      <point x="910" y="722" type="curve"/>
      <point x="752" y="722"/>
      <point x="910" y="722"/>
      <point x="752" y="722" type="curve"/>
      <point x="752" y="481"/>
      <point x="752" y="241"/>
      <point x="752" y="0" type="curve"/>
      <point x="910" y="0"/>
      <point x="752" y="0"/>
    </contour>
  </outline>
</glyph>
<glyph name="periodcentered" format="1">
  <advance width="308"/>
  <unicode hex="00B7"/>
  <outline>
    <contour>
      <point x="247" y="440" type="curve"/>
      <point x="247" y="492"/>
      <point x="207" y="516"/>
      <point x="153" y="516" type="curve"/>
      <point x="99" y="516"/>
      <point x="62" y="489"/>
      <point x="62" y="440" type="curve"/>
      <point x="247" y="440"/>
      <point x="62" y="440"/>
      <point x="247" y="440" type="curve"/>
      <point x="247" y="387"/>
      <point x="207" y="365"/>
      <point x="152" y="365" type="curve"/>
      <point x="98" y="365"/>
      <point x="62" y="390"/>
      <point x="62" y="440" type="curve"/>
      <point x="247" y="440"/>
      <point x="62" y="440"/>
    </contour>
  </outline>
</glyph>
<glyph name="questiondown" format="1">
  <advance width="655"/>
  <unicode hex="00BF"/>
  <outline>
    <contour>
      <point x="443" y="320" type="curve"/>
      <point x="443" y="357"/>
      <point x="443" y="446"/>
      <point x="443" y="483" type="curve"/>
      <point x="286" y="483"/>
      <point x="443" y="483"/>
      <point x="286" y="483" type="curve"/>
      <point x="286" y="446"/>
      <point x="286" y="357"/>
      <point x="286" y="320" type="curve"/>
      <point x="443" y="320"/>
      <point x="286" y="320"/>
    </contour>
    <contour>
      <point x="538" y="142" type="line"/>
      <point x="498" y="103"/>
      <point x="432" y="68"/>
      <point x="359" y="68" type="curve"/>
      <point x="271" y="68"/>
      <point x="201" y="102"/>
      <point x="201" y="185" type="curve"/>
      <point x="201" y="278"/>
      <point x="300" y="320"/>
      <point x="426" y="320" type="curve"/>
      <point x="426" y="363"/>
      <point x="426" y="393"/>
      <point x="426" y="436" type="curve"/>
      <point x="213" y="436"/>
      <point x="50" y="354"/>
      <point x="50" y="185" type="curve"/>
      <point x="50" y="26"/>
      <point x="181" y="-53"/>
      <point x="351" y="-53" type="curve"/>
      <point x="460" y="-53"/>
      <point x="543" y="-19"/>
      <point x="619" y="53" type="curve"/>
    </contour>
    <contour>
      <point x="270" y="681" type="curve"/>
      <point x="270" y="630"/>
      <point x="310" y="606"/>
      <point x="364" y="606" type="curve"/>
      <point x="418" y="606"/>
      <point x="455" y="633"/>
      <point x="455" y="681" type="curve"/>
      <point x="270" y="681"/>
      <point x="455" y="681"/>
      <point x="270" y="681" type="curve"/>
      <point x="270" y="734"/>
      <point x="310" y="756"/>
      <point x="365" y="756" type="curve"/>
      <point x="419" y="756"/>
      <point x="455" y="731"/>
      <point x="455" y="681" type="curve"/>
      <point x="270" y="681"/>
      <point x="455" y="681"/>
    </contour>
  </outline>
</glyph>
<glyph name="Atilde" format="1">
  <advance width="958"/>
  <unicode hex="00C3"/>
  <outline>
    <contour>
      <point x="130" y="116" type="curve"/>
      <point x="-5" y="116"/>
      <point x="131" y="116"/>
      <point x="-4" y="116" type="curve"/>
      <point x="-4" y="0"/>
      <point x="-4" y="116"/>
      <point x="-4" y="0" type="curve"/>
      <point x="41" y="0"/>
      <point x="85" y="0"/>
      <point x="129" y="0" type="curve"/>
      <point x="130" y="116"/>
      <point x="129" y="0"/>
    </contour>
    <contour>
      <point x="130" y="0" type="curve"/>
      <point x="195" y="0"/>
      <point x="130" y="0"/>
      <point x="327" y="0" type="curve"/>
      <point x="327" y="116"/>
      <point x="327" y="0"/>
      <point x="327" y="116" type="curve"/>
      <point x="130" y="116"/>
      <point x="327" y="116"/>
      <point x="130" y="116" type="curve"/>
      <point x="130" y="0"/>
      <point x="130" y="116"/>
    </contour>
    <contour>
      <point x="810" y="0" type="curve"/>
      <point x="855" y="0"/>
      <point x="900" y="0"/>
      <point x="944" y="0" type="curve"/>
      <point x="944" y="116"/>
      <point x="944" y="0"/>
      <point x="944" y="116" type="curve"/>
      <point x="809" y="116"/>
      <point x="945" y="116"/>
      <point x="810" y="116" type="curve"/>
      <point x="810" y="0"/>
      <point x="810" y="116"/>
    </contour>
    <contour>
      <point x="810" y="116" type="curve"/>
      <point x="613" y="116"/>
      <point x="810" y="116"/>
      <point x="613" y="116" type="curve"/>
      <point x="613" y="0"/>
      <point x="613" y="116"/>
      <point x="613" y="0" type="curve"/>
      <point x="679" y="0"/>
      <point x="745" y="0"/>
      <point x="810" y="0" type="curve"/>
      <point x="810" y="116"/>
      <point x="810" y="0"/>
    </contour>
    <contour>
      <point x="677" y="315" type="curve"/>
      <point x="548" y="315"/>
      <point x="418" y="315"/>
      <point x="289" y="315" type="curve"/>
      <point x="223" y="192"/>
      <point x="289" y="315"/>
      <point x="223" y="192" type="curve"/>
      <point x="391" y="192"/>
      <point x="560" y="192"/>
      <point x="728" y="192" type="curve"/>
      <point x="677" y="315"/>
      <point x="728" y="192"/>
    </contour>
    <contour>
      <point x="908" y="0" type="curve"/>
      <point x="796" y="242"/>
      <point x="676" y="480"/>
      <point x="563" y="722" type="curve"/>
      <point x="418" y="722"/>
      <point x="563" y="722"/>
      <point x="418" y="722" type="curve"/>
      <point x="528" y="483"/>
      <point x="632" y="239"/>
      <point x="742" y="0" type="curve"/>
      <point x="908" y="0"/>
      <point x="742" y="0"/>
    </contour>
    <contour>
      <point x="201" y="0" type="curve"/>
      <point x="325" y="239"/>
      <point x="437" y="483"/>
      <point x="561" y="722" type="curve"/>
      <point x="416" y="722"/>
      <point x="561" y="722"/>
      <point x="416" y="722" type="curve"/>
      <point x="290" y="480"/>
      <point x="154" y="242"/>
      <point x="28" y="0" type="curve"/>
      <point x="201" y="0"/>
      <point x="28" y="0"/>
    </contour>
    <contour>
      <point x="655" y="960" type="curve"/>
      <point x="644" y="924"/>
      <point x="624" y="891"/>
      <point x="594" y="891" type="curve"/>
      <point x="559" y="891"/>
      <point x="539" y="901"/>
      <point x="511" y="922" type="curve" smooth="yes"/>
      <point x="467" y="956"/>
      <point x="433" y="969"/>
      <point x="379" y="969" type="curve"/>
      <point x="290" y="969"/>
      <point x="236" y="920"/>
      <point x="199" y="830" type="curve"/>
      <point x="316" y="773"/>
      <point x="200" y="829"/>
      <point x="317" y="773" type="curve"/>
      <point x="335" y="818"/>
      <point x="356" y="844"/>
      <point x="385" y="844" type="curve"/>
      <point x="418" y="844"/>
      <point x="436" y="830"/>
      <point x="462" y="812" type="curve" smooth="yes"/>
      <point x="511" y="776"/>
      <point x="543" y="766"/>
      <point x="600" y="766" type="curve"/>
      <point x="693" y="766"/>
      <point x="747" y="818"/>
      <point x="779" y="906" type="curve"/>
      <point x="656" y="959"/>
      <point x="778" y="905"/>
    </contour>
  </outline>
</glyph>
<glyph name="Egrave" format="1">
  <advance width="816"/>
  <unicode hex="00C8"/>
  <outline>
    <contour>
      <point x="771" y="58" type="curve"/>
      <point x="771" y="178"/>
      <point x="771" y="58"/>
      <point x="771" y="178" type="curve"/>
      <point x="649" y="178"/>
      <point x="771" y="178"/>
      <point x="649" y="178" type="curve"/>
      <point x="649" y="58"/>
      <point x="649" y="178"/>
      <point x="649" y="58" type="curve"/>
      <point x="771" y="58"/>
      <point x="649" y="58"/>
    </contour>
    <contour>
      <point x="607" y="664" type="curve"/>
      <point x="607" y="544"/>
      <point x="607" y="664"/>
      <point x="607" y="544" type="curve"/>
      <point x="729" y="544"/>
      <point x="607" y="544"/>
      <point x="729" y="544" type="curve"/>
      <point x="729" y="664"/>
      <point x="729" y="544"/>
      <point x="729" y="664" type="curve"/>
      <point x="607" y="664"/>
      <point x="729" y="664"/>
    </contour>
    <contour>
      <point x="239" y="116" type="curve"/>
      <point x="77" y="116"/>
      <point x="239" y="116"/>
      <point x="77" y="116" type="curve"/>
      <point x="77" y="0"/>
      <point x="77" y="116"/>
      <point x="77" y="0" type="curve"/>
      <point x="131" y="0"/>
      <point x="185" y="0"/>
      <point x="239" y="0" type="curve"/>
      <point x="239" y="116"/>
      <point x="239" y="0"/>
    </contour>
    <contour>
      <point x="239" y="722" type="curve"/>
      <point x="185" y="722"/>
      <point x="131" y="722"/>
      <point x="77" y="722" type="curve"/>
      <point x="77" y="606"/>
      <point x="77" y="722"/>
      <point x="77" y="606" type="curve"/>
      <point x="239" y="606"/>
      <point x="77" y="606"/>
      <point x="239" y="606" type="curve"/>
      <point x="239" y="722"/>
      <point x="239" y="606"/>
    </contour>
    <contour>
      <point x="243" y="314" type="curve"/>
      <point x="379" y="314"/>
      <point x="515" y="314"/>
      <point x="651" y="314" type="curve"/>
      <point x="651" y="431"/>
      <point x="651" y="314"/>
      <point x="651" y="431" type="curve"/>
      <point x="515" y="431"/>
      <point x="379" y="431"/>
      <point x="243" y="431" type="curve"/>
      <point x="243" y="314"/>
      <point x="243" y="431"/>
    </contour>
    <contour>
      <point x="223" y="606" type="curve"/>
      <point x="392" y="606"/>
      <point x="561" y="606"/>
      <point x="729" y="606" type="curve"/>
      <point x="729" y="722"/>
      <point x="729" y="606"/>
      <point x="729" y="722" type="curve"/>
      <point x="561" y="722"/>
      <point x="392" y="722"/>
      <point x="223" y="722" type="curve"/>
      <point x="223" y="606"/>
      <point x="223" y="722"/>
    </contour>
    <contour>
      <point x="317" y="0" type="curve"/>
      <point x="317" y="722" type="line"/>
      <point x="158" y="722"/>
      <point x="317" y="722"/>
      <point x="158" y="722" type="curve"/>
      <point x="158" y="481"/>
      <point x="158" y="241"/>
      <point x="158" y="0" type="curve"/>
      <point x="317" y="0"/>
      <point x="158" y="0"/>
    </contour>
    <contour>
      <point x="223" y="0" type="curve"/>
      <point x="406" y="0"/>
      <point x="588" y="0"/>
      <point x="771" y="0" type="curve"/>
      <point x="771" y="116"/>
      <point x="771" y="0"/>
      <point x="771" y="116" type="curve"/>
      <point x="588" y="116"/>
      <point x="406" y="116"/>
      <point x="223" y="116" type="curve"/>
      <point x="223" y="0"/>
      <point x="223" y="116"/>
    </contour>
    <contour>
      <point x="502" y="779" type="line"/>
      <point x="361" y="945" type="line"/>
      <point x="155" y="945" type="line"/>
      <point x="342" y="779" type="line"/>
    </contour>
  </outline>
</glyph>
<glyph name="multiply" format="1">
  <advance width="661"/>
  <unicode hex="00D7"/>
  <outline>
    <contour>
      <point x="148" y="39" type="line"/>
      <point x="603" y="496" type="line"/>
      <point x="513" y="586" type="line"/>
      <point x="58" y="129" type="line"/>
    </contour>
    <contour>
      <point x="603" y="129" type="line"/>
      <point x="148" y="586" type="line"/>
      <point x="58" y="496" type="line"/>
      <point x="513" y="39" type="line"/>
    </contour>
  </outline>
</glyph>
<glyph name="Thorn" format="1">
  <advance width="784"/>
  <unicode hex="00DE"/>
  <outline>
    <contour>
      <point x="237" y="722" type="curve"/>
      <point x="184" y="722"/>
      <point x="130" y="722"/>
      <point x="76" y="722" type="curve"/>
      <point x="76" y="606"/>
      <point x="76" y="722"/>
      <point x="76" y="606" type="curve"/>
      <point x="237" y="606"/>
      <point x="76" y="606"/>
      <point x="237" y="606" type="curve"/>
      <point x="237" y="722"/>
      <point x="237" y="606"/>
    </contour>
    <contour>
      <point x="237" y="116" type="curve"/>
      <point x="76" y="116"/>
      <point x="237" y="116"/>
      <point x="76" y="116" type="curve"/>
      <point x="76" y="0"/>
      <point x="76" y="116"/>
      <point x="76" y="0" type="curve"/>
      <point x="130" y="0"/>
      <point x="184" y="0"/>
      <point x="237" y="0" type="curve"/>
      <point x="237" y="116"/>
      <point x="237" y="0"/>
    </contour>
    <contour>
      <point x="237" y="0" type="curve"/>
      <point x="291" y="0"/>
      <point x="237" y="0"/>
      <point x="398" y="0" type="curve"/>
      <point x="398" y="116"/>
      <point x="398" y="0"/>
      <point x="398" y="116" type="curve"/>
      <point x="237" y="116"/>
      <point x="398" y="116"/>
      <point x="237" y="116" type="curve"/>
      <point x="237" y="0"/>
      <point x="237" y="116"/>
    </contour>
    <contour>
      <point x="215" y="203" type="curve"/>
      <point x="292" y="175"/>
      <point x="362" y="159"/>
      <point x="447" y="159" type="curve"/>
      <point x="614" y="162"/>
      <point x="750" y="219"/>
      <point x="750" y="370" type="curve"/>
      <point x="750" y="522"/>
      <point x="596" y="580"/>
      <point x="410" y="580" type="curve"/>
      <point x="353" y="580"/>
      <point x="298" y="580"/>
      <point x="241" y="580" type="curve"/>
      <point x="241" y="463"/>
      <point x="241" y="580"/>
      <point x="241" y="463" type="curve"/>
      <point x="290" y="463"/>
      <point x="340" y="463"/>
      <point x="388" y="463" type="curve"/>
      <point x="497" y="463"/>
      <point x="591" y="443"/>
      <point x="591" y="364" type="curve"/>
      <point x="591" y="299"/>
      <point x="522" y="274"/>
      <point x="439" y="274" type="curve"/>
      <point x="374" y="274"/>
      <point x="326" y="285"/>
      <point x="265" y="306" type="curve"/>
      <point x="215" y="203"/>
      <point x="265" y="306"/>
    </contour>
    <contour>
      <point x="316" y="0" type="curve"/>
      <point x="316" y="241"/>
      <point x="316" y="481"/>
      <point x="316" y="722" type="curve"/>
      <point x="157" y="722"/>
      <point x="316" y="722"/>
      <point x="157" y="722" type="curve"/>
      <point x="157" y="481"/>
      <point x="157" y="241"/>
      <point x="157" y="0" type="curve"/>
      <point x="316" y="0"/>
      <point x="157" y="0"/>
    </contour>
    <contour>
      <point x="237" y="606" type="curve"/>
      <point x="291" y="606"/>
      <point x="237" y="606"/>
      <point x="398" y="606" type="curve"/>
      <point x="398" y="722"/>
      <point x="398" y="606"/>
      <point x="398" y="722" type="curve"/>
      <point x="237" y="722"/>
      <point x="398" y="722"/>
      <point x="237" y="722" type="curve"/>
      <point x="237" y="606"/>
      <point x="237" y="722"/>
    </contour>
  </outline>
</glyph>
<glyph name="germandbls" format="1">
  <advance width="788"/>
  <unicode hex="00DF"/>
  <outline>
    <contour>
      <point x="197" y="116" type="curve"/>
      <point x="45" y="116"/>
      <point x="197" y="116"/>
      <point x="45" y="116" type="curve"/>
      <point x="45" y="0"/>
      <point x="45" y="116"/>
      <point x="45" y="0" type="curve"/>
      <point x="96" y="0"/>
      <point x="146" y="0"/>
      <point x="197" y="0" type="curve"/>
      <point x="197" y="116"/>
      <point x="197" y="0"/>
    </contour>
    <contour>
      <point x="197" y="0" type="curve"/>
      <point x="248" y="0"/>
      <point x="297" y="0"/>
      <point x="348" y="0" type="curve"/>
      <point x="348" y="116"/>
      <point x="348" y="0"/>
      <point x="348" y="116" type="curve"/>
      <point x="197" y="116"/>
      <point x="348" y="116"/>
      <point x="197" y="116" type="curve"/>
      <point x="197" y="0"/>
      <point x="197" y="116"/>
    </contour>
    <contour>
      <point x="275" y="0" type="curve"/>
      <point x="275" y="195"/>
      <point x="275" y="389"/>
      <point x="275" y="584" type="curve"/>
      <point x="117" y="584"/>
      <point x="275" y="584"/>
      <point x="117" y="584" type="curve"/>
      <point x="117" y="389"/>
      <point x="117" y="195"/>
      <point x="117" y="0" type="curve"/>
      <point x="275" y="0"/>
      <point x="117" y="0"/>
    </contour>
    <contour>
      <point x="275" y="584" type="curve"/>
      <point x="275" y="650"/>
      <point x="330" y="678"/>
      <point x="402" y="678" type="curve"/>
      <point x="485" y="678"/>
      <point x="557" y="663"/>
      <point x="557" y="589" type="curve"/>
      <point x="557" y="511"/>
      <point x="479" y="498"/>
      <point x="389" y="498" type="curve"/>
      <point x="389" y="399"/>
      <point x="389" y="498"/>
      <point x="389" y="399" type="curve"/>
      <point x="563" y="399"/>
      <point x="708" y="442"/>
      <point x="708" y="595" type="curve"/>
      <point x="708" y="741"/>
      <point x="579" y="794"/>
      <point x="415" y="794" type="curve"/>
      <point x="247" y="794"/>
      <point x="117" y="735"/>
      <point x="117" y="584" type="curve"/>
      <point x="275" y="584"/>
      <point x="117" y="584"/>
    </contour>
    <contour>
      <point x="509" y="72" type="curve"/>
      <point x="651" y="95"/>
      <point x="749" y="153"/>
      <point x="749" y="288" type="curve"/>
      <point x="749" y="452"/>
      <point x="593" y="498"/>
      <point x="389" y="498" type="curve"/>
      <point x="389" y="399"/>
      <point x="389" y="498"/>
      <point x="389" y="399" type="curve"/>
      <point x="490" y="399"/>
      <point x="598" y="381"/>
      <point x="598" y="283" type="curve"/>
      <point x="598" y="218"/>
      <point x="537" y="203"/>
      <point x="479" y="191" type="curve"/>
      <point x="509" y="72"/>
      <point x="479" y="191"/>
    </contour>
  </outline>
</glyph>
<glyph name="acircumflex" format="1">
  <advance width="742"/>
  <unicode hex="00E2"/>
  <outline>
    <contour>
      <point x="78" y="462" type="curve"/>
      <point x="78" y="343"/>
      <point x="78" y="456"/>
      <point x="78" y="336" type="curve"/>
      <point x="200" y="336"/>
      <point x="78" y="336"/>
      <point x="200" y="336" type="curve"/>
      <point x="200" y="456"/>
      <point x="200" y="343"/>
      <point x="200" y="462" type="curve"/>
      <point x="78" y="462"/>
      <point x="200" y="462"/>
    </contour>
    <contour>
      <point x="634" y="0" type="curve"/>
      <point x="634" y="123"/>
      <point x="634" y="239"/>
      <point x="634" y="362" type="curve"/>
      <point x="634" y="507"/>
      <point x="508" y="538"/>
      <point x="353" y="538" type="curve"/>
      <point x="237" y="538"/>
      <point x="150" y="508"/>
      <point x="78" y="462" type="curve"/>
      <point x="137" y="364"/>
      <point x="87" y="457"/>
      <point x="146" y="358" type="curve"/>
      <point x="197" y="389"/>
      <point x="248" y="421"/>
      <point x="331" y="421" type="curve"/>
      <point x="407" y="421"/>
      <point x="476" y="414"/>
      <point x="476" y="336" type="curve"/>
      <point x="476" y="223"/>
      <point x="476" y="112"/>
      <point x="476" y="0" type="curve"/>
      <point x="634" y="0"/>
      <point x="476" y="0"/>
    </contour>
    <contour>
      <point x="558" y="0" type="curve"/>
      <point x="607" y="0"/>
      <point x="656" y="0"/>
      <point x="706" y="0" type="curve"/>
      <point x="706" y="116"/>
      <point x="706" y="0"/>
      <point x="706" y="116" type="curve"/>
      <point x="558" y="116"/>
      <point x="706" y="116"/>
      <point x="558" y="116" type="curve"/>
      <point x="558" y="0"/>
      <point x="558" y="116"/>
    </contour>
    <contour>
      <point x="551" y="342" type="curve"/>
      <point x="454" y="333"/>
      <point x="396" y="330"/>
      <point x="299" y="321" type="curve"/>
      <point x="160" y="308"/>
      <point x="49" y="289"/>
      <point x="49" y="161" type="curve"/>
      <point x="49" y="39"/>
      <point x="144" y="-5"/>
      <point x="279" y="-5" type="curve"/>
      <point x="417" y="-5"/>
      <point x="514" y="55"/>
      <point x="589" y="153" type="curve"/>
      <point x="514" y="213"/>
      <point x="589" y="153"/>
      <point x="514" y="213" type="curve"/>
      <point x="477" y="154"/>
      <point x="389" y="110"/>
      <point x="303" y="110" type="curve"/>
      <point x="247" y="110"/>
      <point x="205" y="121"/>
      <point x="205" y="161" type="curve"/>
      <point x="205" y="204"/>
      <point x="248" y="211"/>
      <point x="293" y="215" type="curve"/>
      <point x="396" y="224"/>
      <point x="455" y="232"/>
      <point x="558" y="242" type="curve"/>
      <point x="551" y="342"/>
      <point x="558" y="242"/>
    </contour>
    <contour>
      <point x="242" y="611" type="line"/>
      <point x="429" y="777" type="line"/>
      <point x="224" y="777" type="line"/>
      <point x="86" y="611" type="line"/>
    </contour>
    <contour>
      <point x="621" y="611" type="line"/>
      <point x="479" y="777" type="line"/>
      <point x="273" y="777" type="line"/>
      <point x="460" y="611" type="line"/>
    </contour>
  </outline>
</glyph>
<glyph name="ae" format="1">
  <advance width="1157"/>
  <unicode hex="00E6"/>
  <outline>
    <contour>
      <point x="85" y="462" type="curve"/>
      <point x="85" y="343"/>
      <point x="85" y="456"/>
      <point x="85" y="336" type="curve"/>
      <point x="207" y="336"/>
      <point x="85" y="336"/>
      <point x="207" y="336" type="curve"/>
      <point x="207" y="456"/>
      <point x="207" y="343"/>
      <point x="207" y="462" type="curve"/>
      <point x="85" y="462"/>
      <point x="207" y="462"/>
    </contour>
    <contour>
      <point x="641" y="262" type="curve"/>
      <point x="641" y="376"/>
      <point x="641" y="248"/>
      <point x="641" y="362" type="curve"/>
      <point x="641" y="507"/>
      <point x="515" y="538"/>
      <point x="360" y="538" type="curve"/>
      <point x="244" y="538"/>
      <point x="157" y="508"/>
      <point x="85" y="462" type="curve"/>
      <point x="144" y="364"/>
      <point x="94" y="457"/>
      <point x="153" y="358" type="curve"/>
      <point x="204" y="389"/>
      <point x="255" y="421"/>
      <point x="338" y="421" type="curve"/>
      <point x="414" y="421"/>
      <point x="483" y="410"/>
      <point x="483" y="334" type="curve"/>
      <point x="483" y="232"/>
      <point x="483" y="364"/>
      <point x="483" y="262" type="curve"/>
      <point x="641" y="262"/>
      <point x="483" y="262"/>
    </contour>
    <contour>
      <point x="566" y="329" type="curve"/>
      <point x="462" y="329"/>
      <point x="398" y="333"/>
      <point x="301" y="324" type="curve"/>
      <point x="156" y="310"/>
      <point x="47" y="294"/>
      <point x="47" y="165" type="curve"/>
      <point x="47" y="40"/>
      <point x="145" y="-5"/>
      <point x="286" y="-5" type="curve"/>
      <point x="424" y="-5"/>
      <point x="499" y="33"/>
      <point x="605" y="134" type="curve"/>
      <point x="531" y="194"/>
      <point x="595" y="152"/>
      <point x="521" y="211" type="curve"/>
      <point x="451" y="151"/>
      <point x="396" y="109"/>
      <point x="309" y="109" type="curve"/>
      <point x="249" y="109"/>
      <point x="203" y="120"/>
      <point x="203" y="165" type="curve"/>
      <point x="203" y="211"/>
      <point x="250" y="213"/>
      <point x="300" y="217" type="curve"/>
      <point x="402" y="226"/>
      <point x="450" y="223"/>
      <point x="565" y="223" type="curve"/>
      <point x="558" y="322"/>
      <point x="573" y="231"/>
    </contour>
    <contour>
      <point x="564" y="222" type="curve"/>
      <point x="726" y="222"/>
      <point x="888" y="222"/>
      <point x="1050" y="222" type="curve"/>
      <point x="1116" y="222"/>
      <point x="1050" y="222"/>
      <point x="1116" y="222" type="curve"/>
      <point x="1116" y="260"/>
      <point x="1116" y="222"/>
      <point x="1116" y="260" type="curve"/>
      <point x="1116" y="266"/>
      <point x="1116" y="271"/>
      <point x="1116" y="277" type="curve"/>
      <point x="1116" y="460"/>
      <point x="992" y="537"/>
      <point x="811" y="537" type="curve"/>
      <point x="616" y="537"/>
      <point x="483" y="462"/>
      <point x="483" y="278" type="curve"/>
      <point x="483" y="77"/>
      <point x="628" y="-5"/>
      <point x="839" y="-5" type="curve"/>
      <point x="939" y="-5"/>
      <point x="1006" y="16"/>
      <point x="1079" y="64" type="curve"/>
      <point x="1008" y="158"/>
      <point x="1079" y="64"/>
      <point x="1008" y="158" type="curve"/>
      <point x="953" y="127"/>
      <point x="895" y="112"/>
      <point x="833" y="112" type="curve"/>
      <point x="714" y="112"/>
      <point x="634" y="163"/>
      <point x="634" y="278" type="curve"/>
      <point x="634" y="375"/>
      <point x="700" y="420"/>
      <point x="803" y="420" type="curve"/>
      <point x="897" y="420"/>
      <point x="964" y="391"/>
      <point x="964" y="303" type="curve"/>
      <point x="964" y="293"/>
      <point x="964" y="284"/>
      <point x="964" y="274" type="curve"/>
      <point x="979" y="284"/>
      <point x="991" y="300"/>
      <point x="1007" y="309" type="curve"/>
      <point x="1021" y="319"/>
      <point x="1036" y="320"/>
      <point x="1050" y="329" type="curve"/>
      <point x="888" y="329"/>
      <point x="726" y="329"/>
      <point x="564" y="329" type="curve"/>
      <point x="564" y="213"/>
      <point x="564" y="339"/>
    </contour>
  </outline>
</glyph>
<glyph name="otilde" format="1">
  <advance width="768"/>
  <unicode hex="00F5"/>
  <outline>
    <contour>
      <point x="203" y="268" type="curve"/>
      <point x="203" y="365"/>
      <point x="270" y="421"/>
      <point x="377" y="421" type="curve"/>
      <point x="490" y="421"/>
      <point x="564" y="366"/>
      <point x="564" y="266" type="curve"/>
      <point x="564" y="162"/>
      <point x="492" y="112"/>
      <point x="388" y="112" type="curve"/>
      <point x="278" y="112"/>
      <point x="203" y="162"/>
      <point x="203" y="268" type="curve"/>
      <point x="58" y="268"/>
      <point x="190" y="268"/>
      <point x="45" y="268" type="curve"/>
      <point x="45" y="81"/>
      <point x="185" y="-5"/>
      <point x="380" y="-5" type="curve"/>
      <point x="579" y="-5"/>
      <point x="723" y="77"/>
      <point x="723" y="266" type="curve"/>
      <point x="723" y="446"/>
      <point x="585" y="538"/>
      <point x="384" y="538" type="curve"/>
      <point x="184" y="538"/>
      <point x="45" y="446"/>
      <point x="45" y="268" type="curve"/>
      <point x="190" y="268"/>
      <point x="58" y="268"/>
    </contour>
    <contour>
      <point x="550" y="790" type="curve"/>
      <point x="539" y="754"/>
      <point x="519" y="721"/>
      <point x="489" y="721" type="curve"/>
      <point x="454" y="721"/>
      <point x="434" y="731"/>
      <point x="406" y="752" type="curve" smooth="yes"/>
      <point x="362" y="786"/>
      <point x="328" y="799"/>
      <point x="274" y="799" type="curve"/>
      <point x="185" y="799"/>
      <point x="131" y="750"/>
      <point x="94" y="660" type="curve"/>
      <point x="211" y="603"/>
      <point x="95" y="659"/>
      <point x="212" y="603" type="curve"/>
      <point x="230" y="648"/>
      <point x="251" y="674"/>
      <point x="280" y="674" type="curve"/>
      <point x="313" y="674"/>
      <point x="331" y="660"/>
      <point x="357" y="642" type="curve" smooth="yes"/>
      <point x="406" y="606"/>
      <point x="438" y="596"/>
      <point x="495" y="596" type="curve"/>
      <point x="588" y="596"/>
      <point x="642" y="648"/>
      <point x="674" y="736" type="curve"/>
      <point x="551" y="789"/>
      <point x="673" y="735"/>
    </contour>
  </outline>
</glyph>
<glyph name="thorn" format="1">
  <advance width="807"/>
  <unicode hex="00FE"/>
  <outline>
    <contour>
      <point x="170" y="-184" type="curve"/>
      <point x="9" y="-184"/>
      <point x="170" y="-184"/>
      <point x="9" y="-184" type="curve"/>
      <point x="9" y="-300"/>
      <point x="9" y="-184"/>
      <point x="9" y="-300" type="curve"/>
      <point x="63" y="-300"/>
      <point x="116" y="-300"/>
      <point x="170" y="-300" type="curve"/>
      <point x="170" y="-184"/>
      <point x="170" y="-300"/>
    </contour>
    <contour>
      <point x="170" y="-300" type="curve"/>
      <point x="220" y="-300"/>
      <point x="270" y="-300"/>
      <point x="319" y="-300" type="curve"/>
      <point x="319" y="-184"/>
      <point x="319" y="-300"/>
      <point x="319" y="-184" type="curve"/>
      <point x="170" y="-184"/>
      <point x="319" y="-184"/>
      <point x="170" y="-184" type="curve"/>
      <point x="170" y="-300"/>
      <point x="170" y="-184"/>
    </contour>
    <contour>
      <point x="171" y="795" type="curve"/>
      <point x="118" y="795"/>
      <point x="64" y="795"/>
      <point x="11" y="795" type="curve"/>
      <point x="10" y="679"/>
      <point x="11" y="795"/>
      <point x="10" y="679" type="curve"/>
      <point x="171" y="679"/>
      <point x="10" y="679"/>
      <point x="171" y="679" type="curve"/>
      <point x="171" y="795"/>
      <point x="171" y="679"/>
    </contour>
    <contour>
      <point x="210" y="341" type="curve"/>
      <point x="255" y="381"/>
      <point x="337" y="423"/>
      <point x="432" y="423" type="curve"/>
      <point x="541" y="423"/>
      <point x="605" y="357"/>
      <point x="605" y="263" type="curve"/>
      <point x="607" y="157"/>
      <point x="531" y="110"/>
      <point x="434" y="111" type="curve"/>
      <point x="354" y="111"/>
      <point x="309" y="121"/>
      <point x="221" y="167" type="curve"/>
      <point x="124" y="104"/>
      <point x="221" y="167"/>
      <point x="124" y="104" type="curve"/>
      <point x="233" y="17"/>
      <point x="315" y="-5"/>
      <point x="437" y="-5" type="curve"/>
      <point x="621" y="-5"/>
      <point x="764" y="84"/>
      <point x="763" y="269" type="curve"/>
      <point x="763" y="435"/>
      <point x="632" y="540"/>
      <point x="441" y="540" type="curve"/>
      <point x="311" y="540"/>
      <point x="199" y="480"/>
      <point x="134" y="422" type="curve"/>
      <point x="210" y="341"/>
      <point x="134" y="422"/>
    </contour>
    <contour>
      <point x="249" y="-300" type="curve"/>
      <point x="249" y="-22"/>
      <point x="249" y="517"/>
      <point x="249" y="795" type="curve"/>
      <point x="91" y="795"/>
      <point x="249" y="795"/>
      <point x="91" y="795" type="curve"/>
      <point x="91" y="517"/>
      <point x="91" y="-22"/>
      <point x="91" y="-300" type="curve"/>
      <point x="249" y="-300"/>
      <point x="91" y="-300"/>
    </contour>
  </outline>
</glyph>
<glyph name="ydieresis" format="1">
  <advance width="803"/>
  <unicode hex="00FF"/>
  <outline>
    <contour>
      <point x="257" y="-184" type="curve"/>
      <point x="135" y="-184"/>
      <point x="257" y="-184"/>
      <point x="135" y="-184" type="curve"/>
      <point x="135" y="-300"/>
      <point x="135" y="-184"/>
      <point x="135" y="-300" type="curve"/>
      <point x="176" y="-300"/>
      <point x="217" y="-300"/>
      <point x="257" y="-300" type="curve"/>
      <point x="257" y="-184"/>
      <point x="257" y="-300"/>
    </contour>
    <contour>
      <point x="187" y="533" type="curve"/>
      <point x="133" y="533"/>
      <point x="78" y="533"/>
      <point x="23" y="533" type="curve"/>
      <point x="23" y="417"/>
      <point x="23" y="533"/>
      <point x="23" y="417" type="curve"/>
      <point x="187" y="417"/>
      <point x="23" y="417"/>
      <point x="187" y="417" type="curve"/>
      <point x="187" y="533"/>
      <point x="187" y="417"/>
    </contour>
    <contour>
      <point x="187" y="417" type="curve"/>
      <point x="357" y="417"/>
      <point x="187" y="417"/>
      <point x="357" y="417" type="curve"/>
      <point x="357" y="533"/>
      <point x="357" y="417"/>
      <point x="357" y="533" type="curve"/>
      <point x="300" y="533"/>
      <point x="244" y="533"/>
      <point x="187" y="533" type="curve"/>
      <point x="187" y="417"/>
      <point x="187" y="533"/>
    </contour>
    <contour>
      <point x="643" y="533" type="curve"/>
      <point x="580" y="533"/>
      <point x="518" y="533"/>
      <point x="455" y="533" type="curve"/>
      <point x="455" y="417"/>
      <point x="455" y="533"/>
      <point x="455" y="417" type="curve"/>
      <point x="643" y="417"/>
      <point x="455" y="417"/>
      <point x="643" y="417" type="curve"/>
      <point x="643" y="533"/>
      <point x="643" y="417"/>
    </contour>
    <contour>
      <point x="643" y="417" type="curve"/>
      <point x="792" y="417"/>
      <point x="643" y="417"/>
      <point x="792" y="417" type="curve"/>
      <point x="792" y="533"/>
      <point x="792" y="417"/>
      <point x="792" y="533" type="curve"/>
      <point x="742" y="533"/>
      <point x="693" y="533"/>
      <point x="643" y="533" type="curve"/>
      <point x="643" y="417"/>
      <point x="643" y="533"/>
    </contour>
    <contour>
      <point x="456" y="-10" type="curve"/>
      <point x="450" y="9"/>
      <point x="222" y="514"/>
      <point x="216" y="533" type="curve"/>
      <point x="54" y="533"/>
      <point x="216" y="533"/>
      <point x="54" y="533" type="curve"/>
      <point x="61" y="515"/>
      <point x="311" y="-5"/>
      <point x="317" y="-23" type="curve"/>
      <point x="456" y="-23"/>
      <point x="317" y="-10"/>
    </contour>
    <contour>
      <point x="323" y="-300" type="curve"/>
      <point x="333" y="-272"/>
      <point x="756" y="505"/>
      <point x="766" y="533" type="curve"/>
      <point x="604" y="533"/>
      <point x="766" y="533"/>
      <point x="604" y="533" type="curve"/>
      <point x="594" y="505"/>
      <point x="171" y="-272"/>
      <point x="161" y="-300" type="curve"/>
      <point x="323" y="-300"/>
      <point x="161" y="-300"/>
    </contour>
    <contour>
      <point x="383" y="681" type="curve"/>
      <point x="383" y="733"/>
      <point x="343" y="757"/>
      <point x="289" y="757" type="curve"/>
      <point x="235" y="757"/>
      <point x="198" y="730"/>
      <point x="198" y="681" type="curve"/>
      <point x="383" y="681"/>
      <point x="198" y="681"/>
      <point x="383" y="681" type="curve"/>
      <point x="383" y="629"/>
      <point x="343" y="607"/>
      <point x="288" y="607" type="curve"/>
      <point x="234" y="607"/>
      <point x="198" y="632"/>
      <point x="198" y="681" type="curve"/>
      <point x="383" y="681"/>
      <point x="198" y="681"/>
    </contour>
    <contour>
      <point x="619" y="681" type="curve"/>
      <point x="619" y="733"/>
      <point x="579" y="757"/>
      <point x="526" y="757" type="curve"/>
      <point x="472" y="757"/>
      <point x="435" y="730"/>
      <point x="435" y="681" type="curve"/>
      <point x="619" y="681"/>
      <point x="435" y="681"/>
      <point x="619" y="681" type="curve"/>
      <point x="619" y="629"/>
      <point x="580" y="607"/>
      <point x="525" y="607" type="curve"/>
      <point x="471" y="607"/>
      <point x="435" y="632"/>
      <point x="435" y="681" type="curve"/>
      <point x="619" y="681"/>
      <point x="435" y="681"/>
    </contour>
  </outline>
</glyph>
<glyph name="Aogonek" format="1">
  <advance width="958"/>
  <unicode hex="0104"/>
  <outline>
    <contour>
      <point x="130" y="116" type="curve"/>
      <point x="-5" y="116"/>
      <point x="131" y="116"/>
      <point x="-4" y="116" type="curve"/>
      <point x="-4" y="0"/>
      <point x="-4" y="116"/>
      <point x="-4" y="0" type="curve"/>
      <point x="41" y="0"/>
      <point x="85" y="0"/>
      <point x="129" y="0" type="curve"/>
      <point x="130" y="116"/>
      <point x="129" y="0"/>
    </contour>
    <contour>
      <point x="130" y="0" type="curve"/>
      <point x="195" y="0"/>
      <point x="130" y="0"/>
      <point x="327" y="0" type="curve"/>
      <point x="327" y="116"/>
      <point x="327" y="0"/>
      <point x="327" y="116" type="curve"/>
      <point x="130" y="116"/>
      <point x="327" y="116"/>
      <point x="130" y="116" type="curve"/>
      <point x="130" y="0"/>
      <point x="130" y="116"/>
    </contour>
    <contour>
      <point x="810" y="0" type="curve"/>
      <point x="855" y="0"/>
      <point x="900" y="0"/>
      <point x="944" y="0" type="curve"/>
      <point x="944" y="116"/>
      <point x="944" y="0"/>
      <point x="944" y="116" type="curve"/>
      <point x="809" y="116"/>
      <point x="945" y="116"/>
      <point x="810" y="116" type="curve"/>
      <point x="810" y="0"/>
      <point x="810" y="116"/>
    </contour>
    <contour>
      <point x="810" y="116" type="curve"/>
      <point x="613" y="116"/>
      <point x="810" y="116"/>
      <point x="613" y="116" type="curve"/>
      <point x="613" y="0"/>
      <point x="613" y="116"/>
      <point x="613" y="0" type="curve"/>
      <point x="679" y="0"/>
      <point x="745" y="0"/>
      <point x="810" y="0" type="curve"/>
      <point x="810" y="116"/>
      <point x="810" y="0"/>
    </contour>
    <contour>
      <point x="677" y="315" type="curve"/>
      <point x="548" y="315"/>
      <point x="418" y="315"/>
      <point x="289" y="315" type="curve"/>
      <point x="223" y="192"/>
      <point x="289" y="315"/>
      <point x="223" y="192" type="curve"/>
      <point x="391" y="192"/>
      <point x="560" y="192"/>
      <point x="728" y="192" type="curve"/>
      <point x="677" y="315"/>
      <point x="728" y="192"/>
    </contour>
    <contour>
      <point x="908" y="0" type="curve"/>
      <point x="796" y="242"/>
      <point x="676" y="480"/>
      <point x="563" y="722" type="curve"/>
      <point x="418" y="722"/>
      <point x="563" y="722"/>
      <point x="418" y="722" type="curve"/>
      <point x="528" y="483"/>
      <point x="632" y="239"/>
      <point x="742" y="0" type="curve"/>
      <point x="908" y="0"/>
      <point x="742" y="0"/>
    </contour>
    <contour>
      <point x="201" y="0" type="curve"/>
      <point x="325" y="239"/>
      <point x="437" y="483"/>
      <point x="561" y="722" type="curve"/>
      <point x="416" y="722"/>
      <point x="561" y="722"/>
      <point x="416" y="722" type="curve"/>
      <point x="290" y="480"/>
      <point x="154" y="242"/>
      <point x="28" y="0" type="curve"/>
      <point x="201" y="0"/>
      <point x="28" y="0"/>
    </contour>
    <contour>
      <point x="826" y="86" type="curve"/>
      <point x="738" y="56"/>
      <point x="654" y="40"/>
      <point x="654" y="-48" type="curve"/>
      <point x="654" y="-136"/>
      <point x="725" y="-178"/>
      <point x="819" y="-178" type="curve"/>
      <point x="871" y="-178"/>
      <point x="905" y="-165"/>
      <point x="951" y="-145" type="curve"/>
      <point x="879" y="-53"/>
      <point x="951" y="-145"/>
      <point x="879" y="-53" type="curve"/>
      <point x="862" y="-59"/>
      <point x="851" y="-66"/>
      <point x="834" y="-66" type="curve"/>
      <point x="817" y="-66"/>
      <point x="803" y="-60"/>
      <point x="803" y="-45" type="curve"/>
      <point x="803" y="-13"/>
      <point x="847" y="-11"/>
      <point x="885" y="4" type="curve"/>
      <point x="826" y="86"/>
      <point x="885" y="4"/>
    </contour>
  </outline>
</glyph>
<glyph name="cacute" format="1">
  <advance width="692"/>
  <unicode hex="0107"/>
  <outline>
    <contour>
      <point x="521" y="469" type="curve"/>
      <point x="521" y="309"/>
      <point x="521" y="469"/>
      <point x="521" y="309" type="curve"/>
      <point x="643" y="309"/>
      <point x="521" y="309"/>
      <point x="643" y="309" type="curve"/>
      <point x="643" y="469"/>
      <point x="643" y="309"/>
      <point x="643" y="469" type="curve"/>
      <point x="521" y="469"/>
      <point x="643" y="469"/>
    </contour>
    <contour>
      <point x="643" y="469" type="curve"/>
      <point x="574" y="511"/>
      <point x="487" y="538"/>
      <point x="403" y="538" type="curve"/>
      <point x="195" y="538"/>
      <point x="45" y="463"/>
      <point x="45" y="267" type="curve"/>
      <point x="45" y="73"/>
      <point x="191" y="-5"/>
      <point x="398" y="-5" type="curve"/>
      <point x="492" y="-5"/>
      <point x="584" y="20"/>
      <point x="640" y="71" type="curve"/>
      <point x="554" y="167"/>
      <point x="640" y="71"/>
      <point x="554" y="167" type="curve"/>
      <point x="511" y="133"/>
      <point x="459" y="116"/>
      <point x="405" y="116" type="curve"/>
      <point x="288" y="116"/>
      <point x="204" y="157"/>
      <point x="204" y="267" type="curve"/>
      <point x="204" y="375"/>
      <point x="284" y="417"/>
      <point x="399" y="417" type="curve"/>
      <point x="451" y="417"/>
      <point x="505" y="411"/>
      <point x="549" y="388" type="curve"/>
      <point x="643" y="469"/>
      <point x="549" y="388"/>
    </contour>
    <contour>
      <point x="445" y="609" type="line"/>
      <point x="632" y="775" type="line"/>
      <point x="427" y="775" type="line"/>
      <point x="289" y="609" type="line"/>
    </contour>
  </outline>
</glyph>
<glyph name="Ccaron" format="1">
  <advance width="894"/>
  <unicode hex="010C"/>
  <outline>
    <contour>
      <point x="717" y="654" type="curve"/>
      <point x="717" y="534"/>
      <point x="717" y="609"/>
      <point x="717" y="489" type="curve"/>
      <point x="839" y="489"/>
      <point x="717" y="489"/>
      <point x="839" y="489" type="curve"/>
      <point x="839" y="609"/>
      <point x="839" y="534"/>
      <point x="839" y="654" type="curve"/>
      <point x="717" y="654"/>
      <point x="839" y="654"/>
    </contour>
    <contour>
      <point x="839" y="654" type="curve"/>
      <point x="743" y="696"/>
      <point x="640" y="727"/>
      <point x="526" y="727" type="curve"/>
      <point x="251" y="727"/>
      <point x="58" y="604"/>
      <point x="58" y="344" type="curve"/>
      <point x="58" y="104"/>
      <point x="237" y="-5"/>
      <point x="494" y="-5" type="curve"/>
      <point x="644" y="-5"/>
      <point x="735" y="23"/>
      <point x="841" y="88" type="curve"/>
      <point x="779" y="189"/>
      <point x="840" y="88"/>
      <point x="778" y="189" type="curve"/>
      <point x="678" y="135"/>
      <point x="604" y="118"/>
      <point x="500" y="118" type="curve"/>
      <point x="332" y="118"/>
      <point x="217" y="192"/>
      <point x="217" y="350" type="curve"/>
      <point x="217" y="521"/>
      <point x="339" y="606"/>
      <point x="518" y="606" type="curve"/>
      <point x="604" y="606"/>
      <point x="681" y="593"/>
      <point x="752" y="562" type="curve"/>
      <point x="839" y="654"/>
      <point x="752" y="562"/>
    </contour>
    <contour>
      <point x="639" y="945" type="line"/>
      <point x="452" y="779" type="line"/>
      <point x="657" y="779" type="line"/>
      <point x="795" y="945" type="line"/>
    </contour>
    <contour>
      <point x="238" y="945" type="line"/>
      <point x="380" y="779" type="line"/>
      <point x="585" y="779" type="line"/>
      <point x="398" y="945" type="line"/>
    </contour>
  </outline>
</glyph>
<glyph name="dcaron" format="1">
  <advance width="833"/>
  <unicode hex="010F"/>
  <outline>
    <contour>
      <point x="629" y="800" type="curve"/>
      <point x="575" y="800"/>
      <point x="521" y="800"/>
      <point x="467" y="800" type="curve"/>
      <point x="467" y="684"/>
      <point x="467" y="800"/>
      <point x="467" y="684" type="curve"/>
      <point x="629" y="684"/>
      <point x="467" y="684"/>
      <point x="629" y="684" type="curve"/>
      <point x="629" y="799"/>
      <point x="629" y="685"/>
    </contour>
    <contour>
      <point x="630" y="0" type="curve"/>
      <point x="684" y="0"/>
      <point x="737" y="0"/>
      <point x="791" y="0" type="curve"/>
      <point x="791" y="116"/>
      <point x="791" y="0"/>
      <point x="791" y="116" type="curve"/>
      <point x="630" y="115"/>
      <point x="791" y="116"/>
      <point x="630" y="115" type="curve"/>
      <point x="630" y="-1"/>
      <point x="630" y="116"/>
    </contour>
    <contour>
      <point x="658" y="400" type="curve"/>
      <point x="579" y="486"/>
      <point x="463" y="538"/>
      <point x="349" y="538" type="curve"/>
      <point x="174" y="538"/>
      <point x="47" y="450"/>
      <point x="47" y="262" type="curve"/>
      <point x="47" y="74"/>
      <point x="173" y="-5"/>
      <point x="350" y="-5" type="curve"/>
      <point x="490" y="-5"/>
      <point x="589" y="58"/>
      <point x="661" y="157" type="curve"/>
      <point x="588" y="220"/>
      <point x="652" y="157"/>
      <point x="579" y="220" type="curve"/>
      <point x="521" y="144"/>
      <point x="456" y="112"/>
      <point x="371" y="112" type="curve"/>
      <point x="278" y="112"/>
      <point x="205" y="160"/>
      <point x="205" y="268" type="curve"/>
      <point x="205" y="376"/>
      <point x="281" y="421"/>
      <point x="376" y="421" type="curve"/>
      <point x="455" y="421"/>
      <point x="542" y="379"/>
      <point x="590" y="319" type="curve"/>
      <point x="664" y="390"/>
      <point x="584" y="330"/>
    </contour>
    <contour>
      <point x="712" y="0" type="curve"/>
      <point x="712" y="267"/>
      <point x="712" y="533"/>
      <point x="712" y="800" type="curve"/>
      <point x="546" y="800"/>
      <point x="712" y="800"/>
      <point x="546" y="800" type="curve"/>
      <point x="546" y="533"/>
      <point x="546" y="267"/>
      <point x="546" y="0" type="curve"/>
      <point x="712" y="0"/>
      <point x="546" y="0"/>
    </contour>
    <contour>
      <point x="777" y="548" type="line"/>
      <point x="898" y="548"/>
      <point x="982" y="623"/>
      <point x="982" y="732" type="curve"/>
      <point x="982" y="814"/>
      <point x="939" y="877"/>
      <point x="873" y="877" type="curve"/>
      <point x="821" y="877"/>
      <point x="782" y="851"/>
      <point x="782" y="802" type="curve"/>
      <point x="782" y="751"/>
      <point x="822" y="725"/>
      <point x="878" y="725" type="curve"/>
      <point x="876" y="679"/>
      <point x="858" y="639"/>
      <point x="777" y="630" type="curve"/>
    </contour>
  </outline>
</glyph>
<glyph name="imacron" format="1">
  <advance width="415"/>
  <unicode hex="012B"/>
  <outline>
    <contour>
      <point x="213" y="116" type="curve"/>
      <point x="52" y="116"/>
      <point x="213" y="116"/>
      <point x="52" y="116" type="curve"/>
      <point x="52" y="0"/>
      <point x="52" y="116"/>
      <point x="52" y="0" type="curve"/>
      <point x="106" y="0"/>
      <point x="160" y="0"/>
      <point x="213" y="0" type="curve"/>
      <point x="213" y="116"/>
      <point x="213" y="0"/>
    </contour>
    <contour>
      <point x="213" y="0" type="curve"/>
      <point x="266" y="0"/>
      <point x="319" y="0"/>
      <point x="371" y="0" type="curve"/>
      <point x="371" y="116"/>
      <point x="371" y="0"/>
      <point x="371" y="116" type="curve"/>
      <point x="213" y="116"/>
      <point x="371" y="116"/>
      <point x="213" y="116" type="curve"/>
      <point x="213" y="0"/>
      <point x="213" y="116"/>
    </contour>
    <contour>
      <point x="213" y="533" type="curve"/>
      <point x="160" y="533"/>
      <point x="106" y="533"/>
      <point x="52" y="533" type="curve"/>
      <point x="52" y="417"/>
      <point x="52" y="533"/>
      <point x="52" y="417" type="curve"/>
      <point x="213" y="417"/>
      <point x="52" y="417"/>
      <point x="213" y="417" type="curve"/>
      <point x="213" y="533"/>
      <point x="213" y="417"/>
    </contour>
    <contour>
      <point x="297" y="0" type="curve"/>
      <point x="297" y="178"/>
      <point x="297" y="355"/>
      <point x="297" y="533" type="curve"/>
      <point x="131" y="533"/>
      <point x="297" y="533"/>
      <point x="131" y="533" type="curve"/>
      <point x="131" y="355"/>
      <point x="131" y="178"/>
      <point x="131" y="0" type="curve"/>
      <point x="297" y="0"/>
      <point x="131" y="0"/>
    </contour>
    <contour>
      <point x="354" y="726" type="curve"/>
      <point x="261" y="726"/>
      <point x="168" y="726"/>
      <point x="74" y="726" type="curve"/>
      <point x="74" y="610"/>
      <point x="74" y="726"/>
      <point x="74" y="610" type="curve"/>
      <point x="168" y="610"/>
      <point x="261" y="610"/>
      <point x="354" y="610" type="curve"/>
      <point x="354" y="726"/>
      <point x="354" y="610"/>
    </contour>
  </outline>
</glyph>
<glyph name="dotlessi" format="1">
  <advance width="424"/>
  <unicode hex="0131"/>
  <outline>
    <contour>
      <point x="224" y="610" type="move" name="top"/>
    </contour>
    <contour>
      <point x="222" y="116" type="curve"/>
      <point x="61" y="116"/>
      <point x="222" y="116"/>
      <point x="61" y="116" type="curve"/>
      <point x="61" y="0"/>
      <point x="61" y="116"/>
      <point x="61" y="0" type="curve"/>
      <point x="115" y="0"/>
      <point x="169" y="0"/>
      <point x="222" y="0" type="curve"/>
      <point x="222" y="116"/>
      <point x="222" y="0"/>
    </contour>
    <contour>
      <point x="222" y="0" type="curve"/>
      <point x="275" y="0"/>
      <point x="328" y="0"/>
      <point x="380" y="0" type="curve"/>
      <point x="380" y="116"/>
      <point x="380" y="0"/>
      <point x="380" y="116" type="curve"/>
      <point x="222" y="116"/>
      <point x="380" y="116"/>
      <point x="222" y="116" type="curve"/>
      <point x="222" y="0"/>
      <point x="222" y="116"/>
    </contour>
    <contour>
      <point x="222" y="533" type="curve"/>
      <point x="169" y="533"/>
      <point x="115" y="533"/>
      <point x="61" y="533" type="curve"/>
      <point x="61" y="417"/>
      <point x="61" y="533"/>
      <point x="61" y="417" type="curve"/>
      <point x="222" y="417"/>
      <point x="61" y="417"/>
      <point x="222" y="417" type="curve"/>
      <point x="222" y="533"/>
      <point x="222" y="417"/>
    </contour>
    <contour>
      <point x="306" y="0" type="curve"/>
      <point x="306" y="178"/>
      <point x="306" y="355"/>
      <point x="306" y="533" type="curve"/>
      <point x="140" y="533"/>
      <point x="306" y="533"/>
      <point x="140" y="533" type="curve"/>
      <point x="140" y="355"/>
      <point x="140" y="178"/>
      <point x="140" y="0" type="curve"/>
      <point x="306" y="0"/>
      <point x="140" y="0"/>
    </contour>
  </outline>
</glyph>
<glyph name="Lacute" format="1">
  <advance width="752"/>
  <unicode hex="0139"/>
  <outline>
    <contour>
      <point x="732" y="58" type="curve"/>
      <point x="732" y="178"/>
      <point x="732" y="58"/>
      <point x="732" y="178" type="curve"/>
      <point x="611" y="178"/>
      <point x="732" y="178"/>
      <point x="611" y="178" type="curve"/>
      <point x="611" y="58"/>
      <point x="611" y="178"/>
      <point x="611" y="58" type="curve"/>
      <point x="732" y="58"/>
      <point x="611" y="58"/>
    </contour>
    <contour>
      <point x="208" y="116" type="curve"/>
      <point x="19" y="116"/>
      <point x="235" y="116"/>
      <point x="46" y="116" type="curve"/>
      <point x="46" y="0"/>
      <point x="46" y="116"/>
      <point x="46" y="0" type="curve"/>
      <point x="108" y="0"/>
      <point x="144" y="0"/>
      <point x="208" y="0" type="curve"/>
      <point x="208" y="116"/>
      <point x="208" y="0"/>
    </contour>
    <contour>
      <point x="208" y="722" type="curve"/>
      <point x="144" y="722"/>
      <point x="108" y="722"/>
      <point x="46" y="722" type="curve"/>
      <point x="46" y="606"/>
      <point x="46" y="722"/>
      <point x="46" y="606" type="curve"/>
      <point x="235" y="606"/>
      <point x="19" y="606"/>
      <point x="208" y="606" type="curve"/>
      <point x="208" y="722"/>
      <point x="208" y="606"/>
    </contour>
    <contour>
      <point x="208" y="606" type="curve"/>
      <point x="396" y="606"/>
      <point x="181" y="606"/>
      <point x="369" y="606" type="curve"/>
      <point x="369" y="722"/>
      <point x="369" y="606"/>
      <point x="369" y="722" type="curve"/>
      <point x="306" y="722"/>
      <point x="270" y="722"/>
      <point x="208" y="722" type="curve"/>
      <point x="208" y="606"/>
      <point x="208" y="722"/>
    </contour>
    <contour>
      <point x="288" y="0" type="curve"/>
      <point x="288" y="241"/>
      <point x="288" y="481"/>
      <point x="288" y="722" type="curve"/>
      <point x="129" y="722"/>
      <point x="288" y="722"/>
      <point x="129" y="722" type="curve"/>
      <point x="129" y="481"/>
      <point x="129" y="241"/>
      <point x="129" y="0" type="curve"/>
      <point x="288" y="0"/>
      <point x="129" y="0"/>
    </contour>
    <contour>
      <point x="208" y="0" type="curve"/>
      <point x="383" y="0"/>
      <point x="557" y="0"/>
      <point x="732" y="0" type="curve"/>
      <point x="732" y="116"/>
      <point x="732" y="0"/>
      <point x="732" y="116" type="curve"/>
      <point x="557" y="116"/>
      <point x="383" y="116"/>
      <point x="208" y="116" type="curve"/>
      <point x="208" y="0"/>
      <point x="208" y="116"/>
    </contour>
    <contour>
      <point x="272" y="779" type="line"/>
      <point x="459" y="945" type="line"/>
      <point x="253" y="945" type="line"/>
      <point x="115" y="779" type="line"/>
    </contour>
  </outline>
</glyph>
<glyph name="lacute" format="1">
  <advance width="427"/>
  <unicode hex="013A"/>
  <outline>
    <contour>
      <point x="212" y="115" type="curve"/>
      <point x="24" y="116"/>
      <point x="212" y="115"/>
      <point x="24" y="116" type="curve"/>
      <point x="24" y="0"/>
      <point x="24" y="116"/>
      <point x="24" y="0" type="curve"/>
      <point x="87" y="0"/>
      <point x="149" y="-1"/>
      <point x="212" y="-1" type="curve"/>
      <point x="212" y="116"/>
      <point x="212" y="-1"/>
    </contour>
    <contour>
      <point x="215" y="799" type="curve"/>
      <point x="152" y="799"/>
      <point x="89" y="800"/>
      <point x="26" y="800" type="curve"/>
      <point x="26" y="684"/>
      <point x="26" y="800"/>
      <point x="26" y="684" type="curve"/>
      <point x="215" y="684"/>
      <point x="26" y="684"/>
      <point x="215" y="684" type="curve"/>
      <point x="215" y="799"/>
      <point x="215" y="684"/>
    </contour>
    <contour>
      <point x="212" y="-1" type="curve"/>
      <point x="275" y="-1"/>
      <point x="337" y="0"/>
      <point x="400" y="0" type="curve"/>
      <point x="400" y="116"/>
      <point x="400" y="0"/>
      <point x="400" y="116" type="curve"/>
      <point x="212" y="115"/>
      <point x="400" y="116"/>
      <point x="212" y="115" type="curve"/>
      <point x="212" y="-1"/>
      <point x="212" y="116"/>
    </contour>
    <contour>
      <point x="290" y="0" type="curve"/>
      <point x="290" y="267"/>
      <point x="290" y="533"/>
      <point x="290" y="800" type="curve"/>
      <point x="132" y="800"/>
      <point x="290" y="800"/>
      <point x="132" y="800" type="curve"/>
      <point x="132" y="533"/>
      <point x="132" y="267"/>
      <point x="132" y="0" type="curve"/>
      <point x="290" y="0"/>
      <point x="132" y="0"/>
    </contour>
    <contour>
      <point x="274" y="876" type="line"/>
      <point x="461" y="1042" type="line"/>
      <point x="256" y="1042" type="line"/>
      <point x="118" y="876" type="line"/>
    </contour>
  </outline>
</glyph>
<glyph name="Lcommaaccent" format="1">
  <advance width="752"/>
  <unicode hex="013B"/>
  <outline>
    <contour>
      <point x="732" y="58" type="curve"/>
      <point x="732" y="178"/>
      <point x="732" y="58"/>
      <point x="732" y="178" type="curve"/>
      <point x="611" y="178"/>
      <point x="732" y="178"/>
      <point x="611" y="178" type="curve"/>
      <point x="611" y="58"/>
      <point x="611" y="178"/>
      <point x="611" y="58" type="curve"/>
      <point x="732" y="58"/>
      <point x="611" y="58"/>
    </contour>
    <contour>
      <point x="208" y="116" type="curve"/>
      <point x="19" y="116"/>
      <point x="235" y="116"/>
      <point x="46" y="116" type="curve"/>
      <point x="46" y="0"/>
      <point x="46" y="116"/>
      <point x="46" y="0" type="curve"/>
      <point x="108" y="0"/>
      <point x="144" y="0"/>
      <point x="208" y="0" type="curve"/>
      <point x="208" y="116"/>
      <point x="208" y="0"/>
    </contour>
    <contour>
      <point x="208" y="722" type="curve"/>
      <point x="144" y="722"/>
      <point x="108" y="722"/>
      <point x="46" y="722" type="curve"/>
      <point x="46" y="606"/>
      <point x="46" y="722"/>
      <point x="46" y="606" type="curve"/>
      <point x="235" y="606"/>
      <point x="19" y="606"/>
      <point x="208" y="606" type="curve"/>
      <point x="208" y="722"/>
      <point x="208" y="606"/>
    </contour>
    <contour>
      <point x="208" y="606" type="curve"/>
      <point x="396" y="606"/>
      <point x="181" y="606"/>
      <point x="369" y="606" type="curve"/>
      <point x="369" y="722"/>
      <point x="369" y="606"/>
      <point x="369" y="722" type="curve"/>
      <point x="306" y="722"/>
      <point x="270" y="722"/>
      <point x="208" y="722" type="curve"/>
      <point x="208" y="606"/>
      <point x="208" y="722"/>
    </contour>
    <contour>
      <point x="288" y="0" type="curve"/>
      <point x="288" y="241"/>
      <point x="288" y="481"/>
      <point x="288" y="722" type="curve"/>
      <point x="129" y="722"/>
      <point x="288" y="722"/>
      <point x="129" y="722" type="curve"/>
      <point x="129" y="481"/>
      <point x="129" y="241"/>
      <point x="129" y="0" type="curve"/>
      <point x="288" y="0"/>
      <point x="129" y="0"/>
    </contour>
    <contour>
      <point x="208" y="0" type="curve"/>
      <point x="383" y="0"/>
      <point x="557" y="0"/>
      <point x="732" y="0" type="curve"/>
      <point x="732" y="116"/>
      <point x="732" y="0"/>
      <point x="732" y="116" type="curve"/>
      <point x="557" y="116"/>
      <point x="383" y="116"/>
      <point x="208" y="116" type="curve"/>
      <point x="208" y="0"/>
      <point x="208" y="116"/>
    </contour>
    <contour>
      <point x="279" y="-384" type="line"/>
      <point x="399" y="-384"/>
      <point x="484" y="-309"/>
      <point x="484" y="-199" type="curve"/>
      <point x="484" y="-118"/>
      <point x="441" y="-54"/>
      <point x="374" y="-54" type="curve"/>
      <point x="322" y="-54"/>
      <point x="283" y="-80"/>
      <point x="283" y="-130" type="curve"/>
      <point x="283" y="-181"/>
      <point x="323" y="-207"/>
      <point x="379" y="-207" type="curve"/>
      <point x="377" y="-253"/>
      <point x="359" y="-293"/>
      <point x="279" y="-302" type="curve"/>
    </contour>
  </outline>
</glyph>
<glyph name="ohungarumlaut" format="1">
  <advance width="768"/>
  <unicode hex="0151"/>
  <outline>
    <contour>
      <point x="203" y="268" type="curve"/>
      <point x="203" y="365"/>
      <point x="270" y="421"/>
      <point x="377" y="421" type="curve"/>
      <point x="490" y="421"/>
      <point x="564" y="366"/>
      <point x="564" y="266" type="curve"/>
      <point x="564" y="162"/>
      <point x="492" y="112"/>
      <point x="388" y="112" type="curve"/>
      <point x="278" y="112"/>
      <point x="203" y="162"/>
      <point x="203" y="268" type="curve"/>
      <point x="58" y="268"/>
      <point x="190" y="268"/>
      <point x="45" y="268" type="curve"/>
      <point x="45" y="81"/>
      <point x="185" y="-5"/>
      <point x="380" y="-5" type="curve"/>
      <point x="579" y="-5"/>
      <point x="723" y="77"/>
      <point x="723" y="266" type="curve"/>
      <point x="723" y="446"/>
      <point x="585" y="538"/>
      <point x="384" y="538" type="curve"/>
      <point x="184" y="538"/>
      <point x="45" y="446"/>
      <point x="45" y="268" type="curve"/>
      <point x="190" y="268"/>
      <point x="58" y="268"/>
    </contour>
    <contour>
      <point x="305" y="612" type="line"/>
      <point x="492" y="778" type="line"/>
      <point x="286" y="778" type="line"/>
      <point x="148" y="612" type="line"/>
    </contour>
    <contour>
      <point x="565" y="612" type="line"/>
      <point x="752" y="778" type="line"/>
      <point x="547" y="778" type="line"/>
      <point x="409" y="612" type="line"/>
    </contour>
  </outline>
</glyph>
<glyph name="Racute" format="1">
  <advance width="915"/>
  <unicode hex="0154"/>
  <outline>
    <contour>
      <point x="734" y="0" type="curve"/>
      <point x="788" y="0"/>
      <point x="844" y="0"/>
      <point x="900" y="0" type="curve"/>
      <point x="900" y="116"/>
      <point x="900" y="0"/>
      <point x="900" y="116" type="curve"/>
      <point x="734" y="116"/>
      <point x="900" y="116"/>
      <point x="734" y="116" type="curve"/>
      <point x="734" y="0"/>
      <point x="734" y="116"/>
    </contour>
    <contour>
      <point x="237" y="722" type="curve"/>
      <point x="183" y="722"/>
      <point x="129" y="722"/>
      <point x="76" y="722" type="curve"/>
      <point x="76" y="606"/>
      <point x="76" y="722"/>
      <point x="76" y="606" type="curve"/>
      <point x="237" y="606"/>
      <point x="76" y="606"/>
      <point x="237" y="606" type="curve"/>
      <point x="237" y="722"/>
      <point x="237" y="606"/>
    </contour>
    <contour>
      <point x="237" y="116" type="curve"/>
      <point x="76" y="116"/>
      <point x="237" y="116"/>
      <point x="76" y="116" type="curve"/>
      <point x="76" y="0"/>
      <point x="76" y="116"/>
      <point x="76" y="0" type="curve"/>
      <point x="129" y="0"/>
      <point x="183" y="0"/>
      <point x="237" y="0" type="curve"/>
      <point x="237" y="116"/>
      <point x="237" y="0"/>
    </contour>
    <contour>
      <point x="237" y="0" type="curve"/>
      <point x="290" y="0"/>
      <point x="237" y="0"/>
      <point x="397" y="0" type="curve"/>
      <point x="397" y="116"/>
      <point x="397" y="0"/>
      <point x="397" y="116" type="curve"/>
      <point x="237" y="116"/>
      <point x="397" y="116"/>
      <point x="237" y="116" type="curve"/>
      <point x="237" y="0"/>
      <point x="237" y="116"/>
    </contour>
    <contour>
      <point x="399" y="354" type="curve"/>
      <point x="505" y="236"/>
      <point x="611" y="118"/>
      <point x="718" y="0" type="curve"/>
      <point x="878" y="0"/>
      <point x="718" y="32"/>
      <point x="878" y="32" type="curve"/>
      <point x="782" y="139"/>
      <point x="687" y="247"/>
      <point x="591" y="354" type="curve"/>
      <point x="399" y="354"/>
      <point x="591" y="354"/>
    </contour>
    <contour>
      <point x="317" y="0" type="curve"/>
      <point x="317" y="241"/>
      <point x="317" y="481"/>
      <point x="317" y="722" type="curve"/>
      <point x="158" y="722"/>
      <point x="317" y="722"/>
      <point x="158" y="722" type="curve"/>
      <point x="158" y="481"/>
      <point x="158" y="241"/>
      <point x="158" y="0" type="curve"/>
      <point x="317" y="0"/>
      <point x="158" y="0"/>
    </contour>
    <contour>
      <point x="240" y="294" type="curve"/>
      <point x="308" y="294"/>
      <point x="377" y="294"/>
      <point x="445" y="294" type="curve"/>
      <point x="640" y="294"/>
      <point x="789" y="345"/>
      <point x="789" y="518" type="curve"/>
      <point x="789" y="677"/>
      <point x="652" y="722"/>
      <point x="474" y="722" type="curve"/>
      <point x="396" y="722"/>
      <point x="318" y="722"/>
      <point x="240" y="722" type="curve"/>
      <point x="240" y="606"/>
      <point x="240" y="722"/>
      <point x="240" y="606" type="curve"/>
      <point x="308" y="606"/>
      <point x="376" y="606"/>
      <point x="445" y="606" type="curve"/>
      <point x="547" y="606"/>
      <point x="630" y="594"/>
      <point x="630" y="506" type="curve"/>
      <point x="630" y="426"/>
      <point x="556" y="411"/>
      <point x="464" y="411" type="curve"/>
      <point x="389" y="411"/>
      <point x="314" y="411"/>
      <point x="240" y="411" type="curve"/>
      <point x="240" y="294"/>
      <point x="240" y="411"/>
    </contour>
    <contour>
      <point x="485" y="779" type="line"/>
      <point x="672" y="945" type="line"/>
      <point x="466" y="945" type="line"/>
      <point x="328" y="779" type="line"/>
    </contour>
  </outline>
</glyph>
<glyph name="rcaron" format="1">
  <advance width="565"/>
  <unicode hex="0159"/>
  <outline>
    <contour>
      <point x="221" y="0" type="curve"/>
      <point x="280" y="0"/>
      <point x="317" y="0"/>
      <point x="375" y="0" type="curve"/>
      <point x="375" y="52"/>
      <point x="375" y="65"/>
      <point x="375" y="116" type="curve"/>
      <point x="308" y="116"/>
      <point x="289" y="116"/>
      <point x="221" y="116" type="curve"/>
      <point x="221" y="65"/>
      <point x="221" y="52"/>
    </contour>
    <contour>
      <point x="221" y="116" type="curve"/>
      <point x="151" y="116"/>
      <point x="130" y="116"/>
      <point x="60" y="116" type="curve"/>
      <point x="60" y="65"/>
      <point x="60" y="52"/>
      <point x="60" y="0" type="curve"/>
      <point x="121" y="0"/>
      <point x="160" y="0"/>
      <point x="221" y="0" type="curve"/>
      <point x="221" y="52"/>
      <point x="221" y="65"/>
    </contour>
    <contour>
      <point x="219" y="533" type="curve"/>
      <point x="159" y="533"/>
      <point x="119" y="533"/>
      <point x="59" y="533" type="curve"/>
      <point x="59" y="482"/>
      <point x="58" y="468"/>
      <point x="58" y="417" type="curve"/>
      <point x="128" y="417"/>
      <point x="149" y="417"/>
      <point x="219" y="417" type="curve"/>
      <point x="219" y="468"/>
      <point x="219" y="482"/>
    </contour>
    <contour>
      <point x="300" y="0" type="curve"/>
      <point x="300" y="202"/>
      <point x="300" y="331"/>
      <point x="300" y="533" type="curve"/>
      <point x="230" y="533"/>
      <point x="211" y="533"/>
      <point x="141" y="533" type="curve"/>
      <point x="141" y="331"/>
      <point x="141" y="202"/>
      <point x="141" y="0" type="curve"/>
      <point x="211" y="0"/>
      <point x="230" y="0"/>
    </contour>
    <contour>
      <point x="258" y="259" type="curve"/>
      <point x="323" y="372"/>
      <point x="403" y="400"/>
      <point x="530" y="400" type="curve"/>
      <point x="530" y="460"/>
      <point x="530" y="478"/>
      <point x="530" y="538" type="curve"/>
      <point x="379" y="538"/>
      <point x="291" y="473"/>
      <point x="208" y="343" type="curve"/>
      <point x="232" y="305"/>
      <point x="235" y="298"/>
    </contour>
    <contour>
      <point x="422" y="775" type="line"/>
      <point x="235" y="609" type="line"/>
      <point x="441" y="609" type="line"/>
      <point x="579" y="775" type="line"/>
    </contour>
    <contour>
      <point x="21" y="775" type="line"/>
      <point x="163" y="609" type="line"/>
      <point x="368" y="609" type="line"/>
      <point x="181" y="775" type="line"/>
    </contour>
  </outline>
</glyph>
<glyph name="Scedilla" format="1">
  <advance width="794"/>
  <unicode hex="015E"/>
  <outline>
    <contour>
      <point x="563" y="661" type="curve"/>
      <point x="563" y="541"/>
      <point x="563" y="629"/>
      <point x="563" y="509" type="curve"/>
      <point x="684" y="509"/>
      <point x="563" y="509"/>
      <point x="684" y="509" type="curve"/>
      <point x="684" y="629"/>
      <point x="684" y="541"/>
      <point x="684" y="661" type="curve"/>
      <point x="563" y="661"/>
      <point x="684" y="661"/>
    </contour>
    <contour>
      <point x="197" y="52" type="curve"/>
      <point x="197" y="172"/>
      <point x="197" y="95"/>
      <point x="197" y="215" type="curve"/>
      <point x="76" y="215"/>
      <point x="197" y="215"/>
      <point x="76" y="215" type="curve"/>
      <point x="76" y="95"/>
      <point x="76" y="172"/>
      <point x="76" y="52" type="curve"/>
      <point x="197" y="52"/>
      <point x="76" y="52"/>
    </contour>
    <contour>
      <point x="78" y="52" type="curve"/>
      <point x="180" y="8"/>
      <point x="264" y="-5"/>
      <point x="376" y="-5" type="curve"/>
      <point x="569" y="-5"/>
      <point x="740" y="32"/>
      <point x="740" y="195" type="curve"/>
      <point x="740" y="336"/>
      <point x="609" y="374"/>
      <point x="469" y="421" type="curve" smooth="yes"/>
      <point x="362" y="456"/>
      <point x="238" y="486"/>
      <point x="238" y="543" type="curve"/>
      <point x="238" y="602"/>
      <point x="310" y="615"/>
      <point x="392" y="615" type="curve"/>
      <point x="474" y="615"/>
      <point x="537" y="594"/>
      <point x="612" y="563" type="curve"/>
      <point x="686" y="659"/>
      <point x="609" y="565"/>
      <point x="684" y="661" type="curve"/>
      <point x="587" y="702"/>
      <point x="507" y="726"/>
      <point x="399" y="726" type="curve"/>
      <point x="224" y="726"/>
      <point x="79" y="678"/>
      <point x="79" y="532" type="curve"/>
      <point x="79" y="394"/>
      <point x="215" y="361"/>
      <point x="356" y="314" type="curve" smooth="yes"/>
      <point x="461" y="279"/>
      <point x="581" y="252"/>
      <point x="581" y="190" type="curve"/>
      <point x="581" y="134"/>
      <point x="484" y="116"/>
      <point x="382" y="116" type="curve"/>
      <point x="300" y="116"/>
      <point x="238" y="133"/>
      <point x="163" y="164" type="curve"/>
      <point x="76" y="54"/>
      <point x="164" y="163"/>
    </contour>
    <contour>
      <point x="344" y="82" type="curve"/>
      <point x="328" y="61"/>
      <point x="248" y="-45"/>
      <point x="232" y="-66" type="curve"/>
      <point x="340" y="-159"/>
      <point x="232" y="-66"/>
      <point x="340" y="-159" type="curve"/>
      <point x="361" y="-133"/>
      <point x="447" y="-25"/>
      <point x="467" y="2" type="curve"/>
      <point x="344" y="82"/>
      <point x="467" y="2"/>
    </contour>
    <contour>
      <point x="340" y="-159" type="curve"/>
      <point x="344" y="-156"/>
      <point x="348" y="-154"/>
      <point x="353" y="-154" type="curve"/>
      <point x="361" y="-154"/>
      <point x="368" y="-156"/>
      <point x="368" y="-163" type="curve"/>
      <point x="368" y="-175"/>
      <point x="355" y="-179"/>
      <point x="341" y="-179" type="curve"/>
      <point x="315" y="-179"/>
      <point x="292" y="-170"/>
      <point x="256" y="-156" type="curve"/>
      <point x="212" y="-245"/>
      <point x="256" y="-156"/>
      <point x="212" y="-245" type="curve"/>
      <point x="254" y="-263"/>
      <point x="288" y="-273"/>
      <point x="334" y="-273" type="curve"/>
      <point x="434" y="-273"/>
      <point x="513" y="-247"/>
      <point x="513" y="-159" type="curve"/>
      <point x="513" y="-79"/>
      <point x="448" y="-42"/>
      <point x="361" y="-42" type="curve"/>
      <point x="313" y="-42"/>
      <point x="279" y="-51"/>
      <point x="232" y="-66" type="curve"/>
      <point x="340" y="-159"/>
      <point x="232" y="-66"/>
    </contour>
  </outline>
</glyph>
<glyph name="circumflex" format="1">
  <advance width="717"/>
  <unicode hex="02C6"/>
  <outline>
    <contour>
      <point x="429" y="586" type="move" name="_top"/>
    </contour>
    <contour>
      <point x="319" y="587" type="line"/>
      <point x="506" y="753" type="line"/>
      <point x="301" y="753" type="line"/>
      <point x="163" y="587" type="line"/>
    </contour>
    <contour>
      <point x="698" y="587" type="line"/>
      <point x="556" y="753" type="line"/>
      <point x="350" y="753" type="line"/>
      <point x="537" y="587" type="line"/>
    </contour>
  </outline>
</glyph>
<glyph name="caron" format="1">
  <advance width="698"/>
  <unicode hex="02C7"/>
  <outline>
    <contour>
      <point x="330" y="547" type="move" name="_top"/>
    </contour>
    <contour>
      <point x="457" y="712" type="line"/>
      <point x="270" y="546" type="line"/>
      <point x="475" y="546" type="line"/>
      <point x="613" y="712" type="line"/>
    </contour>
    <contour>
      <point x="56" y="712" type="line"/>
      <point x="198" y="546" type="line"/>
      <point x="403" y="546" type="line"/>
      <point x="216" y="712" type="line"/>
    </contour>
  </outline>
</glyph>
<glyph name="ring" format="1">
  <advance width="500"/>
  <unicode hex="02DA"/>
  <outline>
    <contour>
      <point x="167" y="423" type="move" name="_top"/>
    </contour>
    <contour>
      <point x="-33" y="569" type="curve"/>
      <point x="-33" y="465"/>
      <point x="54" y="420"/>
      <point x="168" y="420" type="curve"/>
      <point x="285" y="420"/>
      <point x="375" y="464"/>
      <point x="375" y="569" type="curve"/>
      <point x="375" y="676"/>
      <point x="284" y="719"/>
      <point x="166" y="719" type="curve"/>
      <point x="52" y="719"/>
      <point x="-33" y="674"/>
      <point x="-33" y="569" type="curve"/>
      <point x="99" y="569"/>
      <point x="-34" y="569"/>
      <point x="98" y="569" type="curve"/>
      <point x="98" y="608"/>
      <point x="129" y="622"/>
      <point x="166" y="622" type="curve"/>
      <point x="208" y="622"/>
      <point x="242" y="614"/>
      <point x="242" y="569" type="curve"/>
      <point x="242" y="528"/>
      <point x="209" y="517"/>
      <point x="168" y="517" type="curve"/>
      <point x="130" y="517"/>
      <point x="98" y="529"/>
      <point x="98" y="569" type="curve"/>
      <point x="-34" y="569"/>
      <point x="99" y="569"/>
    </contour>
  </outline>
</glyph>
<glyph name="tilde" format="1">
  <advance width="699"/>
  <unicode hex="02DC"/>
  <outline>
    <contour>
      <point x="251" y="514" type="move" name="_top"/>
    </contour>
    <contour>
      <point x="418" y="694" type="curve"/>
      <point x="406" y="658"/>
      <point x="386" y="625"/>
      <point x="357" y="625" type="curve"/>
      <point x="322" y="625"/>
      <point x="302" y="635"/>
      <point x="274" y="656" type="curve" smooth="yes"/>
      <point x="230" y="690"/>
      <point x="195" y="703"/>
      <point x="141" y="703" type="curve"/>
      <point x="52" y="703"/>
      <point x="-2" y="654"/>
      <point x="-39" y="564" type="curve"/>
      <point x="78" y="507"/>
      <point x="-37" y="563"/>
      <point x="79" y="507" type="curve"/>
      <point x="98" y="552"/>
      <point x="118" y="578"/>
      <point x="147" y="578" type="curve"/>
      <point x="180" y="578"/>
      <point x="198" y="564"/>
      <point x="224" y="546" type="curve" smooth="yes"/>
      <point x="273" y="510"/>
      <point x="305" y="500"/>
      <point x="362" y="500" type="curve"/>
      <point x="455" y="500"/>
      <point x="509" y="552"/>
      <point x="541" y="640" type="curve"/>
      <point x="419" y="693"/>
      <point x="541" y="639"/>
    </contour>
  </outline>
</glyph>
<glyph name="dvvR" format="1">
  <advance width="1204"/>
  <unicode hex="090B"/>
  <outline>
    <contour>
      <point x="953" y="545" type="line"/>
      <point x="953" y="467"/>
      <point x="886" y="438"/>
      <point x="802" y="438" type="curve"/>
      <point x="707" y="438"/>
      <point x="714" y="438"/>
      <point x="619" y="438" type="curve"/>
      <point x="619" y="396"/>
      <point x="619" y="365"/>
      <point x="619" y="323" type="curve"/>
      <point x="717" y="323"/>
      <point x="711" y="323"/>
      <point x="809" y="323" type="curve"/>
      <point x="979" y="323"/>
      <point x="1110" y="389"/>
      <point x="1110" y="545" type="curve"/>
    </contour>
    <contour>
      <point x="710" y="0" type="curve"/>
      <point x="710" y="241"/>
      <point x="710" y="480"/>
      <point x="710" y="721" type="curve"/>
      <point x="551" y="721"/>
      <point x="710" y="721"/>
      <point x="551" y="721" type="curve"/>
      <point x="551" y="480"/>
      <point x="551" y="241"/>
      <point x="551" y="0" type="curve"/>
      <point x="710" y="0"/>
      <point x="551" y="0"/>
    </contour>
    <component base="dvmE" xScale="0.960037994887" yScale="0.960037994887" xOffset="986" yOffset="-375"/>
    <component base="dvTopbar" xScale="1.76511361226" xOffset="16"/>
    <component base="dvStroke_down" yScale="1.61891733587" xOffset="485" yOffset="342"/>
    <component base="dvmvR" xOffset="1198" yOffset="188"/>
    <component base="dvRaker" xOffset="217" yOffset="1"/>
  </outline>
</glyph>
<glyph name="dvCHA" format="1">
  <advance width="1003"/>
  <unicode hex="091B"/>
  <outline>
    <contour>
      <point x="616" y="-35" type="move" name="blwm.virama"/>
    </contour>
    <contour>
      <point x="763" y="717" type="move" name="abvm.e"/>
    </contour>
    <contour>
      <point x="616" y="-114" type="move" name="blwm.u"/>
    </contour>
    <component base="dvCH"/>
    <component base="dvStem_short" xOffset="405"/>
  </outline>
</glyph>
<glyph name="dvPHA" format="1">
  <advance width="838"/>
  <unicode hex="092B"/>
  <outline>
    <contour>
      <point x="700" y="0" type="move" name="blwm.virama"/>
    </contour>
    <contour>
      <point x="700" y="723" type="move" name="abvm.e"/>
    </contour>
    <contour>
      <point x="700" y="0" type="move" name="blwm.u"/>
    </contour>
    <component base="dvTopbar" xScale="1.05345575318" xOffset="430"/>
    <component base="dvKA_right" xOffset="32" yOffset="-3"/>
    <component base="dvPA"/>
  </outline>
</glyph>
<glyph name="dvLA" format="1">
  <advance width="1031"/>
  <unicode hex="0932"/>
  <outline>
    <contour>
      <point x="838" y="-13" type="move" name="blwm.virama"/>
    </contour>
    <contour>
      <point x="792" y="718" type="move" name="abvm.e"/>
    </contour>
    <contour>
      <point x="827" y="-86" type="move" name="blwm.u"/>
    </contour>
    <component base="dvLA_base"/>
    <component base="dvTopbar" xScale="1.55747695774" xOffset="12"/>
    <component base="dvStem_short" xOffset="435"/>
  </outline>
</glyph>
<glyph name="dvSA" format="1">
  <advance width="934"/>
  <unicode hex="0938"/>
  <outline>
    <contour>
      <point x="245" y="271" type="line"/>
      <point x="363" y="295"/>
      <point x="437" y="375"/>
      <point x="437" y="494" type="curve"/>
      <point x="437" y="578"/>
      <point x="397" y="639"/>
      <point x="327" y="688" type="curve"/>
      <point x="220" y="612" type="line"/>
      <point x="261" y="579"/>
      <point x="288" y="542"/>
      <point x="288" y="490" type="curve"/>
      <point x="288" y="400"/>
      <point x="191" y="381"/>
      <point x="87" y="381" type="curve"/>
    </contour>
    <contour>
      <point x="87" y="381" type="line"/>
      <point x="87" y="171"/>
      <point x="179" y="0"/>
      <point x="369" y="0" type="curve"/>
      <point x="476" y="0"/>
      <point x="554" y="49"/>
      <point x="613" y="136" type="curve"/>
      <point x="524" y="212" type="line"/>
      <point x="484" y="156"/>
      <point x="439" y="117"/>
      <point x="371" y="117" type="curve"/>
      <point x="293" y="117"/>
      <point x="251" y="185"/>
      <point x="245" y="271" type="curve"/>
    </contour>
    <component base="dvConnector" xOffset="-63" yOffset="-36"/>
    <component base="dvTopbar" xScale="1.12425952656" xOffset="4"/>
    <component base="dvStemright" xOffset="619"/>
  </outline>
</glyph>
<glyph name="dvHA" format="1">
  <advance width="718"/>
  <unicode hex="0939"/>
  <outline>
    <contour>
      <point x="375" y="-120" type="move" name="blwm.virama"/>
    </contour>
    <contour>
      <point x="534" y="718" type="move" name="abvm.e"/>
    </contour>
    <contour>
      <point x="427" y="-202" type="move" name="blwm.u"/>
    </contour>
    <contour>
      <point x="307" y="291" type="curve"/>
      <point x="270" y="314"/>
      <point x="244" y="332"/>
      <point x="244" y="373" type="curve"/>
      <point x="244" y="424"/>
      <point x="299" y="418"/>
      <point x="357" y="418" type="curve"/>
      <point x="424" y="418"/>
      <point x="472" y="418"/>
      <point x="539" y="418" type="curve"/>
      <point x="471" y="468"/>
      <point x="448" y="485"/>
      <point x="380" y="534" type="curve"/>
      <point x="356" y="534"/>
      <point x="340" y="534"/>
      <point x="316" y="534" type="curve"/>
      <point x="193" y="534"/>
      <point x="95" y="496"/>
      <point x="95" y="387" type="curve"/>
      <point x="95" y="308"/>
      <point x="143" y="263"/>
      <point x="216" y="230" type="curve"/>
      <point x="256" y="258"/>
      <point x="268" y="263"/>
    </contour>
    <contour>
      <point x="380" y="663" type="curve"/>
      <point x="380" y="616"/>
      <point x="380" y="582"/>
      <point x="380" y="534" type="curve"/>
      <point x="448" y="485"/>
      <point x="471" y="468"/>
      <point x="539" y="418" type="curve"/>
      <point x="539" y="509"/>
      <point x="539" y="573"/>
      <point x="539" y="663" type="curve"/>
      <point x="471" y="663"/>
      <point x="448" y="663"/>
    </contour>
    <contour>
      <point x="636" y="180" type="line"/>
      <point x="592" y="297"/>
      <point x="499" y="345"/>
      <point x="372" y="345" type="curve"/>
      <point x="213" y="345"/>
      <point x="94" y="277"/>
      <point x="94" y="130" type="curve"/>
      <point x="94" y="-19"/>
      <point x="216" y="-86"/>
      <point x="379" y="-86" type="curve"/>
      <point x="379" y="-50"/>
      <point x="379" y="-12"/>
      <point x="379" y="24" type="curve"/>
      <point x="300" y="24"/>
      <point x="247" y="64"/>
      <point x="247" y="135" type="curve"/>
      <point x="247" y="201"/>
      <point x="298" y="229"/>
      <point x="366" y="229" type="curve"/>
      <point x="430" y="229"/>
      <point x="476" y="208"/>
      <point x="498" y="149" type="curve"/>
    </contour>
    <component base="dvTopbar" xScale="1.07626790669" xOffset="2"/>
  </outline>
</glyph>
<glyph name="dvmI" format="1">
  <advance width="363"/>
  <unicode hex="093F"/>
  <outline>
    <contour>
      <point x="263" y="689" type="curve"/>
      <point x="249" y="722"/>
      <point x="242" y="746"/>
      <point x="242" y="780" type="curve"/>
      <point x="242" y="861"/>
      <point x="331" y="884"/>
      <point x="421" y="884" type="curve"/>
      <point x="655" y="884"/>
      <point x="830" y="785"/>
      <point x="938" y="633" type="curve"/>
      <point x="975" y="658"/>
      <point x="1003" y="674"/>
      <point x="1040" y="700" type="curve"/>
      <point x="892" y="883"/>
      <point x="702" y="1001"/>
      <point x="424" y="1001" type="curve"/>
      <point x="249" y="1001"/>
      <point x="93" y="954"/>
      <point x="93" y="770" type="curve"/>
      <point x="93" y="714"/>
      <point x="114" y="679"/>
      <point x="144" y="633" type="curve"/>
      <point x="189" y="653"/>
      <point x="220" y="668"/>
    </contour>
    <component base="dvmAA"/>
  </outline>
</glyph>
<glyph name="dvKxA" format="1">
  <advance width="1128"/>
  <unicode hex="0958"/>
  <outline>
    <contour>
      <point x="665" y="-43" type="move" name="blwm.virama"/>
    </contour>
    <contour>
      <point x="664" y="721" type="move" name="abvm.e"/>
    </contour>
    <contour>
      <point x="711" y="-154" type="move" name="blwm.u"/>
    </contour>
    <component base="dvKA"/>
    <component base="dvAnusvara" xOffset="477" yOffset="-993"/>
  </outline>
</glyph>
<glyph name="doubledanda" format="1">
  <advance width="703"/>
  <unicode hex="0965"/>
  <outline>
    <contour>
      <point x="486" y="722" type="curve"/>
      <point x="486" y="481"/>
      <point x="486" y="241"/>
      <point x="486" y="0" type="curve"/>
      <point x="646" y="0"/>
      <point x="486" y="0"/>
      <point x="646" y="0" type="curve"/>
      <point x="646" y="241"/>
      <point x="646" y="481"/>
      <point x="646" y="722" type="curve"/>
      <point x="486" y="722"/>
      <point x="646" y="722"/>
    </contour>
    <contour>
      <point x="180" y="722" type="curve"/>
      <point x="180" y="481"/>
      <point x="180" y="241"/>
      <point x="180" y="0" type="curve"/>
      <point x="338" y="0"/>
      <point x="180" y="0"/>
      <point x="338" y="0" type="curve"/>
      <point x="338" y="241"/>
      <point x="338" y="481"/>
      <point x="338" y="722" type="curve"/>
      <point x="180" y="722"/>
      <point x="338" y="722"/>
    </contour>
  </outline>
</glyph>
<glyph name="Lslash" format="1">
  <advance width="751"/>
  <outline>
    <contour>
      <point x="54" y="151" type="curve"/>
      <point x="175" y="252"/>
      <point x="296" y="354"/>
      <point x="417" y="455" type="curve"/>
      <point x="417" y="583"/>
      <point x="417" y="455"/>
      <point x="417" y="583" type="curve"/>
      <point x="296" y="482"/>
      <point x="175" y="380"/>
      <point x="54" y="279" type="curve"/>
      <point x="54" y="151"/>
      <point x="54" y="279"/>
    </contour>
    <contour>
      <point x="731" y="58" type="curve"/>
      <point x="731" y="178"/>
      <point x="731" y="58"/>
      <point x="731" y="178" type="curve"/>
      <point x="610" y="178"/>
      <point x="731" y="178"/>
      <point x="610" y="178" type="curve"/>
      <point x="610" y="58"/>
      <point x="610" y="178"/>
      <point x="610" y="58" type="curve"/>
      <point x="731" y="58"/>
      <point x="610" y="58"/>
    </contour>
    <contour>
      <point x="207" y="116" type="curve"/>
      <point x="18" y="116"/>
      <point x="234" y="116"/>
      <point x="45" y="116" type="curve"/>
      <point x="45" y="0"/>
      <point x="45" y="116"/>
      <point x="45" y="0" type="curve"/>
      <point x="107" y="0"/>
      <point x="143" y="0"/>
      <point x="207" y="0" type="curve"/>
      <point x="207" y="116"/>
      <point x="207" y="0"/>
    </contour>
    <contour>
      <point x="207" y="722" type="curve"/>
      <point x="143" y="722"/>
      <point x="107" y="722"/>
      <point x="45" y="722" type="curve"/>
      <point x="45" y="606"/>
      <point x="45" y="722"/>
      <point x="45" y="606" type="curve"/>
      <point x="234" y="606"/>
      <point x="18" y="606"/>
      <point x="207" y="606" type="curve"/>
      <point x="207" y="722"/>
      <point x="207" y="606"/>
    </contour>
    <contour>
      <point x="207" y="606" type="curve"/>
      <point x="395" y="606"/>
      <point x="180" y="606"/>
      <point x="368" y="606" type="curve"/>
      <point x="368" y="722"/>
      <point x="368" y="606"/>
      <point x="368" y="722" type="curve"/>
      <point x="305" y="722"/>
      <point x="269" y="722"/>
      <point x="207" y="722" type="curve"/>
      <point x="207" y="606"/>
      <point x="207" y="722"/>
    </contour>
    <contour>
      <point x="287" y="0" type="curve"/>
      <point x="287" y="241"/>
      <point x="287" y="481"/>
      <point x="287" y="722" type="curve"/>
      <point x="128" y="722"/>
      <point x="287" y="722"/>
      <point x="128" y="722" type="curve"/>
      <point x="128" y="481"/>
      <point x="128" y="241"/>
      <point x="128" y="0" type="curve"/>
      <point x="287" y="0"/>
      <point x="128" y="0"/>
    </contour>
    <contour>
      <point x="207" y="0" type="curve"/>
      <point x="382" y="0"/>
      <point x="556" y="0"/>
      <point x="731" y="0" type="curve"/>
      <point x="731" y="116"/>
      <point x="731" y="0"/>
      <point x="731" y="116" type="curve"/>
      <point x="556" y="116"/>
      <point x="382" y="116"/>
      <point x="207" y="116" type="curve"/>
      <point x="207" y="0"/>
      <point x="207" y="116"/>
    </contour>
  </outline>
</glyph>
<glyph name="approxequal" format="1">
  <advance width="856"/>
  <outline>
    <contour>
      <point x="662" y="381" type="curve"/>
      <point x="642" y="338"/>
      <point x="627" y="306"/>
      <point x="583" y="306" type="curve"/>
      <point x="536" y="306"/>
      <point x="508" y="314"/>
      <point x="466" y="338" type="curve"/>
      <point x="401" y="377"/>
      <point x="359" y="396"/>
      <point x="282" y="396" type="curve"/>
      <point x="174" y="396"/>
      <point x="112" y="351"/>
      <point x="73" y="250" type="curve"/>
      <point x="115" y="229"/>
      <point x="141" y="218"/>
      <point x="184" y="199" type="curve"/>
      <point x="203" y="247"/>
      <point x="225" y="279"/>
      <point x="275" y="279" type="curve"/>
      <point x="315" y="279"/>
      <point x="338" y="272"/>
      <point x="372" y="251" type="curve"/>
      <point x="443" y="210"/>
      <point x="488" y="191"/>
      <point x="570" y="190" type="curve"/>
      <point x="677" y="190"/>
      <point x="737" y="231"/>
      <point x="783" y="328" type="curve"/>
      <point x="737" y="349"/>
      <point x="710" y="361"/>
    </contour>
    <contour>
      <point x="662" y="604" type="curve"/>
      <point x="642" y="561"/>
      <point x="627" y="530"/>
      <point x="583" y="530" type="curve"/>
      <point x="536" y="530"/>
      <point x="508" y="538"/>
      <point x="466" y="561" type="curve"/>
      <point x="401" y="601"/>
      <point x="359" y="619"/>
      <point x="282" y="619" type="curve"/>
      <point x="174" y="619"/>
      <point x="112" y="575"/>
      <point x="73" y="473" type="curve"/>
      <point x="115" y="452"/>
      <point x="141" y="441"/>
      <point x="184" y="422" type="curve"/>
      <point x="203" y="471"/>
      <point x="225" y="502"/>
      <point x="275" y="502" type="curve"/>
      <point x="315" y="502"/>
      <point x="338" y="495"/>
      <point x="372" y="475" type="curve"/>
      <point x="443" y="434"/>
      <point x="488" y="415"/>
      <point x="570" y="414" type="curve"/>
      <point x="677" y="414"/>
      <point x="737" y="455"/>
      <point x="783" y="551" type="curve"/>
      <point x="737" y="572"/>
      <point x="710" y="584"/>
    </contour>
  </outline>
</glyph>
<glyph name="commaaccent" format="1">
  <advance width="347"/>
  <outline>
    <contour>
      <point x="229" y="290" type="move" name="_bottom"/>
    </contour>
    <contour>
      <point x="126" y="-123" type="line"/>
      <point x="247" y="-123"/>
      <point x="332" y="-48"/>
      <point x="332" y="62" type="curve"/>
      <point x="332" y="143"/>
      <point x="289" y="207"/>
      <point x="222" y="207" type="curve"/>
      <point x="170" y="207"/>
      <point x="131" y="181"/>
      <point x="131" y="131" type="curve"/>
      <point x="131" y="80"/>
      <point x="171" y="54"/>
      <point x="227" y="54" type="curve"/>
      <point x="225" y="8"/>
      <point x="207" y="-32"/>
      <point x="126" y="-41" type="curve"/>
    </contour>
  </outline>
</glyph>
<glyph name="dagger" format="1">
  <advance width="708"/>
  <outline>
    <contour>
      <point x="37" y="406" type="curve"/>
      <point x="671" y="406" type="line"/>
      <point x="671" y="533"/>
      <point x="671" y="406"/>
      <point x="671" y="533" type="curve"/>
      <point x="37" y="533" type="line"/>
      <point x="37" y="406"/>
      <point x="37" y="533"/>
    </contour>
    <contour>
      <point x="433" y="-298" type="curve"/>
      <point x="433" y="793" type="line"/>
      <point x="274" y="793"/>
      <point x="443" y="793"/>
      <point x="284" y="793" type="curve"/>
      <point x="284" y="-298" type="line"/>
      <point x="443" y="-298"/>
      <point x="274" y="-298"/>
    </contour>
  </outline>
</glyph>
<glyph name="daggerdbl" format="1">
  <advance width="757"/>
  <outline>
    <contour>
      <point x="62" y="406" type="curve"/>
      <point x="695" y="406" type="line"/>
      <point x="695" y="533"/>
      <point x="695" y="406"/>
      <point x="695" y="533" type="curve"/>
      <point x="62" y="533" type="line"/>
      <point x="62" y="406"/>
      <point x="62" y="533"/>
    </contour>
    <contour>
      <point x="457" y="-298" type="curve"/>
      <point x="457" y="793" type="line"/>
      <point x="299" y="793"/>
      <point x="467" y="793"/>
      <point x="309" y="793" type="curve"/>
      <point x="309" y="-298" type="line"/>
      <point x="467" y="-298"/>
      <point x="299" y="-298"/>
    </contour>
    <contour>
      <point x="62" y="-64" type="curve"/>
      <point x="695" y="-64" type="line"/>
      <point x="695" y="64"/>
      <point x="695" y="-64"/>
      <point x="695" y="64" type="curve"/>
      <point x="62" y="64" type="line"/>
      <point x="62" y="-64"/>
      <point x="62" y="64"/>
    </contour>
  </outline>
</glyph>
<glyph name="deltamath" format="1">
  <advance width="848"/>
  <outline>
    <contour>
      <point x="40" y="0" type="line"/>
      <point x="808" y="0" type="line"/>
      <point x="808" y="128" type="line"/>
      <point x="40" y="128" type="line"/>
    </contour>
    <contour>
      <point x="198" y="128" type="line"/>
      <point x="511" y="750" type="line"/>
      <point x="353" y="750" type="line"/>
      <point x="40" y="128" type="line"/>
    </contour>
    <contour>
      <point x="808" y="128" type="line"/>
      <point x="512" y="750" type="line"/>
      <point x="354" y="750" type="line"/>
      <point x="651" y="128" type="line"/>
    </contour>
  </outline>
</glyph>
<glyph name="dvAbbreviationsign" format="1">
  <advance width="564"/>
  <outline>
    <contour>
      <point x="186" y="257" type="curve"/>
      <point x="186" y="318"/>
      <point x="222" y="356"/>
      <point x="283" y="356" type="curve"/>
      <point x="345" y="357"/>
      <point x="383" y="318"/>
      <point x="383" y="255" type="curve"/>
      <point x="383" y="194"/>
      <point x="350" y="153"/>
      <point x="292" y="153" type="curve"/>
      <point x="226" y="153"/>
      <point x="186" y="192"/>
      <point x="186" y="257" type="curve"/>
      <point x="130" y="257"/>
      <point x="92" y="257"/>
      <point x="36" y="257" type="curve"/>
      <point x="36" y="115"/>
      <point x="136" y="38"/>
      <point x="284" y="38" type="curve"/>
      <point x="436" y="38"/>
      <point x="539" y="116"/>
      <point x="539" y="261" type="curve"/>
      <point x="539" y="398"/>
      <point x="437" y="470"/>
      <point x="290" y="471" type="curve"/>
      <point x="140" y="471"/>
      <point x="36" y="397"/>
      <point x="36" y="257" type="curve"/>
      <point x="92" y="257"/>
      <point x="130" y="257"/>
    </contour>
  </outline>
</glyph>
<glyph name="dvBH" format="1">
  <advance width="666"/>
  <outline>
    <contour>
      <point x="261" y="511" type="line"/>
      <point x="263" y="568"/>
      <point x="286" y="611"/>
      <point x="338" y="611" type="curve"/>
      <point x="385" y="611"/>
      <point x="410" y="577"/>
      <point x="410" y="529" type="curve"/>
      <point x="410" y="435"/>
      <point x="410" y="368"/>
      <point x="410" y="273" type="curve"/>
      <point x="410" y="218"/>
      <point x="383" y="179"/>
      <point x="331" y="179" type="curve"/>
      <point x="279" y="179"/>
      <point x="244" y="205"/>
      <point x="244" y="254" type="curve"/>
      <point x="244" y="304"/>
      <point x="287" y="321"/>
      <point x="342" y="321" type="curve"/>
      <point x="522" y="321"/>
      <point x="647" y="321"/>
      <point x="827" y="321" type="curve"/>
      <point x="827" y="364"/>
      <point x="827" y="395"/>
      <point x="827" y="438" type="curve"/>
      <point x="649" y="438"/>
      <point x="526" y="438"/>
      <point x="349" y="438" type="curve"/>
      <point x="198" y="438"/>
      <point x="80" y="388"/>
      <point x="80" y="254" type="curve"/>
      <point x="80" y="123"/>
      <point x="187" y="62"/>
      <point x="329" y="62" type="curve"/>
      <point x="470" y="62"/>
      <point x="568" y="136"/>
      <point x="568" y="271" type="curve"/>
      <point x="568" y="367"/>
      <point x="568" y="434"/>
      <point x="568" y="529" type="curve"/>
      <point x="568" y="657"/>
      <point x="477" y="727"/>
      <point x="345" y="727" type="curve"/>
      <point x="210" y="727"/>
      <point x="115" y="659"/>
      <point x="113" y="530" type="curve"/>
    </contour>
  </outline>
</glyph>
<glyph name="dvBH_RA" format="1">
  <advance width="1013"/>
  <outline>
    <contour>
      <point x="922" y="-76" type="move" name="blwm.u"/>
    </contour>
    <component base="dvBH_R"/>
    <component base="dvStemright" xOffset="702"/>
  </outline>
</glyph>
<glyph name="dvB" format="1">
  <advance width="415"/>
  <outline>
    <contour>
      <point x="511" y="313" type="curve"/>
      <point x="511" y="233"/>
      <point x="449" y="193"/>
      <point x="364" y="193" type="curve"/>
      <point x="275" y="193"/>
      <point x="207" y="232"/>
      <point x="207" y="314" type="curve"/>
      <point x="207" y="389"/>
      <point x="267" y="424"/>
      <point x="348" y="424" type="curve"/>
      <point x="439" y="424"/>
      <point x="511" y="395"/>
      <point x="511" y="313" type="curve"/>
      <point x="569" y="313"/>
      <point x="611" y="313"/>
      <point x="669" y="313" type="curve"/>
      <point x="669" y="473"/>
      <point x="531" y="541"/>
      <point x="355" y="541" type="curve"/>
      <point x="183" y="541"/>
      <point x="49" y="471"/>
      <point x="49" y="314" type="curve"/>
      <point x="49" y="153"/>
      <point x="178" y="72"/>
      <point x="349" y="72" type="curve"/>
      <point x="530" y="72"/>
      <point x="669" y="148"/>
      <point x="669" y="313" type="curve"/>
      <point x="611" y="313"/>
      <point x="569" y="313"/>
    </contour>
    <component base="dvDiagonal"/>
    <component base="dvTopbar" xScale="1.02295323294" xOffset="1"/>
  </outline>
</glyph>
<glyph name="dvB_base" format="1">
  <advance width="500"/>
  <outline>
    <contour>
      <point x="511" y="313" type="curve"/>
      <point x="511" y="234"/>
      <point x="449" y="193"/>
      <point x="364" y="193" type="curve"/>
      <point x="275" y="193"/>
      <point x="207" y="232"/>
      <point x="207" y="314" type="curve"/>
      <point x="207" y="389"/>
      <point x="267" y="424"/>
      <point x="348" y="424" type="curve"/>
      <point x="439" y="424"/>
      <point x="511" y="395"/>
      <point x="511" y="313" type="curve"/>
      <point x="569" y="313"/>
      <point x="611" y="313"/>
      <point x="669" y="313" type="curve"/>
      <point x="669" y="473"/>
      <point x="531" y="541"/>
      <point x="355" y="541" type="curve"/>
      <point x="183" y="541"/>
      <point x="49" y="471"/>
      <point x="49" y="314" type="curve"/>
      <point x="49" y="153"/>
      <point x="178" y="72"/>
      <point x="349" y="72" type="curve"/>
      <point x="530" y="72"/>
      <point x="669" y="148"/>
      <point x="669" y="313" type="curve"/>
      <point x="611" y="313"/>
      <point x="569" y="313"/>
    </contour>
    <contour>
      <point x="585" y="210" type="line"/>
      <point x="263" y="462" type="line"/>
      <point x="152" y="398" type="line"/>
      <point x="488" y="146" type="line"/>
    </contour>
  </outline>
</glyph>
<glyph name="dvB_open" format="1">
  <advance width="500"/>
  <outline>
    <contour>
      <point x="575" y="207" type="line"/>
      <point x="253" y="459" type="line"/>
      <point x="142" y="395" type="line"/>
      <point x="478" y="144" type="line"/>
    </contour>
    <contour>
      <point x="396" y="541" type="line"/>
      <point x="201" y="541"/>
      <point x="49" y="471"/>
      <point x="49" y="314" type="curve"/>
      <point x="49" y="153"/>
      <point x="178" y="72"/>
      <point x="349" y="72" type="curve"/>
      <point x="530" y="72"/>
      <point x="647" y="143"/>
      <point x="669" y="313" type="curve"/>
      <point x="620" y="313"/>
      <point x="585" y="311"/>
      <point x="536" y="311" type="curve"/>
      <point x="520" y="233"/>
      <point x="463" y="193"/>
      <point x="364" y="193" type="curve"/>
      <point x="275" y="193"/>
      <point x="207" y="232"/>
      <point x="207" y="314" type="curve"/>
      <point x="207" y="389"/>
      <point x="288" y="424"/>
      <point x="396" y="424" type="curve"/>
    </contour>
  </outline>
</glyph>
<glyph name="dvC_CH_VA" format="1">
  <advance width="1465"/>
  <outline>
    <contour>
      <point x="1199" y="-346" type="move" name="blwm.virama"/>
    </contour>
    <contour>
      <point x="1250" y="717" type="move" name="abvm.e"/>
    </contour>
    <contour>
      <point x="1199" y="-351" type="move" name="blwm.u"/>
    </contour>
    <component base="dvStroke_down" yScale="1.86152932551" xOffset="578" yOffset="-159"/>
    <component base="dvC_CHA"/>
    <component base="dvVA_open"/>
  </outline>
</glyph>
<glyph name="dvC_base" format="1">
  <advance width="500"/>
  <outline>
    <contour>
      <point x="64" y="382" type="curve"/>
      <point x="206" y="382"/>
      <point x="347" y="382"/>
      <point x="489" y="382" type="curve"/>
      <point x="489" y="499"/>
      <point x="489" y="382"/>
      <point x="489" y="499" type="curve"/>
      <point x="347" y="499"/>
      <point x="206" y="499"/>
      <point x="64" y="499" type="curve"/>
      <point x="64" y="382"/>
      <point x="64" y="499"/>
    </contour>
    <contour>
      <point x="638" y="344" type="curve"/>
      <point x="615" y="250"/>
      <point x="548" y="205"/>
      <point x="451" y="205" type="curve"/>
      <point x="378" y="205"/>
      <point x="317" y="220"/>
      <point x="317" y="284" type="curve"/>
      <point x="317" y="366"/>
      <point x="396" y="382"/>
      <point x="489" y="382" type="curve"/>
      <point x="489" y="422"/>
      <point x="489" y="451"/>
      <point x="489" y="491" type="curve"/>
      <point x="306" y="491"/>
      <point x="159" y="440"/>
      <point x="159" y="279" type="curve"/>
      <point x="159" y="136"/>
      <point x="288" y="89"/>
      <point x="449" y="89" type="curve"/>
      <point x="593" y="89"/>
      <point x="688" y="158"/>
      <point x="740" y="293" type="curve"/>
      <point x="702" y="311"/>
      <point x="676" y="326"/>
    </contour>
  </outline>
</glyph>
<glyph name="dvDA_short" format="1">
  <advance width="500"/>
  <outline>
    <contour>
      <point x="418" y="665" type="line"/>
      <point x="418" y="626"/>
      <point x="418" y="590"/>
      <point x="418" y="552" type="curve"/>
      <point x="577" y="436" type="line"/>
      <point x="577" y="513"/>
      <point x="577" y="587"/>
      <point x="577" y="665" type="curve"/>
    </contour>
    <contour>
      <point x="483" y="321" type="line"/>
      <point x="458" y="261"/>
      <point x="425" y="240"/>
      <point x="368" y="240" type="curve"/>
      <point x="302" y="240"/>
      <point x="264" y="277"/>
      <point x="264" y="335" type="curve" smooth="yes"/>
      <point x="264" y="411"/>
      <point x="322" y="436"/>
      <point x="394" y="436" type="curve"/>
      <point x="577" y="436" type="line"/>
      <point x="418" y="552" type="line"/>
      <point x="410" y="552"/>
      <point x="402" y="552"/>
      <point x="394" y="552" type="curve"/>
      <point x="230" y="552"/>
      <point x="105" y="489"/>
      <point x="105" y="332" type="curve"/>
      <point x="105" y="194"/>
      <point x="217" y="122"/>
      <point x="374" y="122" type="curve"/>
      <point x="508" y="122"/>
      <point x="621" y="201"/>
      <point x="621" y="298" type="curve"/>
    </contour>
  </outline>
</glyph>
<glyph name="dvDDA_base" format="1">
  <advance width="500"/>
  <outline>
    <contour>
      <point x="77" y="81" type="line"/>
      <point x="139" y="26"/>
      <point x="231" y="-5"/>
      <point x="359" y="-5" type="curve"/>
      <point x="504" y="-5"/>
      <point x="613" y="57"/>
      <point x="613" y="191" type="curve"/>
      <point x="611" y="305"/>
      <point x="519" y="356"/>
      <point x="395" y="356" type="curve"/>
      <point x="351" y="356"/>
      <point x="320" y="348"/>
      <point x="280" y="326" type="curve"/>
      <point x="273" y="277"/>
      <point x="268" y="242"/>
      <point x="261" y="192" type="curve"/>
      <point x="301" y="217"/>
      <point x="331" y="234"/>
      <point x="378" y="234" type="curve"/>
      <point x="420" y="234"/>
      <point x="454" y="219"/>
      <point x="454" y="181" type="curve"/>
      <point x="454" y="133"/>
      <point x="412" y="116"/>
      <point x="358" y="116" type="curve"/>
      <point x="282" y="116"/>
      <point x="231" y="128"/>
      <point x="171" y="172" type="curve"/>
    </contour>
    <contour>
      <point x="382" y="539" type="curve"/>
      <point x="363" y="539"/>
      <point x="350" y="539"/>
      <point x="332" y="539" type="curve"/>
      <point x="194" y="539"/>
      <point x="80" y="505"/>
      <point x="80" y="378" type="curve"/>
      <point x="80" y="275"/>
      <point x="161" y="234"/>
      <point x="261" y="192" type="curve"/>
      <point x="268" y="242"/>
      <point x="273" y="277"/>
      <point x="280" y="326" type="curve"/>
      <point x="258" y="341"/>
      <point x="238" y="352"/>
      <point x="238" y="378" type="curve"/>
      <point x="238" y="427"/>
      <point x="290" y="423"/>
      <point x="346" y="423" type="curve"/>
      <point x="417" y="423"/>
      <point x="469" y="423"/>
      <point x="540" y="423" type="curve"/>
      <point x="482" y="465"/>
      <point x="440" y="496"/>
    </contour>
    <contour>
      <point x="540" y="423" type="curve"/>
      <point x="540" y="503"/>
      <point x="540" y="581"/>
      <point x="540" y="661" type="curve"/>
      <point x="391" y="661"/>
      <point x="531" y="661"/>
      <point x="382" y="661" type="curve"/>
      <point x="382" y="620"/>
      <point x="382" y="579"/>
      <point x="382" y="539" type="curve"/>
      <point x="531" y="430"/>
      <point x="391" y="532"/>
    </contour>
  </outline>
</glyph>
<glyph name="dvDDH_DDHA" format="1">
  <advance width="764"/>
  <outline>
    <contour>
      <point x="511" y="-341" type="move" name="blwm.virama"/>
    </contour>
    <contour>
      <point x="565" y="721" type="move" name="abvm.e"/>
    </contour>
    <contour>
      <point x="574" y="-413" type="move" name="blwm.u"/>
    </contour>
    <component base="dvDDHA_short" yOffset="-4"/>
    <component base="dvTopbar" xScale="1.14351458336" xOffset="3"/>
    <component base="dvDDHA_open" xOffset="1" yOffset="3"/>
    <component base="dvStem_short" yScale="1.07340653752" xOffset="208" yOffset="-52"/>
  </outline>
</glyph>
<glyph name="dvDD_VA" format="1">
  <advance width="686"/>
  <outline>
    <contour>
      <point x="605" y="-291" type="move" name="blwm.virama"/>
    </contour>
    <contour>
      <point x="554" y="719" type="move" name="abvm.e"/>
    </contour>
    <contour>
      <point x="605" y="-297" type="move" name="blwm.u"/>
    </contour>
    <component base="dvTopbar" xScale="1.04362965032" xOffset="1"/>
    <component base="dvDD_short" xOffset="12" yOffset="-1"/>
    <component base="dvStroke_down" yScale="1.97005537461" xOffset="-17" yOffset="-105"/>
    <component base="dvVA_open" xOffset="-578" yOffset="8"/>
    <component base="dvStem_short" yScale="0.815370148701" xOffset="202" yOffset="61"/>
  </outline>
</glyph>
<glyph name="dvDD_low" format="1">
  <advance width="500"/>
  <outline>
    <contour>
      <point x="295" y="207" type="curve"/>
      <point x="334" y="231"/>
      <point x="368" y="251"/>
      <point x="415" y="251" type="curve"/>
      <point x="458" y="251"/>
      <point x="493" y="237"/>
      <point x="493" y="202" type="curve"/>
      <point x="493" y="155"/>
      <point x="439" y="146"/>
      <point x="381" y="146" type="curve"/>
      <point x="314" y="146"/>
      <point x="260" y="162"/>
      <point x="205" y="200" type="curve"/>
      <point x="199" y="191"/>
      <point x="122" y="117"/>
      <point x="115" y="108" type="curve"/>
      <point x="187" y="56"/>
      <point x="275" y="25"/>
      <point x="379" y="25" type="curve"/>
      <point x="528" y="25"/>
      <point x="651" y="73"/>
      <point x="651" y="211" type="curve"/>
      <point x="649" y="320"/>
      <point x="551" y="371"/>
      <point x="430" y="371" type="curve"/>
      <point x="386" y="371"/>
      <point x="353" y="362"/>
      <point x="315" y="341" type="curve"/>
      <point x="307" y="285"/>
      <point x="303" y="263"/>
    </contour>
    <contour>
      <point x="334" y="540" type="line"/>
      <point x="200" y="540"/>
      <point x="83" y="502"/>
      <point x="83" y="383" type="curve"/>
      <point x="83" y="273"/>
      <point x="178" y="221"/>
      <point x="295" y="207" type="curve"/>
      <point x="303" y="263"/>
      <point x="307" y="285"/>
      <point x="315" y="341" type="curve"/>
      <point x="277" y="345"/>
      <point x="241" y="349"/>
      <point x="241" y="383" type="curve"/>
      <point x="241" y="425"/>
      <point x="295" y="425"/>
      <point x="349" y="425" type="curve"/>
    </contour>
  </outline>
</glyph>
<glyph name="dvDHA_base" format="1">
  <advance width="500"/>
  <outline>
    <contour>
      <point x="600" y="377" type="curve"/>
      <point x="551" y="280"/>
      <point x="490" y="197"/>
      <point x="376" y="197" type="curve"/>
      <point x="305" y="197"/>
      <point x="247" y="212"/>
      <point x="247" y="273" type="curve"/>
      <point x="248" y="361"/>
      <point x="342" y="356"/>
      <point x="444" y="356" type="curve"/>
      <point x="444" y="399"/>
      <point x="444" y="413"/>
      <point x="444" y="456" type="curve"/>
      <point x="254" y="456"/>
      <point x="90" y="428"/>
      <point x="89" y="264" type="curve"/>
      <point x="89" y="130"/>
      <point x="209" y="81"/>
      <point x="359" y="81" type="curve"/>
      <point x="525" y="81"/>
      <point x="622" y="164"/>
      <point x="707" y="326" type="curve"/>
      <point x="662" y="347"/>
      <point x="645" y="356"/>
    </contour>
    <contour>
      <point x="490" y="580" type="line"/>
      <point x="490" y="675"/>
      <point x="408" y="727"/>
      <point x="290" y="727" type="curve"/>
      <point x="167" y="727"/>
      <point x="79" y="668"/>
      <point x="79" y="552" type="curve"/>
      <point x="79" y="388"/>
      <point x="253" y="385"/>
      <point x="444" y="385" type="curve"/>
      <point x="444" y="425"/>
      <point x="444" y="437"/>
      <point x="444" y="476" type="curve"/>
      <point x="333" y="476"/>
      <point x="229" y="457"/>
      <point x="230" y="552" type="curve"/>
      <point x="230" y="587"/>
      <point x="253" y="611"/>
      <point x="290" y="611" type="curve"/>
      <point x="328" y="611"/>
      <point x="352" y="588"/>
      <point x="352" y="551" type="curve"/>
    </contour>
  </outline>
</glyph>
<glyph name="dvDH_open" format="1">
  <advance width="500"/>
  <outline>
    <contour>
      <point x="513" y="191" type="curve"/>
      <point x="475" y="98"/>
      <point x="427" y="29"/>
      <point x="329" y="29" type="curve"/>
      <point x="264" y="29"/>
      <point x="211" y="45"/>
      <point x="211" y="102" type="curve"/>
      <point x="212" y="158"/>
      <point x="260" y="180"/>
      <point x="321" y="180" type="curve"/>
      <point x="321" y="217"/>
      <point x="321" y="243"/>
      <point x="321" y="279" type="curve"/>
      <point x="171" y="279"/>
      <point x="54" y="223"/>
      <point x="53" y="88" type="curve"/>
      <point x="53" y="-51"/>
      <point x="180" y="-88"/>
      <point x="331" y="-88" type="curve"/>
      <point x="484" y="-88"/>
      <point x="585" y="29"/>
      <point x="619" y="141" type="curve"/>
      <point x="580" y="159"/>
      <point x="552" y="173"/>
    </contour>
    <contour>
      <point x="296" y="551" type="line"/>
      <point x="155" y="551"/>
      <point x="43" y="503"/>
      <point x="43" y="376" type="curve"/>
      <point x="43" y="243"/>
      <point x="169" y="209"/>
      <point x="321" y="209" type="curve"/>
      <point x="321" y="242"/>
      <point x="321" y="266"/>
      <point x="321" y="299" type="curve"/>
      <point x="253" y="299"/>
      <point x="194" y="308"/>
      <point x="194" y="366" type="curve"/>
      <point x="194" y="416"/>
      <point x="240" y="435"/>
      <point x="296" y="435" type="curve"/>
    </contour>
  </outline>
</glyph>
<glyph name="dvDoublevirama" format="1">
  <advance width="500"/>
  <outline>
    <contour>
      <point x="414" y="-84" type="line"/>
      <point x="559" y="72" type="line"/>
      <point x="388" y="72" type="line"/>
      <point x="231" y="-84" type="line"/>
    </contour>
    <contour>
      <point x="792" y="-84" type="line"/>
      <point x="635" y="72" type="line"/>
      <point x="464" y="72" type="line"/>
      <point x="609" y="-84" type="line"/>
    </contour>
  </outline>
</glyph>
<glyph name="dvGH_base" format="1">
  <advance width="500"/>
  <outline>
    <contour>
      <point x="593" y="332" type="curve"/>
      <point x="541" y="259"/>
      <point x="487" y="217"/>
      <point x="398" y="217" type="curve"/>
      <point x="321" y="217"/>
      <point x="256" y="226"/>
      <point x="256" y="293" type="curve"/>
      <point x="256" y="371"/>
      <point x="340" y="368"/>
      <point x="430" y="368" type="curve"/>
      <point x="430" y="405"/>
      <point x="430" y="430"/>
      <point x="430" y="467" type="curve"/>
      <point x="252" y="467"/>
      <point x="98" y="441"/>
      <point x="98" y="287" type="curve"/>
      <point x="98" y="144"/>
      <point x="230" y="100"/>
      <point x="392" y="100" type="curve"/>
      <point x="516" y="100"/>
      <point x="598" y="154"/>
      <point x="670" y="256" type="curve"/>
      <point x="642" y="284"/>
      <point x="621" y="304"/>
    </contour>
    <contour>
      <point x="272" y="696" type="curve"/>
      <point x="172" y="682"/>
      <point x="104" y="630"/>
      <point x="105" y="533" type="curve"/>
      <point x="105" y="384"/>
      <point x="257" y="370"/>
      <point x="430" y="370" type="curve"/>
      <point x="430" y="408"/>
      <point x="430" y="435"/>
      <point x="430" y="474" type="curve"/>
      <point x="344" y="474"/>
      <point x="264" y="464"/>
      <point x="264" y="539" type="curve"/>
      <point x="263" y="594"/>
      <point x="313" y="609"/>
      <point x="373" y="620" type="curve"/>
      <point x="335" y="648"/>
      <point x="309" y="668"/>
    </contour>
  </outline>
</glyph>
<glyph name="dvG_base" format="1">
  <advance width="500"/>
  <outline>
    <contour>
      <point x="172" y="629" type="curve"/>
      <point x="274" y="590"/>
      <point x="353" y="524"/>
      <point x="353" y="415" type="curve"/>
      <point x="353" y="352"/>
      <point x="327" y="300"/>
      <point x="270" y="300" type="curve"/>
      <point x="217" y="300"/>
      <point x="182" y="331"/>
      <point x="151" y="373" type="curve"/>
      <point x="56" y="285" type="line"/>
      <point x="109" y="203"/>
      <point x="189" y="172"/>
      <point x="287" y="172" type="curve"/>
      <point x="422" y="172"/>
      <point x="504" y="275"/>
      <point x="504" y="416" type="curve"/>
      <point x="502" y="550"/>
      <point x="420" y="642"/>
      <point x="293" y="693" type="curve"/>
      <point x="250" y="670"/>
      <point x="215" y="652"/>
    </contour>
  </outline>
</glyph>
<glyph name="dvI_base" format="1">
  <advance width="500"/>
  <outline>
    <contour>
      <point x="525" y="423" type="curve"/>
      <point x="525" y="503"/>
      <point x="525" y="581"/>
      <point x="525" y="661" type="curve"/>
      <point x="376" y="661"/>
      <point x="516" y="661"/>
      <point x="366" y="661" type="curve"/>
      <point x="366" y="620"/>
      <point x="366" y="579"/>
      <point x="366" y="539" type="curve"/>
      <point x="516" y="430"/>
      <point x="376" y="532"/>
    </contour>
    <contour>
      <point x="366" y="539" type="curve"/>
      <point x="348" y="539"/>
      <point x="335" y="539"/>
      <point x="316" y="539" type="curve"/>
      <point x="179" y="539"/>
      <point x="65" y="505"/>
      <point x="65" y="378" type="curve"/>
      <point x="65" y="275"/>
      <point x="146" y="235"/>
      <point x="245" y="193" type="curve"/>
      <point x="252" y="243"/>
      <point x="258" y="278"/>
      <point x="265" y="327" type="curve"/>
      <point x="242" y="342"/>
      <point x="222" y="352"/>
      <point x="222" y="378" type="curve"/>
      <point x="222" y="427"/>
      <point x="275" y="423"/>
      <point x="331" y="423" type="curve"/>
      <point x="402" y="423"/>
      <point x="453" y="423"/>
      <point x="525" y="423" type="curve"/>
      <point x="466" y="465"/>
      <point x="425" y="496"/>
    </contour>
    <contour>
      <point x="62" y="81" type="line"/>
      <point x="135" y="28"/>
      <point x="225" y="-5"/>
      <point x="334" y="-5" type="curve"/>
      <point x="479" y="-5"/>
      <point x="598" y="57"/>
      <point x="598" y="191" type="curve"/>
      <point x="596" y="305"/>
      <point x="504" y="358"/>
      <point x="381" y="358" type="curve"/>
      <point x="336" y="358"/>
      <point x="305" y="350"/>
      <point x="265" y="327" type="curve"/>
      <point x="258" y="278"/>
      <point x="252" y="243"/>
      <point x="245" y="193" type="curve"/>
      <point x="285" y="218"/>
      <point x="316" y="235"/>
      <point x="363" y="235" type="curve"/>
      <point x="406" y="235"/>
      <point x="439" y="220"/>
      <point x="439" y="182" type="curve"/>
      <point x="439" y="134"/>
      <point x="387" y="116"/>
      <point x="333" y="116" type="curve"/>
      <point x="272" y="116"/>
      <point x="207" y="134"/>
      <point x="147" y="167" type="curve"/>
    </contour>
  </outline>
</glyph>
<glyph name="dvJ_BA" format="1">
  <advance width="1430"/>
  <outline>
    <contour>
      <point x="52" y="379" type="line"/>
      <point x="86" y="199"/>
      <point x="189" y="84"/>
      <point x="368" y="84" type="curve"/>
      <point x="518" y="84"/>
      <point x="634" y="140"/>
      <point x="634" y="277" type="curve"/>
      <point x="634" y="430"/>
      <point x="501" y="490"/>
      <point x="331" y="490" type="curve"/>
      <point x="331" y="449"/>
      <point x="331" y="420"/>
      <point x="331" y="379" type="curve"/>
      <point x="412" y="379"/>
      <point x="476" y="354"/>
      <point x="476" y="281" type="curve"/>
      <point x="476" y="226"/>
      <point x="432" y="201"/>
      <point x="373" y="201" type="curve"/>
      <point x="255" y="201"/>
      <point x="194" y="292"/>
      <point x="177" y="419" type="curve"/>
    </contour>
    <contour>
      <point x="868" y="507" type="curve"/>
      <point x="706" y="507"/>
      <point x="493" y="507"/>
      <point x="331" y="507" type="curve"/>
      <point x="331" y="387"/>
      <point x="331" y="500"/>
      <point x="331" y="380" type="curve"/>
      <point x="494" y="380"/>
      <point x="706" y="380"/>
      <point x="868" y="380" type="curve"/>
      <point x="868" y="500"/>
      <point x="868" y="387"/>
    </contour>
    <contour>
      <point x="-20" y="595" type="line"/>
      <point x="809" y="595" type="line"/>
      <point x="809" y="722" type="line"/>
      <point x="-20" y="722" type="line"/>
    </contour>
    <component base="dvBA" xOffset="663"/>
  </outline>
</glyph>
<glyph name="dvJ_DA" format="1">
  <advance width="1332"/>
  <outline>
    <contour>
      <point x="1272" y="-76" type="move" name="blwm.virama"/>
    </contour>
    <contour>
      <point x="1242" y="717" type="move" name="abvm.e"/>
    </contour>
    <contour>
      <point x="1264" y="-151" type="move" name="blwm.u"/>
    </contour>
    <component base="dvTopbar"/>
    <component base="dvDA" xOffset="669"/>
    <component base="dvJ_base" xOffset="12" yOffset="-28"/>
  </outline>
</glyph>
<glyph name="dvKH_half" format="1">
  <advance width="500"/>
  <outline>
    <contour>
      <point x="863" y="326" type="curve"/>
      <point x="836" y="285"/>
      <point x="792" y="266"/>
      <point x="734" y="266" type="curve"/>
      <point x="678" y="266"/>
      <point x="640" y="288"/>
      <point x="640" y="323" type="curve"/>
      <point x="640" y="358"/>
      <point x="683" y="377"/>
      <point x="742" y="377" type="curve"/>
      <point x="796" y="377"/>
      <point x="834" y="357"/>
      <point x="866" y="324" type="curve"/>
      <point x="894" y="341"/>
      <point x="917" y="354"/>
      <point x="945" y="371" type="curve"/>
      <point x="895" y="446"/>
      <point x="828" y="492"/>
      <point x="734" y="492" type="curve"/>
      <point x="608" y="492"/>
      <point x="508" y="439"/>
      <point x="508" y="328" type="curve"/>
      <point x="508" y="214"/>
      <point x="600" y="149"/>
      <point x="722" y="149" type="curve"/>
      <point x="828" y="149"/>
      <point x="897" y="207"/>
      <point x="954" y="289" type="curve"/>
      <point x="921" y="302"/>
      <point x="895" y="312"/>
    </contour>
  </outline>
</glyph>
<glyph name="dvK_PHA" format="1">
  <advance width="1919"/>
  <outline>
    <contour>
      <point x="1491" y="0" type="move" name="blwm.virama"/>
    </contour>
    <contour>
      <point x="1491" y="716" type="move" name="abvm.e"/>
    </contour>
    <contour>
      <point x="1491" y="0" type="move" name="blwm.u"/>
    </contour>
    <component base="dvTopbar" xOffset="1257"/>
    <component base="dvKA_right" xOffset="798" yOffset="-2"/>
    <component base="dvK"/>
    <component base="dvPA" xOffset="790"/>
  </outline>
</glyph>
<glyph name="dvK_SS" format="1">
  <advance width="646"/>
  <outline>
    <contour>
      <point x="435" y="431" type="line"/>
      <point x="347" y="431"/>
      <point x="278" y="448"/>
      <point x="272" y="512" type="curve"/>
      <point x="268" y="558"/>
      <point x="305" y="579"/>
      <point x="350" y="584" type="curve"/>
      <point x="402" y="590"/>
      <point x="449" y="579"/>
      <point x="455" y="537" type="curve"/>
      <point x="464" y="473"/>
      <point x="422" y="463"/>
      <point x="371" y="458" type="curve"/>
      <point x="245" y="429"/>
      <point x="118" y="402"/>
      <point x="108" y="280" type="curve"/>
      <point x="97" y="147"/>
      <point x="198" y="92"/>
      <point x="326" y="82" type="curve"/>
      <point x="456" y="73"/>
      <point x="571" y="119"/>
      <point x="590" y="233" type="curve"/>
      <point x="473" y="264" type="line"/>
      <point x="460" y="208"/>
      <point x="404" y="185"/>
      <point x="348" y="190" type="curve"/>
      <point x="297" y="193"/>
      <point x="249" y="205"/>
      <point x="252" y="276" type="curve"/>
      <point x="255" y="344"/>
      <point x="338" y="347"/>
      <point x="416" y="369" type="curve"/>
      <point x="514" y="394"/>
      <point x="597" y="435"/>
      <point x="594" y="546" type="curve"/>
      <point x="584" y="656"/>
      <point x="473" y="703"/>
      <point x="347" y="692" type="curve"/>
      <point x="217" y="680"/>
      <point x="116" y="624"/>
      <point x="127" y="509" type="curve"/>
      <point x="139" y="416"/>
      <point x="208" y="368"/>
      <point x="300" y="351" type="curve"/>
    </contour>
    <component base="dvStroke_down" yScale="1.27023597605" xOffset="-10" yOffset="61"/>
  </outline>
</glyph>
<glyph name="dvK_right" format="1">
  <advance width="500"/>
  <outline>
    <contour>
      <point x="1058" y="317" type="line"/>
      <point x="1047" y="455"/>
      <point x="949" y="521"/>
      <point x="802" y="521" type="curve"/>
      <point x="670" y="521"/>
      <point x="576" y="466"/>
      <point x="532" y="342" type="curve"/>
      <point x="570" y="333"/>
      <point x="596" y="328"/>
      <point x="633" y="319" type="curve"/>
      <point x="676" y="384"/>
      <point x="724" y="406"/>
      <point x="801" y="406" type="curve"/>
      <point x="869" y="406"/>
      <point x="909" y="375"/>
      <point x="919" y="317" type="curve"/>
    </contour>
  </outline>
</glyph>
<glyph name="dvKx_KxA" format="1">
  <advance width="1951"/>
  <outline>
    <contour>
      <point x="1481" y="0" type="move" name="blwm.virama"/>
    </contour>
    <contour>
      <point x="1481" y="722" type="move" name="abvm.e"/>
    </contour>
    <contour>
      <point x="1481" y="0" type="move" name="blwm.u"/>
    </contour>
    <component base="dvKA" xOffset="823"/>
    <component base="dvAnusvara" xOffset="570" yOffset="-1057"/>
    <component base="dvAnusvara" xOffset="1347" yOffset="-1057"/>
    <component base="dvK"/>
  </outline>
</glyph>
<glyph name="dvKx_PHxA" format="1">
  <advance width="1898"/>
  <outline>
    <contour>
      <point x="1473" y="-43" type="move" name="blwm.virama"/>
    </contour>
    <contour>
      <point x="1479" y="717" type="move" name="abvm.e"/>
    </contour>
    <contour>
      <point x="1527" y="-113" type="move" name="blwm.u"/>
    </contour>
    <component base="dvPHA" xOffset="783"/>
    <component base="dvAnusvara" xOffset="540" yOffset="-1056"/>
    <component base="dvAnusvara" xOffset="1273" yOffset="-957"/>
    <component base="dvK"/>
  </outline>
</glyph>
<glyph name="dvKx_RA" format="1">
  <advance width="1128"/>
  <outline>
    <contour>
      <point x="666" y="-27" type="move" name="blwm.virama"/>
    </contour>
    <contour>
      <point x="666" y="722" type="move" name="abvm.e"/>
    </contour>
    <contour>
      <point x="666" y="-93" type="move" name="blwm.u"/>
    </contour>
    <component base="dvKA"/>
    <component base="dvAnusvara" xOffset="212" yOffset="-858"/>
    <component base="dvRaker" xOffset="154" yOffset="-106"/>
  </outline>
</glyph>
<glyph name="dvLA_base" format="1">
  <advance width="500"/>
  <outline>
    <contour>
      <point x="378" y="122" type="curve"/>
      <point x="289" y="162"/>
      <point x="220" y="205"/>
      <point x="220" y="299" type="curve"/>
      <point x="220" y="366"/>
      <point x="266" y="404"/>
      <point x="336" y="404" type="curve"/>
      <point x="407" y="404"/>
      <point x="455" y="387"/>
      <point x="512" y="346" type="curve"/>
      <point x="584" y="438" type="curve"/>
      <point x="505" y="499"/>
      <point x="436" y="520"/>
      <point x="336" y="520" type="curve"/>
      <point x="177" y="520"/>
      <point x="63" y="443"/>
      <point x="63" y="293" type="curve"/>
      <point x="63" y="151"/>
      <point x="163" y="82"/>
      <point x="297" y="23" type="curve"/>
    </contour>
    <contour>
      <point x="606" y="228" type="curve"/>
      <point x="577" y="322"/>
      <point x="625" y="402"/>
      <point x="719" y="402" type="curve"/>
      <point x="797" y="402"/>
      <point x="853" y="368"/>
      <point x="853" y="296" type="curve"/>
      <point x="853" y="231"/>
      <point x="810" y="198"/>
      <point x="757" y="171" type="curve"/>
      <point x="830" y="72" type="curve"/>
      <point x="930" y="118"/>
      <point x="1002" y="174"/>
      <point x="1002" y="294" type="curve"/>
      <point x="1002" y="443"/>
      <point x="881" y="518"/>
      <point x="714" y="518" type="curve"/>
      <point x="525" y="518"/>
      <point x="413" y="380"/>
      <point x="463" y="207" type="curve"/>
    </contour>
  </outline>
</glyph>
<glyph name="dvLA_open" format="1">
  <advance width="500"/>
  <outline>
    <contour>
      <point x="809" y="122" type="curve"/>
      <point x="721" y="162"/>
      <point x="651" y="205"/>
      <point x="651" y="299" type="curve"/>
      <point x="651" y="366"/>
      <point x="697" y="404"/>
      <point x="766" y="404" type="curve"/>
      <point x="830" y="404"/>
      <point x="872" y="384"/>
      <point x="925" y="346" type="curve"/>
      <point x="997" y="438" type="curve"/>
      <point x="918" y="499"/>
      <point x="849" y="520"/>
      <point x="749" y="520" type="curve"/>
      <point x="601" y="520"/>
      <point x="494" y="443"/>
      <point x="494" y="293" type="curve"/>
      <point x="494" y="151"/>
      <point x="595" y="82"/>
      <point x="728" y="23" type="curve"/>
    </contour>
    <contour>
      <point x="1376" y="294" type="line"/>
      <point x="1376" y="443"/>
      <point x="1271" y="518"/>
      <point x="1127" y="518" type="curve"/>
      <point x="939" y="518"/>
      <point x="826" y="380"/>
      <point x="876" y="207" type="curve"/>
      <point x="1019" y="228" type="curve"/>
      <point x="990" y="322"/>
      <point x="1039" y="402"/>
      <point x="1132" y="402" type="curve"/>
      <point x="1211" y="402"/>
      <point x="1269" y="367"/>
      <point x="1269" y="294" type="curve"/>
    </contour>
  </outline>
</glyph>
<glyph name="dvLL" format="1">
  <advance width="1078"/>
  <outline>
    <contour>
      <point x="602" y="349" type="curve"/>
      <point x="522" y="434"/>
      <point x="451" y="489"/>
      <point x="335" y="489" type="curve"/>
      <point x="173" y="489"/>
      <point x="56" y="409"/>
      <point x="56" y="257" type="curve"/>
      <point x="56" y="113"/>
      <point x="156" y="31"/>
      <point x="305" y="31" type="curve"/>
      <point x="451" y="31"/>
      <point x="541" y="108"/>
      <point x="606" y="241" type="curve"/>
      <point x="639" y="307"/>
      <point x="667" y="365"/>
      <point x="736" y="365" type="curve"/>
      <point x="807" y="365"/>
      <point x="855" y="326"/>
      <point x="855" y="258" type="curve"/>
      <point x="855" y="186"/>
      <point x="808" y="143"/>
      <point x="735" y="143" type="curve"/>
      <point x="649" y="143"/>
      <point x="601" y="192"/>
      <point x="540" y="254" type="curve"/>
      <point x="508" y="220"/>
      <point x="486" y="195"/>
      <point x="453" y="161" type="curve"/>
      <point x="534" y="78"/>
      <point x="607" y="27"/>
      <point x="724" y="27" type="curve"/>
      <point x="891" y="27"/>
      <point x="1014" y="103"/>
      <point x="1014" y="258" type="curve"/>
      <point x="1014" y="405"/>
      <point x="906" y="487"/>
      <point x="751" y="487" type="curve"/>
      <point x="605" y="487"/>
      <point x="516" y="408"/>
      <point x="450" y="276" type="curve"/>
      <point x="414" y="206"/>
      <point x="382" y="147"/>
      <point x="308" y="147" type="curve"/>
      <point x="244" y="147"/>
      <point x="213" y="194"/>
      <point x="213" y="259" type="curve"/>
      <point x="213" y="331"/>
      <point x="258" y="373"/>
      <point x="327" y="373" type="curve"/>
      <point x="404" y="373"/>
      <point x="448" y="329"/>
      <point x="502" y="274" type="curve"/>
      <point x="539" y="302"/>
      <point x="564" y="321"/>
    </contour>
    <component base="dvTopbar" xScale="1.58522358919" xOffset="12"/>
  </outline>
</glyph>
<glyph name="dvL_DA" format="1">
  <advance width="1424"/>
  <outline>
    <contour>
      <point x="1363" y="-87" type="move" name="blwm.virama"/>
    </contour>
    <contour>
      <point x="1328" y="718" type="move" name="abvm.e"/>
    </contour>
    <contour>
      <point x="1363" y="-168" type="move" name="blwm.u"/>
    </contour>
    <component base="dvTopbar" xScale="1.16240655408" xOffset="3"/>
    <component base="dvLA_open" xOffset="-396" yOffset="-8"/>
    <component base="dvDA" xOffset="761"/>
  </outline>
</glyph>
<glyph name="dvL_KA" format="1">
  <advance width="1887"/>
  <outline>
    <contour>
      <point x="1425" y="-31" type="move" name="blwm.virama"/>
    </contour>
    <contour>
      <point x="1425" y="712" type="move" name="abvm.e"/>
    </contour>
    <contour>
      <point x="1425" y="0" type="move" name="blwm.u"/>
    </contour>
    <component base="dvTopbar" xScale="1.27613829878" xOffset="6"/>
    <component base="dvLA_open" xOffset="-392" yOffset="-13"/>
    <component base="dvKA" xOffset="759"/>
  </outline>
</glyph>
<glyph name="dvL_V_DDA" format="1">
  <advance width="1918"/>
  <outline>
    <contour>
      <point x="1709" y="-60" type="move" name="blwm.virama"/>
    </contour>
    <contour>
      <point x="1792" y="721" type="move" name="abvm.e"/>
    </contour>
    <contour>
      <point x="1738" y="-136" type="move" name="blwm.u"/>
    </contour>
    <component base="dvTopbar" xScale="1.15853257488" xOffset="3"/>
    <component base="dvLA_open" xOffset="-414" yOffset="-13"/>
    <component base="dvDDA" xOffset="1253"/>
    <component base="dvV" xOffset="759"/>
  </outline>
</glyph>
<glyph name="dvN_DA" format="1">
  <advance width="1250"/>
  <outline>
    <contour>
      <point x="1192" y="-87" type="move" name="blwm.virama"/>
    </contour>
    <contour>
      <point x="1161" y="718" type="move" name="abvm.e"/>
    </contour>
    <contour>
      <point x="1192" y="-168" type="move" name="blwm.u"/>
    </contour>
    <component base="dvNA_base" xOffset="51" yOffset="-7"/>
    <component base="dvDA" xOffset="587"/>
    <component base="dvTopbar"/>
  </outline>
</glyph>
<glyph name="dvN_DDA" format="1">
  <advance width="1228"/>
  <outline>
    <contour>
      <point x="1031" y="-65" type="move" name="blwm.virama"/>
    </contour>
    <contour>
      <point x="1108" y="720" type="move" name="abvm.e"/>
    </contour>
    <contour>
      <point x="1050" y="-153" type="move" name="blwm.u"/>
    </contour>
    <component base="dvNA_base" xOffset="10" yOffset="9"/>
    <component base="dvDDA" xOffset="564"/>
    <component base="dvTopbar"/>
  </outline>
</glyph>
<glyph name="dvNine" format="1">
  <advance width="777"/>
  <outline>
    <contour>
      <point x="590" y="497" type="curve"/>
      <point x="542" y="416"/>
      <point x="476" y="391"/>
      <point x="381" y="391" type="curve"/>
      <point x="286" y="391"/>
      <point x="213" y="416"/>
      <point x="213" y="501" type="curve"/>
      <point x="213" y="576"/>
      <point x="282" y="596"/>
      <point x="367" y="596" type="curve"/>
      <point x="480" y="596"/>
      <point x="567" y="563"/>
      <point x="567" y="461" type="curve"/>
      <point x="567" y="229"/>
      <point x="350" y="173"/>
      <point x="93" y="117" type="curve"/>
      <point x="129" y="-6"/>
      <point x="92" y="117"/>
      <point x="128" y="-6" type="curve"/>
      <point x="445" y="45"/>
      <point x="719" y="156"/>
      <point x="719" y="467" type="curve"/>
      <point x="719" y="651"/>
      <point x="573" y="734"/>
      <point x="374" y="734" type="curve"/>
      <point x="190" y="734"/>
      <point x="55" y="662"/>
      <point x="55" y="495" type="curve"/>
      <point x="55" y="333"/>
      <point x="189" y="268"/>
      <point x="367" y="268" type="curve"/>
      <point x="517" y="268"/>
      <point x="606" y="329"/>
      <point x="666" y="457" type="curve"/>
      <point x="590" y="497"/>
      <point x="666" y="457"/>
    </contour>
  </outline>
</glyph>
<glyph name="dvPH_TTA" format="1">
  <advance width="1611"/>
  <outline>
    <contour>
      <point x="1406" y="-18" type="move" name="blwm.virama"/>
    </contour>
    <contour>
      <point x="1386" y="719" type="move" name="abvm.e"/>
    </contour>
    <contour>
      <point x="1430" y="-93" type="move" name="blwm.u"/>
    </contour>
    <component base="dvTTA" xOffset="873"/>
    <component base="dvPH" xOffset="-1"/>
  </outline>
</glyph>
<glyph name="dvP_PHA" format="1">
  <advance width="1550"/>
  <outline>
    <contour>
      <point x="1127" y="0" type="move" name="blwm.virama"/>
    </contour>
    <contour>
      <point x="1127" y="722" type="move" name="abvm.e"/>
    </contour>
    <contour>
      <point x="1127" y="0" type="move" name="blwm.u"/>
    </contour>
    <component base="dvPHA" xOffset="430"/>
    <component base="dvP"/>
  </outline>
</glyph>
<glyph name="dvP_base" format="1">
  <advance width="500"/>
  <outline>
    <contour>
      <point x="558" y="407" type="curve"/>
      <point x="520" y="332"/>
      <point x="466" y="291"/>
      <point x="383" y="291" type="curve"/>
      <point x="311" y="291"/>
      <point x="263" y="330"/>
      <point x="263" y="399" type="curve"/>
      <point x="263" y="484"/>
      <point x="263" y="545"/>
      <point x="263" y="631" type="curve"/>
      <point x="204" y="631"/>
      <point x="163" y="631"/>
      <point x="104" y="631" type="curve"/>
      <point x="104" y="551"/>
      <point x="104" y="495"/>
      <point x="104" y="416" type="curve"/>
      <point x="104" y="260"/>
      <point x="213" y="170"/>
      <point x="373" y="170" type="curve"/>
      <point x="511" y="170"/>
      <point x="597" y="239"/>
      <point x="666" y="360" type="curve"/>
      <point x="627" y="377"/>
      <point x="598" y="390"/>
    </contour>
  </outline>
</glyph>
<glyph name="dvRA_mUU" format="1">
  <advance width="889"/>
  <outline>
    <contour>
      <point x="872" y="198" type="line"/>
      <point x="872" y="384"/>
      <point x="732" y="451"/>
      <point x="570" y="451" type="curve"/>
      <point x="495" y="451"/>
      <point x="414" y="451"/>
      <point x="339" y="451" type="curve"/>
      <point x="339" y="402"/>
      <point x="339" y="384"/>
      <point x="339" y="335" type="curve"/>
      <point x="412" y="335"/>
      <point x="491" y="335"/>
      <point x="563" y="335" type="curve"/>
      <point x="642" y="335"/>
      <point x="713" y="314"/>
      <point x="713" y="198" type="curve"/>
    </contour>
    <component base="dvTopbar" xScale="1.31907258469" xOffset="7"/>
    <component base="dvRA_base"/>
  </outline>
</glyph>
<glyph name="dvRA_mU" format="1">
  <advance width="973"/>
  <outline>
    <contour>
      <point x="695" y="35" type="curve"/>
      <point x="822" y="70"/>
      <point x="924" y="130"/>
      <point x="924" y="254" type="curve"/>
      <point x="924" y="399"/>
      <point x="785" y="451"/>
      <point x="622" y="451" type="curve"/>
      <point x="530" y="451"/>
      <point x="431" y="451"/>
      <point x="339" y="451" type="curve"/>
      <point x="339" y="440"/>
      <point x="339" y="346"/>
      <point x="339" y="335" type="curve"/>
      <point x="429" y="335"/>
      <point x="525" y="335"/>
      <point x="614" y="335" type="curve"/>
      <point x="695" y="335"/>
      <point x="766" y="322"/>
      <point x="766" y="254" type="curve"/>
      <point x="766" y="188"/>
      <point x="707" y="163"/>
      <point x="639" y="139" type="curve"/>
      <point x="647" y="130"/>
      <point x="688" y="45"/>
    </contour>
    <component base="dvTopbar" xScale="1.42804139633" xOffset="9"/>
    <component base="dvRA_base"/>
  </outline>
</glyph>
<glyph name="dvRaker" format="1">
  <advance width="500"/>
  <outline>
    <contour>
      <point x="130" y="-23" type="line"/>
      <point x="425" y="294" type="line"/>
      <point x="347" y="360" type="line"/>
      <point x="39" y="54" type="line"/>
    </contour>
  </outline>
</glyph>
<glyph name="dvReph_Anusvara.amI" format="1">
  <advance width="0"/>
  <outline>
    <contour>
      <point x="-71" y="756" type="move" name="_abvm.i"/>
    </contour>
    <component base="dvAnusvara.amI" xScale="0.969711671574" yScale="0.96995884642" xOffset="-28" yOffset="20"/>
    <component base="dvReph.amI" xOffset="2"/>
  </outline>
</glyph>
<glyph name="dvSH_CHA" format="1">
  <advance width="1646"/>
  <outline>
    <contour>
      <point x="1335" y="-9" type="move" name="blwm.virama"/>
    </contour>
    <contour>
      <point x="1435" y="719" type="move" name="abvm.e"/>
    </contour>
    <contour>
      <point x="1352" y="-95" type="move" name="blwm.u"/>
    </contour>
    <component base="dvCHA" xOffset="674"/>
    <component base="dvSH"/>
  </outline>
</glyph>
